<svg width="349" height="375" viewBox="0 0 349 375" fill="none" xmlns="http://www.w3.org/2000/svg">
<path d="M31.4985 97.5C31.4985 97.5 -18.4992 129.5 12.0001 179.5C29.1661 207.642 140 189 158 248.5C160.696 264.898 154.5 297.636 184 299C190.849 299.317 200.5 293 200.5 293" stroke="#434343" stroke-width="3" stroke-linecap="round" stroke-dasharray="10 15"/>
<path d="M299.67 49.9563C305.927 100.065 237.952 152.729 158.767 165.657C79.5831 178.585 23.8613 163.362 24.1372 121.892C24.413 80.4226 20.2276 46.1429 106.872 20.7474C193.516 -4.64809 293.412 -0.152092 299.67 49.9563Z" fill="#FADE7E"/>
<path d="M77.2601 75.513C76.7366 75.6704 76.2356 75.6103 75.7569 75.3327C75.2803 75.0764 74.9643 74.6972 74.8089 74.1951L74.7084 73.8169C74.556 73.573 74.4773 73.3112 74.4723 73.0317L74.4662 72.9677C73.8256 70.5302 73.1071 66.5924 72.3107 61.1545C72.2325 61.0111 72.165 60.8668 72.1081 60.7214C72.033 60.384 72.0346 60.0608 72.1129 59.7518C72.1303 59.2548 72.2946 58.83 72.6057 58.4774C72.9168 58.1248 73.3169 57.9145 73.8058 57.8465C74.1666 57.7907 74.5152 57.833 74.8516 57.9734C76.5349 57.5551 77.9955 57.2872 79.2335 57.1696C80.6443 57.0572 81.8579 57.1358 82.8742 57.4054C84.4404 57.7951 85.5007 58.6421 86.0553 59.9463C86.743 61.5178 86.5926 62.9966 85.6043 64.3827L85.3405 64.6662C86.1596 65.1269 86.8043 65.6795 87.2747 66.324C87.8355 67.24 88.0538 68.1776 87.9295 69.1371C87.8266 70.0945 87.3984 71.029 86.645 71.9405C85.5845 73.2472 83.8021 74.0949 81.2975 74.4835C80.5332 74.5992 79.6474 74.6833 78.6401 74.7358L78.3199 74.7662C78.0535 75.1361 77.7003 75.3851 77.2601 75.513ZM80.7345 70.5956C82.2206 70.3684 83.1547 69.9997 83.537 69.4896C83.9254 69.0435 84.0795 68.7381 83.9993 68.5734C83.7493 68.2095 83.1502 67.911 82.202 67.678C81.6501 67.5365 80.772 67.5876 79.5675 67.8312C79.0186 67.9479 78.3243 68.1215 77.4847 68.352C77.6532 69.2191 77.8283 70.0424 78.01 70.822L78.4583 70.7795C79.3588 70.737 80.1176 70.6757 80.7345 70.5956ZM76.7343 64.1912C78.4897 63.8522 79.8731 63.4516 80.8846 62.9895C81.6734 62.6776 82.1913 62.3485 82.4384 62.002C82.5136 61.8871 82.5081 61.7153 82.4218 61.4866C82.4116 61.3799 82.2307 61.2894 81.8791 61.2151C81.3252 61.0523 80.5573 61.0176 79.5754 61.1108C78.6576 61.1979 77.5878 61.3857 76.366 61.674C76.5314 62.7352 76.6541 63.5742 76.7343 64.1912ZM103.74 71.8356C102.828 71.5345 101.915 70.8782 101 69.8666L100.132 68.883C99.8431 68.5658 99.6044 68.3193 99.4154 68.1434C99.0353 67.7702 98.8307 67.3159 98.8013 66.7802C98.77 66.2232 98.9302 65.7557 99.282 65.3777C99.6317 64.9784 100.085 64.763 100.642 64.7317C101.199 64.7003 101.668 64.8712 102.048 65.2443C102.351 65.4955 102.697 65.8503 103.086 66.3088L103.916 67.2314C104.377 67.7692 104.773 68.0869 105.105 68.1846C105.35 68.269 105.966 68.0598 106.952 67.557C108.081 66.9759 108.726 66.0532 108.886 64.7889C107.502 64.9633 106.089 65.1621 104.645 65.3853C104.116 65.4787 103.632 65.3739 103.194 65.0708C102.756 64.7678 102.491 64.3515 102.397 63.822C102.302 63.2711 102.406 62.7766 102.709 62.3386C103.012 61.9006 103.428 61.635 103.957 61.5416C105.546 61.2615 106.841 61.0632 107.842 60.9466C107.188 59.9534 106.407 59.3276 105.5 59.0692C104.59 58.7894 103.654 58.9106 102.691 59.4327C102.505 59.515 102.289 59.7294 102.041 60.0759L101.523 60.739C101.295 61.0621 101.083 61.3192 100.885 61.5103C100.516 61.933 100.064 62.159 99.5283 62.1883C98.9906 62.1963 98.5115 62.0264 98.0908 61.6787C97.6894 61.3076 97.4741 60.8542 97.4447 60.3186C97.4347 59.7596 97.6163 59.29 97.9894 58.91C98.1053 58.7698 98.2492 58.5838 98.421 58.3521L98.9335 57.625C99.5344 56.9219 100.141 56.3905 100.753 56.0308C101.961 55.3776 103.112 55.0207 104.205 54.96C105.297 54.8993 106.329 55.1029 107.3 55.5707C108.289 56.0152 109.142 56.6019 109.857 57.3308C110.594 58.0577 111.199 58.8726 111.672 59.7752C112.146 60.6779 112.464 61.6492 112.628 62.689C112.81 63.7055 112.822 64.7381 112.663 65.787C112.526 66.8339 112.125 67.8303 111.461 68.7764C110.795 69.7011 109.896 70.4434 108.765 71.0031C106.754 72.0555 105.079 72.333 103.74 71.8356ZM123.252 68.4644C123.303 68.998 123.145 69.4869 122.778 69.9309C122.43 70.3516 121.978 70.5777 121.421 70.609C120.887 70.6597 120.399 70.5122 119.957 70.1665C119.535 69.7974 119.308 69.3344 119.276 68.7774C118.936 64.7391 118.579 61.0902 118.204 57.8305C116.497 57.9926 115.364 58.0894 114.808 58.1207C114.274 58.1714 113.786 58.0239 113.344 57.6782C112.921 57.3091 112.685 56.8577 112.634 56.3241C112.603 55.7671 112.761 55.2783 113.108 54.8576C113.476 54.4135 113.938 54.1758 114.495 54.1445C120.646 53.6034 124.309 53.2772 125.483 53.1657C126.036 53.0917 126.523 53.2392 126.946 53.6083C127.388 53.954 127.635 54.4043 127.688 54.9593C127.76 55.4909 127.613 55.9787 127.246 56.4227C126.898 56.8434 126.457 57.0791 125.924 57.1298C125.563 57.1856 124.326 57.3138 122.213 57.5145C122.567 60.7975 122.914 64.4475 123.252 68.4644ZM133.691 68.507C132.275 67.8876 131.158 66.8953 130.339 65.5301C129.52 64.1648 129.035 62.6818 128.883 61.0809C128.733 59.5014 128.921 57.9651 129.447 56.4722C129.994 54.9772 130.903 53.7817 132.175 52.8856C132.781 52.4619 133.583 52.1704 134.58 52.0111C134.869 51.6606 135.235 51.432 135.678 51.3254C136.141 51.2168 136.588 51.2713 137.018 51.4889C137.562 51.7818 138.363 52.1581 139.419 52.6178C140.319 53.0276 140.987 53.3734 141.423 53.6551C142.118 54.1706 142.663 54.808 143.058 55.5674C143.475 56.3247 143.839 57.3239 144.151 58.565C144.506 60.0389 144.518 61.5239 144.186 63.0199C143.854 64.516 143.211 65.7939 142.256 66.8537C141.224 68.007 139.97 68.74 138.492 69.0527C137.014 69.3653 135.413 69.1834 133.691 68.507ZM135.251 64.8698C136.914 65.5949 138.261 65.3809 139.293 64.2275C139.8 63.6626 140.153 62.9613 140.354 62.1239C140.552 61.2651 140.533 60.3839 140.296 59.4802C139.943 58.0277 139.548 57.1606 139.112 56.8789C138.904 56.7264 138.485 56.5078 137.855 56.223L136.641 55.6921C136.473 55.7297 136.271 55.7596 136.036 55.7819L135.684 55.8153C135.471 55.8356 135.311 55.8615 135.207 55.8929C134.825 55.9508 134.572 56.0178 134.45 56.094C133.866 56.5156 133.419 57.1396 133.11 57.9658C132.822 58.79 132.727 59.7144 132.824 60.739C132.919 61.7422 133.186 62.6214 133.624 63.3767C134.059 64.1107 134.602 64.6084 135.251 64.8698ZM157.479 66.959C156.987 67.2211 156.475 67.2804 155.945 67.137C155.414 66.9935 155.008 66.6874 154.727 66.2188L151.522 60.708C151.54 60.9001 151.598 61.6162 151.694 62.8562C151.809 64.0729 151.9 65.0227 151.964 65.7058C152.017 66.2607 151.87 66.7486 151.522 67.1693C151.174 67.5899 150.723 67.8266 150.168 67.8793C149.613 67.932 149.125 67.7845 148.704 67.4368C148.284 67.0891 148.047 66.6377 147.994 66.0827C147.307 58.8468 146.872 54.4945 146.69 53.0257C146.616 52.4728 146.741 51.9763 147.065 51.5363C147.392 51.1176 147.831 50.8713 148.384 50.7973C148.838 50.5819 149.309 50.5587 149.799 50.7275C150.287 50.875 150.66 51.1735 150.918 51.6228L156.258 60.9045C157.912 56.7845 159.135 53.5562 159.925 51.2198C159.968 50.7634 160.146 50.3696 160.459 50.0383C160.772 49.7071 161.152 49.5095 161.598 49.4456C162.149 49.3502 162.645 49.4647 163.085 49.789C163.546 50.1114 163.814 50.549 163.888 51.102C164.861 57.04 165.394 61.523 165.488 64.5509C165.519 65.1079 165.339 65.5881 164.946 65.9915C164.575 66.3928 164.11 66.5985 163.551 66.6085C162.994 66.6399 162.515 66.47 162.114 66.0989C161.71 65.7065 161.503 65.2307 161.493 64.6717C161.435 63.1481 161.307 61.4588 161.109 59.6038L158.644 65.6207C158.523 65.9338 158.333 66.1995 158.073 66.4179C157.921 66.6263 157.723 66.8066 157.479 66.959ZM187.526 64.1058C187.034 64.3679 186.523 64.4273 185.992 64.2838C185.462 64.1403 185.056 63.8343 184.774 63.3656L181.57 57.8549C181.588 58.047 181.645 58.763 181.741 60.0031C181.857 61.2197 181.947 62.1696 182.012 62.8526C182.065 63.4076 181.917 63.8954 181.569 64.3161C181.222 64.7368 180.77 64.9735 180.215 65.0262C179.66 65.0789 179.173 64.9314 178.752 64.5836C178.331 64.2359 178.095 63.7846 178.042 63.2296C177.355 55.9937 176.92 51.6413 176.737 50.1726C176.663 49.6196 176.789 49.1232 177.113 48.6832C177.439 48.2645 177.879 48.0181 178.432 47.9441C178.885 47.7287 179.357 47.7055 179.847 47.8744C180.335 48.0219 180.707 48.3203 180.966 48.7696L186.305 58.0513C187.96 53.9313 189.183 50.7031 189.973 48.3666C190.016 47.9102 190.194 47.5164 190.507 47.1852C190.82 46.8539 191.2 46.6563 191.646 46.5924C192.197 46.4971 192.692 46.6115 193.132 46.9359C193.594 47.2582 193.861 47.6959 193.935 48.2488C194.908 54.1869 195.442 58.6698 195.535 61.6977C195.567 62.2547 195.386 62.7349 194.994 63.1383C194.623 63.5397 194.158 63.7454 193.599 63.7554C193.042 63.7867 192.562 63.6169 192.161 63.2458C191.758 62.8533 191.551 62.3776 191.541 61.8186C191.482 60.295 191.354 58.6057 191.157 56.7507L188.691 62.7676C188.57 63.0806 188.38 63.3463 188.121 63.5648C187.968 63.7731 187.77 63.9535 187.526 64.1058ZM205.568 62.5865C204.331 62.4886 203.196 62.2087 202.161 61.747C201.052 61.1846 200.145 60.4739 199.439 59.6148C198.748 58.6897 198.291 57.7317 198.067 56.7406C197.842 55.7282 197.767 54.7123 197.843 53.6929C197.94 52.6714 198.18 51.6902 198.565 50.7491C198.97 49.806 199.503 48.9478 200.162 48.1745C200.818 47.3798 201.586 46.7255 202.463 46.2114C203.338 45.676 204.343 45.376 205.479 45.3113C206.633 45.2232 207.805 45.4242 208.993 45.9145C210.562 46.5623 211.788 47.5659 212.671 48.925C213.096 49.5523 213.387 50.3431 213.542 51.2976L213.694 52.22C213.723 52.5188 213.756 52.7526 213.793 52.9213C213.894 53.2995 213.875 53.6674 213.737 54.0251C213.62 54.3808 213.399 54.6709 213.076 54.8955C212.74 55.2074 212.345 55.3633 211.893 55.3632C208.417 55.4994 205.096 55.7933 201.929 56.2447C202.275 57.1595 202.91 57.8422 203.836 58.2927C204.377 58.5429 205.028 58.7073 205.789 58.7857C206.57 58.8408 207.198 58.7704 207.675 58.5743C207.861 58.4921 208.102 58.3077 208.398 58.0211L209.018 57.413C209.272 57.1305 209.518 56.8917 209.758 56.6966C210.157 56.3573 210.617 56.2166 211.14 56.2747C211.683 56.3307 212.126 56.5687 212.467 56.9886C212.807 57.3871 212.947 57.8476 212.889 58.37C212.831 58.8924 212.604 59.334 212.207 59.6947C212.087 59.7922 211.929 59.9365 211.731 60.1275L211.085 60.8027C210.391 61.4286 209.722 61.8691 209.078 62.124C207.975 62.5302 206.805 62.6844 205.568 62.5865ZM202.074 52.3219C204.542 52.0014 207.071 51.7613 209.662 51.6014C209.614 51.3259 209.553 51.1379 209.479 51.0372C209.003 50.3287 208.349 49.7984 207.519 49.4465C206.378 48.9949 205.326 49.0302 204.363 49.5524C203.398 50.0532 202.653 50.9316 202.126 52.1878L202.074 52.3219ZM226.149 60.3415C224.743 60.9489 223.225 61.0714 221.597 60.7091C220.254 60.4059 219.125 59.8562 218.21 59.0601C217.292 58.2427 216.644 57.3135 216.265 56.2726C215.906 55.2083 215.706 54.1288 215.667 53.0342C215.649 51.9375 215.774 50.8703 216.041 49.8326C216.35 48.7696 216.805 47.7787 217.407 46.86C218.03 45.9394 218.789 45.1996 219.683 44.6409C220.638 44.0333 221.729 43.7252 222.956 43.7164C224.182 43.7076 225.409 44.0326 226.634 44.6916C227.27 45.0404 227.873 45.6077 228.443 46.3936L228.961 47.0874C229.112 47.31 229.246 47.4803 229.365 47.5983C229.705 47.9968 229.846 48.4679 229.79 49.0117C229.754 49.5321 229.537 49.9726 229.14 50.3333C228.765 50.692 228.307 50.854 227.765 50.8193C227.221 50.7632 226.769 50.537 226.408 50.1405C226.215 49.9219 226.007 49.6509 225.782 49.3277L225.334 48.6918C225.088 48.3705 224.897 48.1733 224.761 48.1001C223.601 47.4564 222.585 47.4129 221.712 47.9696C220.817 48.5284 220.178 49.5045 219.793 50.8978C219.374 52.3807 219.401 53.6918 219.876 54.8313C220.371 55.9688 221.214 56.6749 222.403 56.9497C223.236 57.1075 223.974 57.0482 224.615 56.7719C224.741 56.7384 224.92 56.5815 225.152 56.301L225.645 55.705C225.917 55.3992 226.141 55.1517 226.317 54.9627C226.735 54.6 227.203 54.4263 227.721 54.4417C228.259 54.4337 228.708 54.628 229.069 55.0245C229.451 55.419 229.635 55.886 229.622 56.4257C229.609 56.9655 229.414 57.4146 229.039 57.7733C228.919 57.8709 228.772 58.0248 228.599 58.2352L228.077 58.8662C227.455 59.5714 226.812 60.0632 226.149 60.3415ZM240.879 57.2952C240.929 57.8289 240.771 58.3177 240.404 58.7618C240.056 59.1825 239.604 59.4085 239.047 59.4398C238.513 59.4905 238.026 59.343 237.584 58.9973C237.161 58.6282 236.934 58.1652 236.903 57.6082C236.562 53.5699 236.205 49.921 235.831 46.6613C234.123 46.8234 232.991 46.9202 232.434 46.9515C231.9 47.0022 231.412 46.8547 230.97 46.509C230.548 46.1399 230.311 45.6886 230.26 45.1549C230.229 44.5979 230.387 44.1091 230.735 43.6884C231.102 43.2443 231.564 43.0066 232.121 42.9753C238.272 42.4343 241.935 42.108 243.109 41.9965C243.662 41.9225 244.15 42.07 244.572 42.4391C245.014 42.7848 245.262 43.2351 245.315 43.7901C245.387 44.3217 245.239 44.8095 244.872 45.2536C244.524 45.6743 244.084 45.9099 243.55 45.9606C243.189 46.0164 241.952 46.1446 239.839 46.3453C240.194 49.6284 240.54 53.2783 240.879 57.2952ZM254.72 57.9193C253.483 57.8214 252.347 57.5416 251.313 57.0798C250.204 56.5174 249.297 55.8067 248.591 54.9477C247.9 54.0225 247.443 53.0645 247.219 52.0734C246.994 51.061 246.919 50.0451 246.994 49.0257C247.091 48.0042 247.332 47.023 247.716 46.0819C248.122 45.1388 248.654 44.2806 249.313 43.5073C249.97 42.7127 250.737 42.0583 251.614 41.5443C252.49 41.0089 253.495 40.7088 254.63 40.6441C255.785 40.556 256.956 40.757 258.144 41.2473C259.714 41.8952 260.94 42.8987 261.822 44.2579C262.248 44.8851 262.539 45.6759 262.694 46.6304L262.846 47.5528C262.874 47.8516 262.907 48.0854 262.945 48.2541C263.045 48.6323 263.027 49.0002 262.888 49.3579C262.771 49.7136 262.551 50.0038 262.228 50.2283C261.891 50.5402 261.497 50.6961 261.045 50.696C257.568 50.8323 254.247 51.1261 251.081 51.5775C251.426 52.4923 252.062 53.175 252.988 53.6256C253.528 53.8757 254.179 54.0401 254.941 54.1185C255.721 54.1736 256.35 54.1032 256.827 53.9072C257.013 53.8249 257.254 53.6405 257.549 53.3539L258.17 52.7458C258.423 52.4633 258.67 52.2245 258.91 52.0294C259.308 51.6901 259.769 51.5494 260.291 51.6075C260.835 51.6636 261.278 51.9015 261.619 52.3214C261.958 52.7199 262.099 53.1804 262.041 53.7028C261.983 54.2252 261.755 54.6668 261.359 55.0275C261.239 55.125 261.08 55.2693 260.883 55.4603L260.237 56.1355C259.542 56.7615 258.873 57.2019 258.23 57.4568C257.127 57.8631 255.957 58.0172 254.72 57.9193ZM251.226 47.6547C253.693 47.3342 256.223 47.0941 258.814 46.9342C258.766 46.6588 258.705 46.4707 258.631 46.3701C258.154 45.6615 257.501 45.1313 256.671 44.7794C255.529 44.3277 254.477 44.363 253.515 44.8852C252.55 45.386 251.804 46.2645 251.277 47.5206L251.226 47.6547ZM83.8779 102.338C83.9285 102.872 83.7703 103.361 83.4033 103.805C83.0556 104.225 82.6032 104.451 82.0462 104.483C81.5126 104.533 81.0248 104.386 80.5827 104.04C80.16 103.671 79.933 103.208 79.9016 102.651C79.5612 98.6129 79.204 94.9639 78.8299 91.7042C77.1223 91.8663 75.99 91.9631 75.433 91.9944C74.8993 92.0451 74.4115 91.8976 73.9695 91.5519C73.5468 91.1828 73.3101 90.7315 73.2594 90.1979C73.228 89.6409 73.3862 89.152 73.734 88.7313C74.101 88.2873 74.563 88.0496 75.12 88.0182C81.2714 87.4772 84.9341 87.1509 86.1081 87.0395C86.661 86.9654 87.1488 87.1129 87.5716 87.482C88.0136 87.8277 88.261 88.278 88.3137 88.833C88.3857 89.3646 88.2382 89.8524 87.8711 90.2965C87.5234 90.7172 87.0827 90.9529 86.5491 91.0035C86.1882 91.0593 84.9513 91.1876 82.8381 91.3882C83.1929 94.6713 83.5395 98.3213 83.8779 102.338ZM94.4504 103.24C93.8995 103.336 93.404 103.221 92.964 102.897C92.524 102.572 92.2563 102.135 92.1609 101.584C91.7012 98.7847 91.0393 94.4216 90.175 88.4947C90.0796 87.9438 90.1941 87.4483 90.5184 87.0083C90.8641 86.5663 91.3134 86.3083 91.8664 86.2342C92.4173 86.1388 92.9138 86.264 93.3558 86.6097C93.7958 86.934 94.0528 87.3727 94.1269 87.9256L94.7158 91.7464C95.5961 91.4906 96.3107 91.3042 96.8596 91.1875C98.6729 90.7784 100.152 90.7026 101.296 90.9601C102.684 91.2806 103.838 91.871 104.76 92.7311C105.703 93.5892 106.233 94.6373 106.35 95.8753C106.487 97.0899 106.198 98.2373 105.482 99.3176C104.785 100.374 103.792 101.255 102.502 101.959C102.01 102.221 101.493 102.442 100.95 102.623C100.426 102.781 99.8338 102.891 99.1721 102.953C98.5318 103.014 98.0505 103.049 97.7283 103.058C97.4081 103.089 96.8715 103.107 96.1183 103.114C95.3865 103.119 94.9876 103.114 94.9215 103.099C94.7782 103.177 94.6211 103.224 94.4504 103.24ZM95.8023 99.106C96.7516 99.1235 97.6425 99.0928 98.475 99.0137C99.3054 98.9133 100.018 98.7057 100.613 98.3908C101.105 98.1287 101.487 97.8447 101.759 97.5388C102.053 97.231 102.224 96.9886 102.272 96.8117C102.339 96.6115 102.366 96.4474 102.354 96.3193C102.34 96.1699 102.294 96.0235 102.216 95.8802C102.137 95.7369 101.938 95.562 101.617 95.3556C101.296 95.1492 100.881 94.9839 100.374 94.8597C99.8458 94.7376 98.9706 94.8207 97.7488 95.109C97.1786 95.2278 96.3593 95.4456 95.291 95.7624L95.8023 99.106ZM107.354 99.9798C106.748 93.5976 106.389 89.2489 106.277 86.9335C106.245 86.3765 106.415 85.8973 106.786 85.4959C107.155 85.0732 107.619 84.8569 108.178 84.8468C108.735 84.8155 109.215 84.9854 109.616 85.3565C110.039 85.7255 110.255 86.1896 110.265 86.7486C110.349 88.7652 110.702 93.0499 111.324 99.6028C111.377 100.158 111.229 100.646 110.882 101.066C110.534 101.487 110.082 101.724 109.528 101.776C108.973 101.829 108.485 101.682 108.064 101.334C107.643 100.986 107.407 100.535 107.354 99.9798ZM128.056 99.3386C127.734 99.7999 127.298 100.089 126.749 100.206C126.222 100.32 125.728 100.227 125.269 99.9263C124.808 99.6039 124.52 99.179 124.405 98.6515C124.238 97.8058 124.083 96.9591 123.937 96.1113C123.79 95.2423 123.654 94.2645 123.53 93.1779L123.229 90.6866C123.174 90.1103 123.076 89.1935 122.935 87.9362C122.815 86.6768 122.739 85.8764 122.707 85.5349C122.633 84.9819 122.77 84.4951 123.118 84.0744C123.485 83.6304 123.935 83.383 124.469 83.3323C125.022 83.2583 125.509 83.4058 125.932 83.7749C126.374 84.1206 126.62 84.5602 126.671 85.0939C126.743 85.6255 126.827 86.3929 126.922 87.3961L127.104 89.3171C129.062 89.0666 131.194 88.8319 133.499 88.613L133.011 84.4919C132.937 83.939 133.072 83.4415 133.418 82.9994C133.764 82.5574 134.203 82.311 134.737 82.2604C135.29 82.1863 135.787 82.3222 136.229 82.6679C136.672 83.0136 136.918 83.4532 136.969 83.9868C137.787 90.5642 138.308 94.9191 138.532 97.0516C138.606 97.6045 138.47 98.102 138.125 98.544C137.777 98.9647 137.326 99.2014 136.771 99.2541C136.218 99.3281 135.72 99.1923 135.278 98.8466C134.857 98.4989 134.621 98.0475 134.568 97.4926C134.384 96.0025 134.195 94.362 134.004 92.571C131.658 92.8153 129.517 93.0617 127.581 93.3102C127.799 94.9263 128.049 96.4317 128.332 97.8262C128.449 98.3751 128.357 98.8792 128.056 99.3386ZM149.982 97.8058C148.926 98.2507 147.918 98.411 146.958 98.2867C145.997 98.1411 145.114 97.8049 144.31 97.2782C143.528 96.7495 142.864 96.1125 142.32 95.3673C141.795 94.5988 141.439 93.8034 141.253 92.981C140.89 91.4218 140.827 89.8555 141.066 88.2822C141.323 86.6855 141.88 85.2866 142.735 84.0854C143.68 82.7034 144.916 81.7677 146.442 81.2782C147.966 80.7674 149.745 80.7922 151.779 81.3529C152.465 81.5462 153.212 81.9275 154.02 82.4969C154.116 82.5955 154.256 82.7115 154.441 82.8447L154.996 83.2443C155.157 83.3581 155.318 83.4613 155.477 83.5539C155.935 83.8335 156.222 84.2478 156.338 84.7967C156.475 85.3222 156.403 85.8136 156.123 86.2709C155.897 86.6154 155.588 86.8709 155.194 87.0375L155.229 87.0665C155.437 87.4345 155.58 87.927 155.66 88.5439C155.706 88.7981 155.729 89.0435 155.73 89.2803C155.751 89.4938 155.763 89.6219 155.767 89.6646C155.771 89.7072 155.789 89.7809 155.82 89.8856C156.032 90.5331 156.264 91.2757 156.516 92.1133C156.583 92.3653 156.631 92.5224 156.658 92.5844C156.707 92.6444 156.766 92.7034 156.836 92.7613L158.341 93.9753C158.785 94.3424 159.023 94.8044 159.054 95.3614C159.105 95.895 158.945 96.3732 158.576 96.7959C158.229 97.2166 157.787 97.4416 157.251 97.4709C156.718 97.5216 156.24 97.373 155.82 97.0253L154.35 95.8403C153.836 95.4153 153.465 95.0198 153.236 94.6538L153.195 94.5608C153.178 94.6055 153.104 94.7311 152.972 94.9373L152.663 95.419L152.26 95.9419C152.108 96.1502 151.953 96.3371 151.796 96.5028L151.26 96.9737C151.06 97.1434 150.849 97.3034 150.627 97.4538C150.424 97.5808 150.209 97.6981 149.982 97.8058ZM148.348 94.2134C148.432 94.1839 148.514 94.1438 148.595 94.093C148.675 94.0209 148.744 93.9604 148.804 93.9116C148.862 93.8415 148.939 93.7374 149.033 93.5992C149.128 93.461 149.214 93.3451 149.291 93.2516C149.368 93.1581 149.493 92.9956 149.665 92.7639L150.029 92.18C150.162 91.9951 150.328 91.581 150.525 90.9376C150.54 90.8716 150.544 90.7959 150.536 90.7105C150.549 90.6231 150.545 90.4726 150.525 90.2592C150.524 90.0224 150.532 89.7632 150.548 89.4817C150.558 87.9947 151.061 86.9454 152.058 86.3338C152.14 86.283 152.222 86.2429 152.306 86.2134L151.745 85.7498C151.283 85.4275 150.909 85.2261 150.621 85.1457C148.536 84.5038 146.991 84.9089 145.988 86.3611C145.472 87.0561 145.135 87.9281 144.976 88.977C144.815 90.0045 144.861 91.0555 145.114 92.1299C145.296 92.9095 145.741 93.5134 146.449 93.9415C147.157 94.3696 147.79 94.4602 148.348 94.2134ZM163.967 96.7362C163.417 96.8316 162.911 96.7288 162.452 96.4278C162.012 96.1035 161.744 95.6659 161.649 95.1149C160.643 89.2877 159.991 84.9129 159.692 81.9907C159.618 81.4377 159.755 80.9509 160.103 80.5302C160.47 80.0862 160.92 79.8388 161.454 79.7881C162.007 79.7141 162.493 79.8509 162.914 80.1986C163.358 80.5657 163.605 81.016 163.656 81.5496C163.896 83.8529 164.262 86.4565 164.753 89.3605L170.385 79.9416L170.411 79.8745C170.705 79.1143 171.257 78.6957 172.068 78.6187C172.621 78.5446 173.109 78.6922 173.532 79.0612C173.974 79.4069 174.22 79.8466 174.271 80.3802C174.462 82.1712 174.738 84.7295 175.096 88.0553C175.455 91.381 175.644 93.2584 175.664 93.6873C175.714 94.2209 175.556 94.7098 175.189 95.1538C174.841 95.5745 174.389 95.8005 173.832 95.8319C173.298 95.8825 172.81 95.735 172.368 95.3893C171.946 95.0203 171.719 94.5572 171.687 94.0002C171.596 93.0397 171.435 91.6874 171.205 89.9431C170.973 88.1776 170.857 87.1871 170.858 86.9716L165.787 95.142C165.694 95.3016 165.589 95.4408 165.471 95.5597C165.188 96.2111 164.687 96.6033 163.967 96.7362ZM166.624 79.4587C165.904 79.5917 165.111 79.4085 164.245 78.9092C164.226 78.9326 163.955 78.7968 163.431 78.5019L162.034 77.7301C161.536 77.4758 161.197 77.088 161.018 76.5665C160.838 76.0237 160.875 75.514 161.132 75.0374C161.386 74.5394 161.774 74.2011 162.295 74.0223C162.817 73.8436 163.326 73.8813 163.824 74.1356C163.961 74.2088 164.699 74.6125 166.039 75.3467L166.341 75.1242C167.315 74.4933 168.273 73.9178 169.214 73.3977C169.708 73.1569 170.221 73.1189 170.754 73.2838C171.284 73.4272 171.67 73.746 171.911 74.24C172.173 74.732 172.232 75.2433 172.089 75.7738C171.945 76.3043 171.617 76.7016 171.104 76.9658C170.244 77.4351 169.388 77.9471 168.536 78.5018C167.705 79.0545 167.068 79.3735 166.624 79.4587ZM192.981 97.4057C192.953 97.1069 192.939 96.7313 192.939 96.279L192.938 95.9238C192.939 95.7083 192.933 95.5365 192.921 95.4084C192.919 94.9348 192.877 94.605 192.795 94.4189C192.738 94.2736 192.577 94.1704 192.313 94.1093C192.159 94.0808 191.892 94.0955 191.509 94.1533C191.447 94.1807 191.374 94.1985 191.288 94.2066C191.203 94.2147 191.107 94.2238 191 94.234C190.917 94.2634 190.844 94.2919 190.782 94.3193C190.4 94.3771 190.07 94.4192 189.793 94.4455L181.82 95.2026L181.942 97.1617C181.992 97.6953 181.833 98.1735 181.464 98.5962C181.095 99.0189 180.632 99.246 180.075 99.2773C179.541 99.328 179.063 99.1688 178.641 98.7997C178.218 98.4306 177.991 97.9676 177.959 97.4106L177.706 93.7195C177.665 93.2926 177.757 92.8962 177.981 92.5304C178.25 91.9664 178.7 91.6006 179.33 91.4331C180.902 87.3425 181.597 83.4321 181.415 79.7019C181.385 79.1662 181.556 78.6977 181.927 78.2963C182.296 77.8736 182.759 77.6466 183.316 77.6152C183.444 77.6031 183.585 77.6112 183.739 77.6397C183.76 77.6377 184.004 77.6037 184.472 77.5378C184.94 77.4719 185.461 77.4009 186.035 77.3248C186.609 77.2487 187.152 77.1864 187.665 77.1377C188.685 76.9978 189.494 76.8994 190.092 76.8426C190.455 76.8082 190.744 76.7915 190.959 76.7926L191.344 76.7561C191.431 76.7693 191.517 76.7719 191.603 76.7638C191.865 76.8035 192.109 76.8773 192.335 76.9851C192.539 77.0949 192.713 77.2291 192.857 77.3877C193.023 77.5443 193.132 77.6739 193.185 77.7766L193.264 77.9306C193.317 78.0332 193.349 78.1379 193.359 78.2447C193.388 78.328 193.406 78.4017 193.412 78.4657C193.439 78.5277 193.457 78.6014 193.465 78.6868L193.499 79.039C193.502 79.2972 193.528 79.6824 193.576 80.1947C193.585 80.5169 193.618 81.0845 193.673 81.8977C193.729 82.7108 193.757 83.2358 193.758 83.4726C194.007 87.0026 194.201 89.3856 194.34 90.6216C195.336 91.1301 196.04 91.8494 196.451 92.7795C196.755 93.4829 196.922 94.3393 196.953 95.3486L196.946 96.2862C196.933 96.6104 196.935 96.8579 196.951 97.0287C197.004 97.5837 196.857 98.0715 196.509 98.4922C196.161 98.9129 195.71 99.1496 195.155 99.2023C194.6 99.255 194.112 99.1075 193.691 98.7597C193.271 98.412 193.034 97.9607 192.981 97.4057ZM189.416 90.4754C189.565 90.4612 189.766 90.4206 190.018 90.3536L190.274 90.3293C190.138 88.8992 189.972 86.6966 189.776 83.7215L189.607 80.9269C189.183 80.9888 188.693 81.0461 188.138 81.0988C187.371 81.1931 186.478 81.3102 185.457 81.4502C185.423 84.4902 184.853 87.678 183.749 91.0135L189.416 90.4754ZM204.777 92.7965C203.54 92.6986 202.405 92.4188 201.37 91.9571C200.261 91.3947 199.354 90.684 198.648 89.8249C197.957 88.8998 197.5 87.9417 197.276 86.9507C197.051 85.9383 196.976 84.9224 197.052 83.9029C197.148 82.8815 197.389 81.9002 197.774 80.9591C198.179 80.016 198.712 79.1578 199.371 78.3845C200.027 77.5899 200.794 76.9356 201.672 76.4215C202.547 75.8861 203.552 75.586 204.688 75.5213C205.842 75.4332 207.014 75.6343 208.202 76.1245C209.771 76.7724 210.997 77.7759 211.88 79.1351C212.305 79.7623 212.596 80.5532 212.751 81.5076L212.903 82.43C212.932 82.7289 212.965 82.9627 213.002 83.1314C213.103 83.5095 213.084 83.8774 212.945 84.2352C212.828 84.5909 212.608 84.881 212.285 85.1055C211.949 85.4175 211.554 85.5734 211.102 85.5733C207.626 85.7095 204.305 86.0033 201.138 86.4547C201.484 87.3696 202.119 88.0523 203.045 88.5028C203.586 88.753 204.237 88.9173 204.998 88.9958C205.778 89.0509 206.407 88.9804 206.884 88.7844C207.07 88.7021 207.311 88.5177 207.607 88.2312L208.227 87.623C208.481 87.3405 208.727 87.1018 208.967 86.9067C209.366 86.5673 209.826 86.4267 210.348 86.4848C210.892 86.5408 211.335 86.7788 211.676 87.1986C212.016 87.5972 212.156 88.0576 212.098 88.58C212.04 89.1025 211.813 89.544 211.416 89.9047C211.296 90.0023 211.138 90.1465 210.94 90.3376L210.294 91.0128C209.599 91.6387 208.931 92.0791 208.287 92.3341C207.184 92.7403 206.014 92.8945 204.777 92.7965ZM201.283 82.532C203.751 82.2115 206.28 81.9713 208.871 81.8114C208.823 81.536 208.762 81.3479 208.688 81.2473C208.212 80.5387 207.558 80.0085 206.728 79.6566C205.587 79.205 204.535 79.2403 203.572 79.7624C202.607 80.2632 201.861 81.1417 201.335 82.3978L201.283 82.532ZM219.92 91.4556C219.772 91.4911 219.622 91.4947 219.469 91.4661C219.04 91.4853 218.641 91.3724 218.273 91.1274C217.904 90.861 217.645 90.5194 217.498 90.1026C217.01 88.5982 216.599 86.9896 216.264 85.2769C215.927 83.5428 215.68 82.0695 215.521 80.8569C215.382 79.6209 215.24 78.2345 215.094 76.6977C215.041 76.1427 215.189 75.6549 215.537 75.2342C215.884 74.8135 216.336 74.5768 216.891 74.5241C217.446 74.4714 217.933 74.6189 218.354 74.9667C218.775 75.3144 219.012 75.7657 219.064 76.3207C219.506 80.9739 220.101 84.6326 220.85 87.2968C222.19 87.1264 223.639 86.9565 225.195 86.7872C225.154 86.3603 225.045 85.4339 224.866 84.0078C224.688 82.5818 224.556 81.5389 224.472 80.8792C224.407 80.1962 224.333 79.2987 224.249 78.1867C224.196 77.6318 224.143 76.84 224.088 75.8114C224.057 75.2544 224.226 74.7752 224.598 74.3738C224.967 73.9511 225.431 73.7347 225.99 73.7247C226.547 73.6934 227.026 73.8632 227.427 74.2343C227.85 74.6034 228.066 75.0675 228.076 75.6265C228.121 76.5484 228.173 77.4372 228.233 78.293C228.314 79.1468 228.398 79.9249 228.487 80.6273C228.573 81.3083 228.689 82.3095 228.836 83.6308C229.005 84.9502 229.125 85.8756 229.197 86.4072C229.899 86.319 231.351 86.1812 233.551 85.9938C233.527 82.3347 233.309 78.6832 232.899 75.0393C232.825 74.4864 232.962 73.9996 233.309 73.5789C233.655 73.1369 234.105 72.8895 234.66 72.8368C235.213 72.7628 235.7 72.8996 236.121 73.2473C236.563 73.593 236.81 74.0434 236.863 74.5983C237.391 79.0279 237.622 83.3889 237.556 87.6811C237.542 88.4363 237.208 89.0064 236.555 89.3914C236.234 89.6373 235.871 89.7795 235.465 89.818C227.802 90.5456 222.621 91.0915 219.92 91.4556ZM244.525 89.3131C243.972 89.3871 243.475 89.2513 243.033 88.9056C242.612 88.5579 242.375 88.1065 242.322 87.5515C242.122 85.8907 241.802 83.5412 241.362 80.5031C240.942 77.4416 240.67 75.3675 240.545 74.281C240.471 73.728 240.597 73.2315 240.921 72.7915C241.267 72.3495 241.717 72.1021 242.272 72.0494C242.825 71.9754 243.322 72.1112 243.764 72.4569C244.204 72.7813 244.451 73.2209 244.503 73.7759L245.047 77.7949C245.809 77.6579 246.476 77.5407 247.048 77.4433C247.939 77.2941 248.706 77.2105 249.351 77.1924C250.337 77.1418 251.122 77.2503 251.708 77.5178C252.515 77.8503 253.221 78.3755 253.828 79.0933C254.434 79.811 254.853 80.5897 255.083 81.4293C255.565 83.322 255.295 84.909 254.276 86.1904C253.486 87.17 252.301 87.8532 250.723 88.24C249.484 88.573 247.829 88.7301 245.76 88.7112C245.428 89.0658 245.016 89.2665 244.525 89.3131ZM245.994 84.7153C247.61 84.7127 248.858 84.5941 249.74 84.3596C250.456 84.184 250.93 83.9559 251.162 83.6755C251.333 83.4438 251.338 83.0342 251.174 82.4466C251.034 81.8784 250.693 81.4586 250.15 81.187L250.086 81.1931C250.043 81.1972 249.968 81.1936 249.859 81.1824C249.771 81.1691 249.664 81.1686 249.536 81.1808C249.043 81.206 248.425 81.2755 247.682 81.3891C247.088 81.4885 246.4 81.6184 245.619 81.7788C245.767 82.8847 245.892 83.8635 245.994 84.7153ZM79.5159 132.952C79.4175 132.143 79.2938 131.067 79.1448 129.724C78.9958 128.382 78.901 127.497 78.8605 127.07C78.5867 124.641 78.2874 122.623 77.9626 121.017C77.9129 120.72 77.9186 120.44 77.9797 120.175C77.9482 120.071 77.9274 119.965 77.9172 119.858C77.8432 119.305 77.98 118.818 78.3278 118.398C78.6735 117.956 79.1238 117.708 79.6788 117.656C79.7428 117.65 80.3384 117.571 81.4657 117.421C82.5929 117.271 83.5717 117.146 84.4021 117.046C85.6381 116.907 86.652 116.81 87.4438 116.757C87.9347 116.71 88.3423 116.693 88.6665 116.705C89.1829 116.699 89.5955 116.736 89.9045 116.814C91.1464 117.191 92.1559 118.183 92.933 119.789C93.0895 120.076 93.2047 120.496 93.2787 121.049C93.3345 121.409 93.3898 121.878 93.4445 122.454C93.5296 123.351 93.6218 124.548 93.721 126.046C93.7665 126.753 93.8055 127.503 93.8378 128.297C93.8701 129.091 93.8922 129.778 93.9043 130.358C93.9376 130.936 93.9645 131.332 93.9847 131.546C94.0354 132.079 93.8772 132.568 93.5102 133.012C93.1624 133.433 92.7101 133.659 92.1531 133.69C91.6195 133.741 91.1316 133.593 90.6896 133.248C90.2669 132.879 90.0398 132.416 90.0085 131.859C89.9902 131.667 89.9634 131.271 89.928 130.671C89.8926 130.071 89.8577 129.364 89.8234 128.549C89.7891 127.734 89.7492 126.973 89.7036 126.266C89.6085 124.811 89.5214 123.667 89.4423 122.834L89.3299 121.65C89.3004 121.566 89.2826 121.493 89.2766 121.429C89.0927 121.08 88.9296 120.837 88.7874 120.7L88.6913 120.709C88.4545 120.71 88.1323 120.719 87.7247 120.736C86.999 120.805 86.0395 120.907 84.8462 121.042C84.0798 121.136 83.164 121.245 82.0988 121.367C82.3687 122.849 82.6213 124.602 82.8566 126.626C82.8991 127.074 82.9832 127.96 83.1089 129.283C83.2559 130.605 83.3776 131.659 83.4739 132.447C83.5479 133 83.4121 133.497 83.0664 133.939C82.7421 134.379 82.3024 134.626 81.7474 134.678C81.1945 134.752 80.698 134.627 80.258 134.303C79.816 133.957 79.5686 133.507 79.5159 132.952ZM101.311 131.852C99.895 131.232 98.7777 130.24 97.9589 128.875C97.1401 127.509 96.6546 126.026 96.5026 124.425C96.3526 122.846 96.5406 121.31 97.0665 119.817C97.6137 118.322 98.5232 117.126 99.795 116.23C100.401 115.806 101.202 115.515 102.2 115.356C102.489 115.005 102.855 114.777 103.297 114.67C103.761 114.561 104.208 114.616 104.638 114.833C105.182 115.126 105.983 115.503 107.038 115.962C107.939 116.372 108.607 116.718 109.043 117C109.738 117.515 110.283 118.153 110.678 118.912C111.095 119.669 111.459 120.668 111.771 121.91C112.126 123.383 112.138 124.868 111.806 126.364C111.474 127.86 110.831 129.138 109.876 130.198C108.844 131.352 107.589 132.085 106.111 132.397C104.634 132.71 103.033 132.528 101.311 131.852ZM102.871 128.214C104.534 128.939 105.881 128.725 106.913 127.572C107.42 127.007 107.773 126.306 107.973 125.468C108.172 124.61 108.153 123.728 107.916 122.825C107.563 121.372 107.168 120.505 106.732 120.223C106.524 120.071 106.105 119.852 105.475 119.568L104.261 119.037C104.093 119.074 103.891 119.104 103.656 119.126L103.304 119.16C103.09 119.18 102.931 119.206 102.827 119.237C102.444 119.295 102.192 119.362 102.07 119.439C101.486 119.86 101.039 120.484 100.73 121.31C100.442 122.135 100.347 123.059 100.444 124.083C100.539 125.087 100.806 125.966 101.243 126.721C101.679 127.455 102.222 127.953 102.871 128.214ZM128.155 133.696C128.127 133.397 128.113 133.022 128.113 132.569L128.112 132.214C128.113 131.999 128.107 131.827 128.095 131.699C128.093 131.225 128.051 130.895 127.969 130.709C127.912 130.564 127.751 130.461 127.487 130.4C127.334 130.371 127.066 130.386 126.684 130.444C126.622 130.471 126.548 130.489 126.463 130.497C126.377 130.505 126.281 130.514 126.174 130.524C126.091 130.554 126.018 130.582 125.956 130.61C125.574 130.668 125.244 130.71 124.967 130.736L116.995 131.493L117.116 133.452C117.167 133.986 117.007 134.464 116.638 134.887C116.269 135.309 115.806 135.536 115.249 135.568C114.716 135.618 114.237 135.459 113.815 135.09C113.392 134.721 113.165 134.258 113.134 133.701L112.88 130.01C112.84 129.583 112.931 129.187 113.155 128.821C113.424 128.257 113.874 127.891 114.504 127.724C116.076 123.633 116.771 119.723 116.589 115.992C116.559 115.457 116.73 114.988 117.101 114.587C117.47 114.164 117.934 113.937 118.491 113.906C118.619 113.894 118.759 113.902 118.913 113.93C118.934 113.928 119.179 113.894 119.646 113.828C120.114 113.762 120.635 113.691 121.209 113.615C121.783 113.539 122.327 113.477 122.839 113.428C123.859 113.288 124.668 113.19 125.266 113.133C125.629 113.099 125.918 113.082 126.134 113.083L126.518 113.047C126.605 113.06 126.692 113.062 126.777 113.054C127.039 113.094 127.283 113.168 127.509 113.276C127.713 113.385 127.887 113.52 128.031 113.678C128.197 113.835 128.306 113.964 128.359 114.067L128.438 114.221C128.491 114.324 128.523 114.428 128.533 114.535C128.562 114.618 128.58 114.692 128.586 114.756C128.614 114.818 128.631 114.892 128.639 114.977L128.673 115.329C128.676 115.588 128.702 115.973 128.75 116.485C128.759 116.807 128.792 117.375 128.847 118.188C128.903 119.001 128.931 119.526 128.932 119.763C129.181 123.293 129.375 125.676 129.514 126.912C130.51 127.421 131.214 128.14 131.625 129.07C131.929 129.773 132.096 130.63 132.128 131.639L132.12 132.577C132.107 132.901 132.109 133.148 132.126 133.319C132.178 133.874 132.031 134.362 131.683 134.783C131.335 135.203 130.884 135.44 130.329 135.493C129.774 135.545 129.286 135.398 128.866 135.05C128.445 134.702 128.208 134.251 128.155 133.696ZM124.59 126.766C124.739 126.752 124.94 126.711 125.192 126.644L125.448 126.62C125.312 125.19 125.146 122.987 124.95 120.012L124.782 117.217C124.357 117.279 123.867 117.337 123.312 117.389C122.545 117.484 121.652 117.601 120.631 117.741C120.597 120.781 120.028 123.968 118.923 127.304L124.59 126.766ZM142.273 128.576C140.866 129.183 139.348 129.306 137.72 128.944C136.377 128.64 135.248 128.091 134.333 127.294C133.415 126.477 132.767 125.548 132.388 124.507C132.029 123.443 131.829 122.363 131.79 121.269C131.772 120.172 131.897 119.105 132.164 118.067C132.473 117.004 132.928 116.013 133.53 115.094C134.153 114.174 134.912 113.434 135.807 112.875C136.761 112.268 137.852 111.96 139.079 111.951C140.305 111.942 141.532 112.267 142.757 112.926C143.393 113.275 143.997 113.842 144.566 114.628L145.085 115.322C145.235 115.544 145.37 115.715 145.489 115.833C145.828 116.231 145.97 116.702 145.913 117.246C145.877 117.766 145.66 118.207 145.264 118.568C144.888 118.926 144.43 119.088 143.888 119.054C143.345 118.998 142.892 118.771 142.532 118.375C142.339 118.156 142.13 117.885 141.905 117.562L141.457 116.926C141.211 116.605 141.02 116.408 140.884 116.334C139.725 115.691 138.708 115.647 137.835 116.204C136.94 116.763 136.301 117.739 135.916 119.132C135.497 120.615 135.525 121.926 135.999 123.066C136.495 124.203 137.337 124.909 138.526 125.184C139.36 125.342 140.097 125.283 140.738 125.006C140.864 124.973 141.043 124.816 141.275 124.535L141.768 123.939C142.04 123.634 142.264 123.386 142.44 123.197C142.858 122.834 143.326 122.661 143.845 122.676C144.382 122.668 144.831 122.862 145.192 123.259C145.574 123.653 145.759 124.12 145.745 124.66C145.732 125.2 145.538 125.649 145.162 126.008C145.042 126.105 144.896 126.259 144.722 126.47L144.2 127.101C143.578 127.806 142.935 128.298 142.273 128.576ZM161.414 126.403C159.039 124.302 157.043 122.338 155.427 120.51L153.351 122.807C153.524 123.717 153.718 124.625 153.933 125.53C154.05 126.079 153.969 126.593 153.692 127.072C153.412 127.529 152.998 127.816 152.449 127.933C151.902 128.071 151.389 128.001 150.911 127.723C150.453 127.444 150.156 127.03 150.017 126.484C149.123 122.735 148.536 118.257 148.257 113.05C148.226 112.493 148.396 112.014 148.767 111.612C149.136 111.19 149.6 110.973 150.159 110.963C150.716 110.932 151.195 111.102 151.597 111.473C152.019 111.842 152.236 112.306 152.246 112.865C152.346 114.6 152.465 116.193 152.603 117.645L159.006 110.575C159.397 110.151 159.861 109.934 160.399 109.926C160.956 109.895 161.436 110.076 161.839 110.468C162.262 110.837 162.478 111.301 162.488 111.86C162.518 112.396 162.347 112.864 161.976 113.266L158.146 117.506C159.722 119.359 161.729 121.333 164.168 123.428C164.571 123.82 164.778 124.296 164.788 124.855C164.818 125.391 164.637 125.871 164.247 126.295C163.875 126.697 163.41 126.903 162.851 126.913C162.316 126.942 161.837 126.772 161.414 126.403ZM174.079 125.653C173.023 126.097 172.015 126.258 171.056 126.133C170.094 125.988 169.212 125.652 168.408 125.125C167.625 124.596 166.962 123.959 166.417 123.214C165.892 122.446 165.537 121.65 165.351 120.828C164.987 119.269 164.925 117.702 165.163 116.129C165.421 114.532 165.977 113.133 166.832 111.932C167.778 110.55 169.013 109.614 170.539 109.125C172.063 108.614 173.842 108.639 175.877 109.2C176.563 109.393 177.31 109.774 178.118 110.344C178.213 110.442 178.353 110.558 178.538 110.691L179.093 111.091C179.255 111.205 179.415 111.308 179.575 111.401C180.032 111.68 180.319 112.095 180.436 112.643C180.572 113.169 180.5 113.66 180.221 114.118C179.995 114.462 179.685 114.718 179.292 114.884L179.327 114.913C179.534 115.281 179.678 115.774 179.758 116.391C179.804 116.645 179.827 116.89 179.828 117.127C179.848 117.341 179.86 117.469 179.864 117.511C179.868 117.554 179.886 117.628 179.918 117.732C180.13 118.38 180.362 119.122 180.614 119.96C180.681 120.212 180.728 120.369 180.755 120.431C180.804 120.491 180.864 120.55 180.934 120.608L182.438 121.822C182.882 122.189 183.12 122.651 183.151 123.208C183.202 123.742 183.043 124.22 182.674 124.643C182.326 125.063 181.884 125.288 181.349 125.318C180.815 125.368 180.338 125.22 179.917 124.872L178.448 123.687C177.934 123.262 177.562 122.867 177.334 122.501L177.292 122.408C177.275 122.452 177.201 122.578 177.07 122.784L176.76 123.266L176.358 123.789C176.205 123.997 176.05 124.184 175.894 124.35L175.357 124.821C175.158 124.99 174.947 125.15 174.724 125.301C174.521 125.428 174.306 125.545 174.079 125.653ZM172.446 122.06C172.529 122.031 172.612 121.991 172.693 121.94C172.772 121.868 172.842 121.807 172.902 121.758C172.96 121.688 173.036 121.584 173.131 121.446C173.225 121.308 173.311 121.192 173.388 121.098C173.466 121.005 173.59 120.842 173.762 120.611L174.127 120.027C174.26 119.842 174.425 119.428 174.622 118.784C174.638 118.718 174.641 118.643 174.633 118.557C174.646 118.47 174.643 118.319 174.623 118.106C174.622 117.869 174.629 117.61 174.646 117.328C174.655 115.841 175.159 114.792 176.156 114.181C176.237 114.13 176.32 114.09 176.403 114.06L175.842 113.597C175.381 113.274 175.006 113.073 174.719 112.993C172.633 112.351 171.089 112.756 170.085 114.208C169.569 114.903 169.232 115.775 169.073 116.824C168.913 117.851 168.958 118.902 169.211 119.977C169.393 120.756 169.838 121.36 170.546 121.788C171.255 122.216 171.888 122.307 172.446 122.06ZM190.916 124.668C189.528 124.799 188.299 124.668 187.228 124.275C186.155 123.86 185.317 123.315 184.714 122.64C184.112 121.965 183.78 121.307 183.719 120.667C183.667 120.112 183.783 119.638 184.069 119.244C184.353 118.83 184.751 118.598 185.263 118.549C185.796 118.499 186.314 118.73 186.815 119.242C187.269 119.716 187.648 120.078 187.952 120.329C188.256 120.58 188.652 120.79 189.142 120.959C189.632 121.128 190.208 121.181 190.87 121.118C191.617 121.047 192.216 120.786 192.669 120.334C193.143 119.88 193.355 119.396 193.307 118.884C193.252 118.308 192.94 117.863 192.372 117.551C191.824 117.216 191.133 117.087 190.301 117.166C189.639 117.229 189.09 117.12 188.654 116.838C188.237 116.533 188.006 116.135 187.959 115.644C187.911 115.132 188.053 114.709 188.388 114.376C188.72 114.021 189.153 113.819 189.687 113.768C190.52 113.689 191.165 113.455 191.623 113.067C192.08 112.658 192.283 112.186 192.232 111.653C192.19 111.204 191.953 110.871 191.524 110.654C191.092 110.415 190.513 110.33 189.787 110.399C188.912 110.482 188.206 110.764 187.671 111.246C187.133 111.706 186.822 112.285 186.737 112.982C186.677 113.483 186.521 113.886 186.27 114.189C186.019 114.493 185.68 114.665 185.253 114.706C184.762 114.753 184.363 114.629 184.055 114.335C183.745 114.02 183.567 113.617 183.52 113.126C183.429 112.165 183.622 111.253 184.1 110.389C184.578 109.526 185.286 108.812 186.223 108.249C187.18 107.663 188.288 107.31 189.547 107.191C190.529 107.098 191.499 107.221 192.457 107.561C193.435 107.877 194.247 108.371 194.892 109.042C195.558 109.711 195.934 110.493 196.019 111.39C196.092 112.158 195.937 112.905 195.554 113.631C195.192 114.354 194.636 114.967 193.887 115.469L193.799 114.541C195.82 115.189 196.917 116.42 197.089 118.234C197.185 119.237 196.997 120.213 196.527 121.163C196.055 122.091 195.334 122.881 194.362 123.533C193.388 124.164 192.239 124.542 190.916 124.668ZM212.223 121.578C209.848 119.478 207.852 117.514 206.236 115.686L204.16 117.983C204.333 118.892 204.526 119.8 204.742 120.706C204.858 121.255 204.778 121.768 204.5 122.247C204.221 122.704 203.806 122.991 203.258 123.108C202.711 123.246 202.198 123.176 201.719 122.899C201.262 122.619 200.964 122.206 200.826 121.659C199.932 117.91 199.345 113.432 199.066 108.225C199.035 107.668 199.205 107.189 199.576 106.788C199.945 106.365 200.409 106.149 200.968 106.139C201.525 106.107 202.004 106.277 202.405 106.648C202.828 107.017 203.044 107.481 203.054 108.04C203.155 109.775 203.274 111.369 203.411 112.82L209.815 105.751C210.206 105.326 210.67 105.11 211.207 105.102C211.764 105.07 212.245 105.251 212.648 105.643C213.071 106.012 213.287 106.477 213.297 107.036C213.326 107.571 213.155 108.04 212.784 108.441L208.955 112.681C210.531 114.535 212.538 116.509 214.977 118.603C215.38 118.996 215.587 119.471 215.597 120.03C215.626 120.566 215.446 121.046 215.055 121.471C214.684 121.872 214.219 122.078 213.66 122.088C213.125 122.117 212.645 121.947 212.223 121.578ZM221.096 127.585C220.702 127.967 220.225 128.163 219.666 128.173C219.128 128.181 218.658 127.989 218.254 127.596C217.872 127.202 217.676 126.725 217.666 126.166C217.658 125.628 217.85 125.158 218.243 124.754C218.637 124.372 219.073 123.965 219.548 123.532C220.045 123.097 220.441 122.726 220.735 122.418C221.05 122.108 221.331 121.78 221.578 121.433L221.575 121.401C218.88 116.833 216.647 112.145 214.877 107.338C214.677 106.818 214.693 106.311 214.926 105.815C215.157 105.297 215.533 104.949 216.055 104.771C216.574 104.571 217.082 104.587 217.578 104.82C218.095 105.051 218.443 105.427 218.622 105.948C219.919 109.401 221.446 112.788 223.205 116.11C224.336 112.147 225.032 108.592 225.293 105.444C225.328 104.902 225.554 104.45 225.972 104.087C226.412 103.723 226.903 103.568 227.447 103.624C227.988 103.659 228.442 103.896 228.806 104.335C229.169 104.753 229.323 105.234 229.266 105.778C228.95 109.706 227.97 114.354 226.326 119.722C226.292 119.812 226.227 120.033 226.131 120.387L225.844 121.448C225.766 121.757 225.639 122.124 225.464 122.55C225.289 122.976 225.098 123.349 224.892 123.671C224.57 124.132 224.163 124.612 223.672 125.111C223.202 125.608 222.69 126.109 222.135 126.614C221.58 127.119 221.233 127.442 221.096 127.585Z" fill="#434343"/>
<mask id="mask0" mask-type="alpha" maskUnits="userSpaceOnUse" x="69" y="231" width="62" height="62">
<rect x="69" y="231" width="62" height="62" rx="20" fill="#434343"/>
</mask>
<g mask="url(#mask0)">
<rect x="69" y="231" width="62" height="62" rx="20" fill="#6C6C6C"/>
<rect x="69" y="273" width="62" height="20" rx="10" fill="#434343"/>
</g>
<mask id="mask1" mask-type="alpha" maskUnits="userSpaceOnUse" x="171" y="231" width="62" height="62">
<rect x="171" y="231" width="62" height="62" rx="20" fill="#434343"/>
</mask>
<g mask="url(#mask1)">
<rect x="171" y="231" width="62" height="62" rx="20" fill="#6C6C6C"/>
<rect x="171" y="273" width="62" height="20" rx="10" fill="#434343"/>
</g>
<mask id="mask2" mask-type="alpha" maskUnits="userSpaceOnUse" x="69" y="313" width="164" height="62">
<rect x="69" y="313" width="164" height="62" rx="20" fill="#434343"/>
</mask>
<g mask="url(#mask2)">
<rect x="69" y="313" width="164" height="62" rx="20" fill="#6C6C6C"/>
<rect x="69" y="355" width="164" height="20" rx="10" fill="#434343"/>
</g>
</svg>
