<svg width="367" height="204" viewBox="0 0 367 204" fill="none" xmlns="http://www.w3.org/2000/svg">
<path d="M343.655 70.4668C364.346 118.326 366.095 187.782 270.577 173.97C175.06 160.159 78.4755 185.954 34.3386 155.865C-9.79827 125.777 7.60506 49.7528 97.2179 35.5013C186.831 21.2497 322.964 22.6077 343.655 70.4668Z" fill="#FADE7E"/>
<path d="M92.8043 74.2551C92.7836 73.4403 92.7631 72.3575 92.7429 71.0067C92.7227 69.6559 92.7128 68.7661 92.7132 68.3373C92.6725 65.893 92.5672 63.856 92.3971 62.2263C92.3759 61.9261 92.4084 61.6474 92.4944 61.3902C92.473 61.283 92.4624 61.1758 92.4625 61.0686C92.4416 60.5111 92.6242 60.0395 93.0105 59.654C93.3968 59.2469 93.8687 59.0437 94.4262 59.0442C94.4905 59.0442 95.0909 59.0233 96.2273 58.9815C97.3637 58.9396 98.35 58.9084 99.1862 58.8877C100.43 58.8674 101.448 58.8683 102.242 58.8905C102.735 58.8909 103.142 58.9127 103.464 58.9559C103.978 58.9992 104.385 59.0747 104.686 59.1821C105.886 59.6764 106.796 60.76 107.416 62.4329C107.545 62.7332 107.619 63.1621 107.64 63.7196C107.661 64.0841 107.672 64.5558 107.671 65.1347C107.67 66.0352 107.648 67.2359 107.604 68.7367C107.581 69.4442 107.549 70.1946 107.505 70.9879C107.461 71.7812 107.418 72.4673 107.375 73.0461C107.353 73.625 107.341 74.0217 107.341 74.2361C107.341 74.7721 107.137 75.2436 106.729 75.6506C106.343 76.0362 105.871 76.218 105.313 76.1961C104.777 76.1956 104.306 76.0022 103.899 75.6159C103.513 75.2082 103.331 74.7256 103.353 74.1681C103.353 73.9752 103.365 73.5785 103.387 72.9782C103.409 72.3779 103.441 71.6703 103.485 70.8556C103.529 70.0409 103.561 69.2798 103.584 68.5723C103.628 67.1143 103.65 65.9672 103.651 65.1311L103.652 63.9411C103.631 63.8553 103.62 63.7802 103.62 63.7159C103.47 63.3513 103.331 63.0939 103.203 62.9437L103.106 62.9436C102.87 62.9219 102.549 62.9002 102.141 62.8784C101.412 62.8777 100.448 62.8876 99.2469 62.9079C98.475 62.9287 97.553 62.9493 96.4809 62.9697C96.6082 64.4707 96.6924 66.2397 96.7334 68.2766C96.733 68.7269 96.7322 69.6167 96.731 70.946C96.7512 72.2753 96.7717 73.3367 96.7924 74.13C96.8134 74.6875 96.6307 75.1698 96.2444 75.5768C95.8795 75.9838 95.4183 76.1871 94.8609 76.1866C94.3034 76.2075 93.8211 76.0356 93.4141 75.6707C93.0071 75.2844 92.8038 74.8125 92.8043 74.2551ZM114.605 75.2397C113.254 74.488 112.237 73.3936 111.552 71.9564C110.867 70.5193 110.526 68.9967 110.527 67.3886C110.529 65.802 110.862 64.2907 111.528 62.8547C112.216 61.4188 113.235 60.3155 114.587 59.5449C115.23 59.181 116.056 58.9673 117.064 58.9039C117.386 58.5826 117.772 58.39 118.222 58.3261C118.694 58.2622 119.133 58.359 119.54 58.6167C120.055 58.9602 120.815 59.4112 121.823 59.9695C122.68 60.4635 123.312 60.8714 123.719 61.1934C124.362 61.7729 124.843 62.4594 125.164 63.253C125.507 64.0467 125.774 65.0761 125.966 66.3413C126.179 67.8423 126.049 69.3216 125.576 70.7792C125.103 72.2367 124.34 73.4475 123.289 74.4114C122.152 75.4609 120.832 76.0708 119.331 76.241C117.83 76.4111 116.255 76.0774 114.605 75.2397ZM116.505 71.768C118.091 72.6485 119.453 72.564 120.59 71.5144C121.148 71.0003 121.567 70.336 121.846 69.5215C122.126 68.6856 122.191 67.8065 122.041 66.8845C121.828 65.4048 121.518 64.504 121.111 64.182C120.918 64.0103 120.522 63.7527 119.922 63.4091L118.765 62.7648C118.593 62.7861 118.389 62.7966 118.154 62.7964L117.8 62.7961C117.585 62.7959 117.425 62.8065 117.317 62.8278C116.931 62.8489 116.674 62.8916 116.545 62.9558C115.923 63.3197 115.419 63.8982 115.032 64.6911C114.667 65.4841 114.484 66.3952 114.483 67.4243C114.482 68.4321 114.664 69.3327 115.027 70.1264C115.391 70.8986 115.884 71.4458 116.505 71.768ZM134.636 76.5765C133.242 76.5752 132.031 76.3275 131.002 75.8335C129.974 75.3179 129.192 74.6954 128.656 73.966C128.121 73.2365 127.853 72.5501 127.854 71.9069C127.855 71.3494 128.016 70.8886 128.338 70.5244C128.66 70.1388 129.078 69.9462 129.593 69.9466C130.129 69.9471 130.621 70.2263 131.071 70.7842C131.478 71.2991 131.821 71.6961 132.099 71.9751C132.378 72.2541 132.753 72.501 133.224 72.7158C133.696 72.9307 134.264 73.0384 134.929 73.039C135.679 73.0397 136.301 72.8365 136.794 72.4296C137.309 72.0227 137.567 71.5619 137.568 71.0474C137.568 70.4685 137.301 69.9965 136.765 69.6315C136.251 69.2451 135.575 69.0515 134.739 69.0508C134.075 69.0502 133.539 68.8889 133.132 68.5669C132.746 68.2235 132.553 67.8052 132.554 67.3121C132.554 66.7975 132.737 66.3903 133.102 66.0905C133.466 65.7692 133.917 65.6088 134.453 65.6093C135.289 65.61 135.954 65.4391 136.447 65.0965C136.941 64.7324 137.188 64.2824 137.188 63.7464C137.189 63.2961 136.985 62.9422 136.578 62.6845C136.171 62.4054 135.603 62.2655 134.874 62.2649C133.995 62.2641 133.266 62.4778 132.686 62.9061C132.107 63.3129 131.742 63.8594 131.591 64.5453C131.484 65.0384 131.291 65.4241 131.012 65.7026C130.733 65.9811 130.379 66.1201 129.95 66.1198C129.457 66.1193 129.071 65.9581 128.792 65.6363C128.514 65.293 128.375 64.8747 128.375 64.3816C128.376 63.4168 128.656 62.5272 129.214 61.713C129.772 60.8987 130.545 60.2562 131.531 59.7854C132.54 59.2932 133.676 59.0476 134.941 59.0488C135.928 59.0497 136.881 59.2649 137.803 59.6946C138.746 60.1028 139.507 60.6717 140.085 61.4012C140.685 62.1308 140.984 62.9458 140.983 63.8463C140.983 64.6182 140.757 65.347 140.306 66.0327C139.876 66.7184 139.265 67.2753 138.471 67.7034L138.472 66.7707C140.422 67.6087 141.397 68.9389 141.395 70.7614C141.394 71.7691 141.115 72.723 140.556 73.623C139.998 74.5016 139.204 75.2191 138.174 75.7756C137.145 76.3107 135.965 76.5777 134.636 76.5765ZM157.294 79.6524C157.295 79.3522 157.316 78.977 157.36 78.5268L157.392 78.173C157.414 77.9586 157.425 77.7871 157.425 77.6585C157.468 77.1868 157.458 76.8545 157.394 76.6614C157.351 76.5113 157.201 76.3932 156.944 76.3073C156.794 76.2642 156.526 76.2533 156.14 76.2744C156.075 76.2957 156 76.3064 155.914 76.3063C155.829 76.3062 155.732 76.3062 155.625 76.3061C155.539 76.3274 155.464 76.3488 155.4 76.3702C155.014 76.3913 154.681 76.4017 154.403 76.4014L146.395 76.3942L146.328 78.356C146.328 78.892 146.124 79.3528 145.716 79.7383C145.308 80.1239 144.826 80.3057 144.268 80.2838C143.732 80.2833 143.272 80.0792 142.886 79.6714C142.5 79.2637 142.319 78.7811 142.341 78.2237L142.44 74.5252C142.441 74.0964 142.57 73.7106 142.827 73.3678C143.15 72.832 143.632 72.5108 144.276 72.4042C146.23 68.4823 147.295 64.6561 147.47 60.9255C147.492 60.3895 147.707 59.9394 148.114 59.5753C148.522 59.1897 149.005 59.0079 149.562 59.0299C149.691 59.03 149.83 59.0516 149.98 59.0946C150.002 59.0946 150.248 59.0841 150.72 59.0631C151.192 59.0421 151.717 59.0211 152.296 59.0002C152.875 58.9793 153.422 58.9691 153.936 58.9695C154.965 58.9276 155.78 58.9069 156.38 58.9074C156.745 58.9077 157.034 58.9187 157.249 58.9404L157.635 58.9407C157.72 58.9622 157.806 58.973 157.892 58.9731C158.149 59.0377 158.385 59.1344 158.599 59.2632C158.792 59.392 158.953 59.5423 159.081 59.7139C159.231 59.8856 159.328 60.025 159.37 60.1323L159.435 60.2931C159.477 60.4004 159.499 60.5076 159.499 60.6148C159.52 60.7006 159.531 60.7756 159.531 60.84C159.552 60.9043 159.563 60.9794 159.563 61.0651L159.562 61.4189C159.541 61.6762 159.529 62.0621 159.529 62.5767C159.507 62.8983 159.485 63.4664 159.463 64.2812C159.441 65.0959 159.419 65.6212 159.397 65.857C159.308 69.3947 159.274 71.7853 159.294 73.0289C160.237 73.6301 160.869 74.4133 161.19 75.3784C161.425 76.1076 161.51 76.9761 161.445 77.9837L161.347 78.9163C161.304 79.2379 161.283 79.4844 161.282 79.656C161.282 80.2134 161.088 80.685 160.702 81.0705C160.316 81.4561 159.844 81.6487 159.287 81.6482C158.729 81.6477 158.258 81.4543 157.872 81.068C157.486 80.6817 157.294 80.2098 157.294 79.6524ZM154.406 72.4134C154.556 72.4136 154.76 72.3923 155.018 72.3496L155.275 72.3499C155.276 70.9133 155.321 68.705 155.409 65.7248L155.508 62.9268C155.08 62.9479 154.586 62.9581 154.029 62.9576C153.257 62.9784 152.357 63.0097 151.327 63.0517C151.003 66.0745 150.132 69.1934 148.714 72.4083L154.406 72.4134ZM164.23 80.2697C164.147 77.5895 164.012 73.2047 163.824 67.1153C163.46 66.7505 163.257 66.3108 163.214 65.7962C163.193 65.2816 163.344 64.8207 163.666 64.4136L163.762 64.2851L163.701 61.294C163.68 60.7365 163.852 60.2543 164.217 59.8472C164.603 59.4402 165.075 59.2369 165.632 59.2374C166.426 59.2167 167.026 59.571 167.432 60.3004C169.728 58.6515 171.937 58.1925 174.059 58.9235C175.216 59.3104 176.191 59.976 176.984 60.9201C177.776 61.8857 178.386 62.969 178.814 64.1701C179.755 66.5938 179.86 68.8344 179.13 70.8921C178.764 72.1353 178.12 73.2282 177.197 74.1708C176.296 75.092 175.159 75.7234 173.786 76.0652C172.135 76.4497 170.602 76.3304 169.187 75.7073C168.844 75.5569 168.469 75.3529 168.062 75.0952C168.125 76.9177 168.177 78.6009 168.218 80.1447C168.239 80.7022 168.057 81.1737 167.67 81.5593C167.306 81.9663 166.844 82.1803 166.287 82.2013C165.729 82.2222 165.247 82.0395 164.84 81.6532C164.455 81.2884 164.251 80.8272 164.23 80.2697ZM172.825 72.1407C174.004 71.863 174.798 71.2419 175.206 70.2775C175.658 68.7556 175.595 67.1582 175.018 65.4853C174.483 63.9625 173.734 63.0398 172.769 62.7173C171.697 62.3519 170.367 62.9081 168.78 64.3861C168.501 64.6431 168.179 65.0288 167.814 65.543L167.938 69.7885L168.935 70.6899C169.342 71.0762 169.674 71.3659 169.931 71.5591C170.188 71.7309 170.477 71.892 170.799 72.0424C171.377 72.3002 172.053 72.3329 172.825 72.1407ZM189.957 76.0156C188.863 76.3577 187.844 76.421 186.901 76.2058C185.958 75.9691 185.112 75.5502 184.362 74.9492C183.633 74.3482 183.034 73.6508 182.563 72.8571C182.113 72.0419 181.835 71.2162 181.729 70.3799C181.516 68.7931 181.603 67.2279 181.99 65.6845C182.399 64.1197 183.086 62.7803 184.052 61.6662C185.125 60.3808 186.445 59.5672 188.01 59.2256C189.576 58.8625 191.344 59.0571 193.316 59.8093C193.981 60.0672 194.688 60.5181 195.438 61.162C195.523 61.2693 195.652 61.398 195.823 61.5483L196.337 61.999C196.487 62.1278 196.637 62.2458 196.787 62.3532C197.216 62.6752 197.462 63.115 197.526 63.6725C197.611 64.2086 197.493 64.6909 197.171 65.1194C196.913 65.4408 196.581 65.6656 196.173 65.7939L196.205 65.8261C196.377 66.2122 196.473 66.7161 196.493 67.3379C196.515 67.5952 196.514 67.8418 196.493 68.0776C196.493 68.2921 196.492 68.4207 196.492 68.4636C196.492 68.5065 196.503 68.5815 196.524 68.6887C196.674 69.3535 196.834 70.1148 197.005 70.9726C197.047 71.23 197.079 71.3908 197.101 71.4551C197.144 71.5195 197.197 71.5839 197.261 71.6483L198.643 73.0003C199.05 73.408 199.243 73.8906 199.221 74.4481C199.22 74.9841 199.016 75.4449 198.608 75.8305C198.222 76.2161 197.761 76.3979 197.225 76.376C196.689 76.3755 196.228 76.1821 195.843 75.7958L194.493 74.476C194.022 74.0038 193.69 73.5747 193.497 73.1886L193.465 73.0921C193.444 73.1349 193.358 73.2528 193.207 73.4456L192.853 73.8956L192.403 74.3776C192.231 74.5704 192.059 74.7418 191.888 74.8917L191.308 75.3093C191.094 75.4592 190.868 75.5983 190.632 75.7267C190.418 75.8338 190.193 75.93 189.957 76.0156ZM188.674 72.2837C188.76 72.2623 188.845 72.2303 188.931 72.1874C189.017 72.1232 189.092 72.0697 189.156 72.0268C189.221 71.9626 189.307 71.8662 189.414 71.7376C189.521 71.6091 189.618 71.502 189.704 71.4163C189.79 71.3306 189.929 71.1806 190.122 70.9664L190.541 70.42C190.691 70.2486 190.895 69.8522 191.153 69.2306C191.174 69.1663 191.185 69.0913 191.185 69.0055C191.207 68.9198 191.218 68.7697 191.218 68.5553C191.24 68.3195 191.272 68.0622 191.315 67.7835C191.466 66.3042 192.068 65.3078 193.119 64.7941C193.205 64.7513 193.29 64.7192 193.376 64.6979L192.862 64.1828C192.434 63.8179 192.08 63.5818 191.801 63.4743C189.787 62.6363 188.211 62.8921 187.073 64.2419C186.493 64.8846 186.075 65.7204 185.816 66.7493C185.558 67.7568 185.504 68.8074 185.653 69.901C185.759 70.6944 186.145 71.338 186.809 71.8317C187.473 72.3255 188.095 72.4761 188.674 72.2837ZM204.688 76.9616C204.152 77.0684 203.658 76.9607 203.209 76.6387C202.759 76.3381 202.48 75.9305 202.373 75.4158L202.309 75.0298C202.181 74.7724 202.128 74.5043 202.149 74.2256L202.149 74.1613C201.744 71.6738 201.405 67.6854 201.131 62.1963C201.067 62.0462 201.013 61.896 200.971 61.7459C200.928 61.4028 200.961 61.0812 201.068 60.7812C201.133 60.2881 201.337 59.8809 201.68 59.5596C202.024 59.2383 202.442 59.0671 202.935 59.0461C203.3 59.025 203.643 59.1004 203.964 59.2722C205.679 59.0165 207.159 58.8892 208.403 58.8903C209.818 58.913 211.018 59.1071 212.004 59.4725C213.526 60.0099 214.501 60.9542 214.928 62.3053C215.463 63.9353 215.172 65.393 214.056 66.6785L213.766 66.9355C214.538 67.4722 215.127 68.0838 215.533 68.7703C216.004 69.7356 216.132 70.6898 215.917 71.633C215.723 72.5763 215.208 73.4656 214.371 74.301C213.19 75.5006 211.335 76.1744 208.805 76.3221C208.033 76.3643 207.143 76.3635 206.135 76.3197L205.814 76.3194C205.513 76.6622 205.138 76.8763 204.688 76.9616ZM208.615 72.3983C210.116 72.3139 211.082 72.036 211.511 71.5647C211.94 71.1577 212.122 70.8684 212.058 70.6968C211.844 70.3107 211.276 69.9564 210.355 69.634C209.819 69.4405 208.94 69.4076 207.718 69.5351C207.16 69.5989 206.452 69.7055 205.595 69.8548C205.68 70.7339 205.775 71.5702 205.882 72.3636L206.332 72.364C207.233 72.4077 207.994 72.4192 208.615 72.3983ZM205.245 65.6413C207.024 65.4714 208.44 65.2047 209.491 64.8411C210.306 64.606 210.853 64.3278 211.132 64.0064C211.218 63.8993 211.228 63.7278 211.164 63.4919C211.164 63.3847 210.993 63.2773 210.65 63.1698C210.114 62.9549 209.353 62.847 208.367 62.8461C207.445 62.8453 206.362 62.9301 205.118 63.1005C205.182 64.1726 205.224 65.0195 205.245 65.6413ZM219.898 76.3965C219.555 76.825 219.104 77.0712 218.547 77.135C217.989 77.1988 217.496 77.059 217.067 76.7156C216.639 76.3721 216.393 75.9216 216.329 75.3641C216.265 74.8066 216.405 74.3136 216.748 73.8851L217.907 72.5675C218.315 72.1391 218.637 71.7856 218.873 71.5071C219.109 71.2285 219.313 70.9178 219.485 70.5749C219.786 69.9534 219.926 68.6135 219.907 66.5551C219.908 65.8047 219.876 64.8398 219.813 63.6605C219.771 62.4598 219.75 61.7308 219.751 61.4735C219.751 61.3234 219.762 61.1841 219.783 61.0554C219.827 60.5623 220.02 60.1444 220.363 59.8017C220.728 59.4375 221.168 59.2449 221.682 59.224C222.261 59.1816 222.862 59.15 223.484 59.1291C224.127 59.0868 224.545 59.0657 224.738 59.0659C224.931 59.0447 225.156 59.0341 225.413 59.0344C225.692 59.0132 225.939 59.0027 226.153 59.0029L226.989 59.0036C227.289 59.0039 227.772 59.0151 228.436 59.0371C229.123 59.0377 229.852 59.0384 230.623 59.0391C230.795 59.0393 230.967 59.0608 231.138 59.1039L231.17 59.1039C231.728 59.1473 232.178 59.3836 232.52 59.8127C232.884 60.2418 233.045 60.7244 233.001 61.2604C232.568 66.6202 232.349 70.9618 232.346 74.2852C232.346 74.8426 232.152 75.3142 231.766 75.6997C231.38 76.0853 230.908 76.2779 230.351 76.2774C229.793 76.2769 229.322 76.0835 228.936 75.6972C228.55 75.3109 228.358 74.839 228.358 74.2816C228.361 71.0011 228.526 67.2491 228.851 63.0255C226.685 63.0235 225.002 63.0542 223.802 63.1174C223.886 64.5969 223.928 65.7333 223.927 66.5266C223.925 69.2711 223.644 71.2005 223.086 72.3149C222.849 72.8078 222.517 73.3328 222.087 73.8899C221.679 74.4256 221.229 74.9505 220.735 75.4646C220.263 75.9788 219.984 76.2894 219.898 76.3965ZM239.442 75.1921C239.206 75.6851 238.831 76.0278 238.316 76.2203C237.801 76.4128 237.286 76.4016 236.772 76.1867C236.279 75.9504 235.936 75.5749 235.744 75.0601C235.551 74.5454 235.563 74.0308 235.778 73.5164C236.142 73.1522 236.54 72.4558 236.969 71.427C237.313 70.5268 237.603 69.9053 237.839 69.5624L237.904 69.466C236.961 68.7362 236.351 67.7922 236.073 66.6341C235.86 65.712 235.914 64.7901 236.237 63.8684C236.559 62.9253 237.01 62.1217 237.589 61.4575C239.006 59.8722 241.162 59.1023 244.056 59.1478C244.678 59.1698 245.321 59.224 245.986 59.3103C246.65 59.3753 247.401 59.4831 248.237 59.634C249.073 59.7634 249.523 59.8281 249.587 59.8282C250.295 59.936 250.798 60.3117 251.098 60.9552C251.333 61.2985 251.44 61.6738 251.418 62.0811C251.418 62.9817 251.319 65.1685 251.123 68.6418C250.97 71.3432 250.904 73.2192 250.925 74.2699C250.946 74.8273 250.763 75.3096 250.377 75.7166C249.991 76.1022 249.519 76.2948 248.961 76.2943C248.404 76.3152 247.921 76.1325 247.514 75.7462C247.129 75.3599 246.936 74.888 246.937 74.3306C246.916 73.623 246.938 72.5617 247.004 71.1466C245.374 71.1666 244.206 71.1548 243.498 71.1113C243.069 71.3039 242.587 71.4964 242.051 71.6889C241.536 71.8814 241.236 71.9883 241.15 72.0097L241.021 72.0739L239.442 75.1921ZM247.201 67.1267C247.288 65.6259 247.353 64.436 247.397 63.5569C245.96 63.3198 244.824 63.1901 243.988 63.1679C242.316 63.1235 241.19 63.4334 240.61 64.0975C240.353 64.376 240.17 64.676 240.063 64.9975C239.977 65.2976 239.955 65.5442 239.998 65.7372C240.126 66.3376 240.919 66.7565 242.377 66.9936C242.762 67.0369 243.191 67.0801 243.663 67.1234C244.156 67.1453 244.553 67.1564 244.853 67.1567C245.174 67.157 245.603 67.1574 246.139 67.1578C246.697 67.1369 247.051 67.1265 247.201 67.1267ZM268.134 76.2152C266.505 76.0636 265.069 75.4083 263.826 74.2494C262.605 73.1119 261.727 71.7604 261.193 70.1947C261.129 69.9588 261.065 69.7229 261.001 69.487L259.264 69.4854L259.645 74.1813C259.688 74.7174 259.537 75.1889 259.194 75.596C258.872 76.0031 258.443 76.2278 257.907 76.2702C257.392 76.3126 256.931 76.1728 256.524 75.8509C256.117 75.5074 255.892 75.0784 255.85 74.5638C255.659 72.3338 255.5 70.093 255.374 67.8416C255.352 67.7344 255.342 67.6165 255.342 67.4878L255.342 67.4557C255.194 65.4829 255.067 63.3495 254.962 61.0552C254.919 60.5191 255.081 60.069 255.445 59.7048C255.81 59.3192 256.25 59.1159 256.765 59.095C257.301 59.0526 257.762 59.2138 258.147 59.5786C258.554 59.9221 258.768 60.3618 258.789 60.8979C258.852 62.5703 258.936 64.1463 259.042 65.6258L260.747 65.6595C260.984 63.8373 261.747 62.3264 263.034 61.1268C263.592 60.6128 264.354 60.2275 265.319 59.9711C265.447 59.9283 265.608 59.8749 265.801 59.8107C266.038 59.425 266.359 59.1573 266.767 59.0076C267.196 58.8364 267.625 58.8261 268.053 58.9766L268.536 59.1057C268.664 59.1487 268.825 59.181 269.018 59.2026L269.468 59.2995C270.283 59.5146 270.958 59.7832 271.494 60.1053C273.015 61.0501 274.139 62.4234 274.867 64.2251C275.616 66.0053 275.914 67.7959 275.762 69.5968C275.589 71.6121 274.902 73.2303 273.7 74.4513C272.283 75.8866 270.428 76.4745 268.134 76.2152ZM268.556 72.4205C269.606 72.5287 270.411 72.3043 270.968 71.7473C271.526 71.1903 271.86 70.3652 271.968 69.2718C272.055 68.0926 271.852 66.9346 271.36 65.7978C270.889 64.661 270.257 63.8457 269.465 63.3518C269.293 63.223 268.993 63.1048 268.564 62.9972L268.436 62.9649L268.307 63.0291C268.007 63.1361 267.653 63.2537 267.245 63.382C267.224 63.3819 267.117 63.414 266.924 63.4781C266.731 63.5423 266.57 63.585 266.441 63.6064C266.012 63.7346 265.744 63.8523 265.637 63.9594C264.843 64.6877 264.456 65.6843 264.476 66.9494C264.562 67.1638 264.594 67.3997 264.572 67.657L264.572 67.9143C264.636 68.2574 264.711 68.5898 264.796 68.9115C265.16 69.9195 265.673 70.7455 266.338 71.3893C267.023 72.0117 267.763 72.3555 268.556 72.4205ZM278.809 55.8988C278.81 55.277 279.025 54.7519 279.454 54.3235C279.905 53.8737 280.441 53.649 281.063 53.6496C281.685 53.6501 282.21 53.8757 282.638 54.3264C283.088 54.7556 283.313 55.2811 283.312 55.9029L283.3 69.0248C283.3 69.6466 283.085 70.1824 282.655 70.6323C282.226 71.0607 281.701 71.2853 281.079 71.3062C280.457 71.3056 279.921 71.0908 279.471 70.6615C279.043 70.2323 278.818 69.7068 278.797 69.085L278.809 55.8988ZM282.621 73.2051C283.071 73.6344 283.295 74.1599 283.295 74.7817C283.294 75.4034 283.069 75.9285 282.618 76.3569C282.189 76.8068 281.663 77.0315 281.042 77.0309C280.42 77.0303 279.884 76.8047 279.434 76.3541C279.006 75.9249 278.792 75.3994 278.792 74.7776C278.793 74.1558 279.008 73.6307 279.437 73.2022C279.888 72.7524 280.424 72.5277 281.046 72.5283C281.667 72.5289 282.192 72.7545 282.621 73.2051ZM93.041 104.191C93.0405 104.727 92.8364 105.198 92.4286 105.606C92.0423 105.991 91.5705 106.173 91.013 106.151C90.477 106.15 90.0055 105.957 89.5984 105.571C89.2129 105.163 89.0311 104.68 89.053 104.123C89.0996 100.071 89.0922 96.4043 89.0308 93.1238C87.3156 93.1222 86.1792 93.1105 85.6218 93.0885C85.0857 93.088 84.6142 92.8947 84.2072 92.5083C83.8216 92.1006 83.6291 91.6287 83.6296 91.0927C83.6515 90.5353 83.8556 90.0638 84.2419 89.6782C84.6497 89.2712 85.1322 89.0786 85.6897 89.1006C91.8646 89.1491 95.5417 89.1738 96.721 89.1749C97.2785 89.154 97.75 89.3474 98.1356 89.7551C98.5426 90.1414 98.7459 90.6133 98.7453 91.1708C98.7663 91.7068 98.5729 92.1783 98.1652 92.5853C97.7789 92.9709 97.3177 93.1635 96.7817 93.163C96.4172 93.1841 95.1736 93.1937 93.0509 93.1918C93.0908 96.4937 93.0875 100.16 93.041 104.191ZM103.479 106.098C102.922 106.14 102.439 105.979 102.032 105.614C101.625 105.249 101.401 104.788 101.358 104.231C101.168 101.4 100.925 96.994 100.63 91.0117C100.588 90.4542 100.749 89.9719 101.114 89.5648C101.5 89.1578 101.972 88.9438 102.53 88.9229C103.087 88.8805 103.57 89.0525 103.977 89.4388C104.384 89.8037 104.598 90.2648 104.619 90.8223L104.84 94.6819C105.741 94.5112 106.47 94.3939 107.028 94.3301C108.872 94.0959 110.351 94.1616 111.466 94.5271C112.816 94.9786 113.909 95.6764 114.744 96.6206C115.601 97.5647 116.029 98.6586 116.028 99.9022C116.048 101.124 115.65 102.239 114.835 103.246C114.04 104.231 112.968 105.013 111.616 105.591C111.102 105.805 110.565 105.976 110.008 106.104C109.472 106.211 108.871 106.264 108.207 106.263C107.563 106.262 107.081 106.251 106.759 106.23C106.438 106.229 105.902 106.197 105.151 106.132C104.423 106.067 104.026 106.023 103.962 106.002C103.811 106.066 103.651 106.098 103.479 106.098ZM105.219 102.112C106.163 102.22 107.053 102.274 107.889 102.275C108.725 102.254 109.454 102.115 110.076 101.859C110.591 101.645 110.998 101.398 111.299 101.12C111.621 100.842 111.814 100.617 111.878 100.445C111.964 100.252 112.007 100.092 112.007 99.9629C112.008 99.8128 111.976 99.6627 111.911 99.5125C111.847 99.3624 111.665 99.1692 111.365 98.9331C111.065 98.697 110.669 98.4929 110.176 98.321C109.661 98.149 108.782 98.1482 107.539 98.3186C106.96 98.3824 106.123 98.521 105.03 98.7344L105.219 102.112ZM116.635 104.084C116.641 97.6729 116.698 93.3097 116.808 90.9942C116.83 90.4367 117.044 89.9759 117.452 89.6118C117.86 89.2263 118.342 89.0552 118.9 89.0986C119.457 89.1205 119.918 89.3353 120.282 89.743C120.668 90.1508 120.839 90.6333 120.795 91.1908C120.686 93.2061 120.629 97.505 120.623 104.087C120.622 104.645 120.429 105.116 120.043 105.502C119.657 105.887 119.185 106.08 118.627 106.08C118.07 106.079 117.598 105.886 117.213 105.499C116.827 105.113 116.634 104.641 116.635 104.084ZM138.943 106.58C137.549 106.579 136.338 106.331 135.309 105.837C134.281 105.322 133.499 104.699 132.963 103.97C132.428 103.24 132.161 102.554 132.161 101.911C132.162 101.353 132.323 100.893 132.645 100.528C132.967 100.143 133.385 99.9501 133.9 99.9506C134.436 99.951 134.929 100.23 135.378 100.788C135.785 101.303 136.128 101.7 136.406 101.979C136.685 102.258 137.06 102.505 137.531 102.72C138.003 102.935 138.571 103.042 139.236 103.043C139.986 103.044 140.608 102.84 141.102 102.434C141.616 102.027 141.874 101.566 141.875 101.051C141.875 100.472 141.608 100 141.072 99.6354C140.558 99.249 139.882 99.0555 139.046 99.0547C138.382 99.0541 137.846 98.8928 137.439 98.5708C137.053 98.2274 136.86 97.8091 136.861 97.316C136.861 96.8014 137.044 96.3942 137.409 96.0944C137.773 95.7731 138.224 95.6127 138.76 95.6132C139.596 95.6139 140.261 95.443 140.754 95.1004C141.248 94.7364 141.495 94.2863 141.495 93.7503C141.496 93.3 141.292 92.9461 140.885 92.6884C140.478 92.4093 139.91 92.2694 139.181 92.2688C138.302 92.268 137.573 92.4817 136.993 92.91C136.414 93.3169 136.049 93.8633 135.899 94.5493C135.791 95.0423 135.598 95.4281 135.319 95.7065C135.04 95.985 134.686 96.1241 134.257 96.1237C133.764 96.1232 133.378 95.9621 133.099 95.6402C132.821 95.2969 132.682 94.8787 132.683 94.3855C132.683 93.4207 132.963 92.5311 133.521 91.7169C134.079 90.9026 134.852 90.2601 135.839 89.7893C136.847 89.2971 137.983 89.0515 139.248 89.0527C140.235 89.0536 141.188 89.2689 142.11 89.6985C143.053 90.1067 143.814 90.6756 144.392 91.4051C144.992 92.1347 145.291 92.9497 145.29 93.8502C145.29 94.6221 145.064 95.3509 144.613 96.0366C144.183 96.7223 143.572 97.2792 142.778 97.7073L142.779 96.7746C144.729 97.6126 145.704 98.9428 145.702 100.765C145.701 101.773 145.422 102.727 144.863 103.627C144.305 104.505 143.511 105.223 142.481 105.78C141.452 106.315 140.272 106.582 138.943 106.58ZM156.041 105.985C154.947 106.327 153.928 106.39 152.985 106.175C152.042 105.938 151.196 105.519 150.446 104.918C149.717 104.317 149.118 103.62 148.647 102.826C148.197 102.011 147.919 101.185 147.813 100.349C147.6 98.7623 147.687 97.1972 148.074 95.6538C148.483 94.089 149.17 92.7495 150.136 91.6355C151.209 90.35 152.529 89.5364 154.094 89.1948C155.66 88.8317 157.428 89.0263 159.4 89.7785C160.065 90.0364 160.772 90.4873 161.522 91.1312C161.607 91.2385 161.736 91.3673 161.907 91.5175L162.421 91.9682C162.571 92.097 162.721 92.2151 162.871 92.3224C163.3 92.6444 163.546 93.0842 163.61 93.6417C163.695 94.1778 163.577 94.6601 163.255 95.0887C162.997 95.41 162.665 95.6349 162.257 95.7631L162.289 95.7953C162.461 96.1814 162.557 96.6854 162.577 97.3072C162.599 97.5645 162.598 97.8111 162.577 98.0469C162.577 98.2613 162.576 98.3899 162.576 98.4328C162.576 98.4757 162.587 98.5508 162.608 98.658C162.758 99.3228 162.918 100.084 163.089 100.942C163.131 101.199 163.163 101.36 163.185 101.424C163.228 101.489 163.281 101.553 163.345 101.618L164.727 102.97C165.134 103.377 165.327 103.86 165.305 104.417C165.304 104.953 165.1 105.414 164.692 105.8C164.306 106.185 163.845 106.367 163.309 106.345C162.773 106.345 162.312 106.151 161.927 105.765L160.577 104.445C160.106 103.973 159.774 103.544 159.581 103.158L159.549 103.061C159.528 103.104 159.442 103.222 159.291 103.415L158.937 103.865L158.487 104.347C158.315 104.54 158.143 104.711 157.971 104.861L157.392 105.279C157.178 105.428 156.952 105.568 156.716 105.696C156.502 105.803 156.277 105.899 156.041 105.985ZM154.758 102.253C154.843 102.232 154.929 102.199 155.015 102.157C155.101 102.092 155.176 102.039 155.24 101.996C155.305 101.932 155.391 101.835 155.498 101.707C155.605 101.578 155.702 101.471 155.788 101.386C155.874 101.3 156.013 101.15 156.206 100.936L156.625 100.389C156.775 100.218 156.979 99.8214 157.237 99.1999C157.258 99.1356 157.269 99.0605 157.269 98.9748C157.291 98.889 157.302 98.7389 157.302 98.5245C157.324 98.2887 157.356 98.0314 157.399 97.7527C157.55 96.2735 158.152 95.277 159.203 94.7634C159.289 94.7206 159.374 94.6885 159.46 94.6671L158.946 94.1521C158.518 93.7872 158.164 93.551 157.885 93.4436C155.871 92.6055 154.295 92.8614 153.157 94.2111C152.577 94.8538 152.159 95.6897 151.9 96.7186C151.642 97.7261 151.588 98.7766 151.737 99.8703C151.843 100.664 152.229 101.307 152.893 101.801C153.557 102.295 154.179 102.445 154.758 102.253ZM176.111 105.907C174.653 106.377 173.131 106.354 171.544 105.838C170.237 105.408 169.166 104.753 168.33 103.873C167.495 102.972 166.938 101.985 166.66 100.913C166.404 99.8192 166.309 98.7257 166.374 97.6322C166.461 96.5388 166.687 95.4884 167.052 94.481C167.46 93.4522 168.008 92.5093 168.695 91.6523C169.403 90.7953 170.229 90.1314 171.173 89.6606C172.181 89.1469 173.297 88.9442 174.519 89.0525C175.741 89.1608 176.93 89.6015 178.087 90.3744C178.687 90.7823 179.233 91.4046 179.726 92.2412L180.175 92.9814C180.304 93.2173 180.422 93.3997 180.529 93.5284C180.828 93.9575 180.925 94.44 180.817 94.9759C180.731 95.4904 180.473 95.9083 180.044 96.2295C179.636 96.5508 179.164 96.6683 178.628 96.582C178.092 96.4743 177.664 96.2059 177.343 95.7768C177.171 95.5408 176.989 95.2512 176.797 94.908L176.411 94.2322C176.197 93.889 176.026 93.6744 175.897 93.5885C174.805 92.8371 173.797 92.6968 172.875 93.1677C171.931 93.6385 171.201 94.5491 170.685 95.8994C170.126 97.3355 170.029 98.6433 170.392 99.8229C170.777 101.002 171.548 101.786 172.706 102.173C173.52 102.409 174.26 102.421 174.925 102.207C175.053 102.186 175.246 102.046 175.504 101.789L176.051 101.243C176.352 100.965 176.598 100.74 176.792 100.568C177.242 100.247 177.725 100.119 178.239 100.184C178.775 100.227 179.204 100.463 179.525 100.892C179.868 101.322 180.007 101.804 179.942 102.34C179.877 102.876 179.641 103.305 179.233 103.626C179.104 103.712 178.943 103.851 178.75 104.044L178.171 104.622C177.484 105.265 176.798 105.693 176.111 105.907ZM184.694 106.365C184.351 106.793 183.9 107.039 183.343 107.103C182.785 107.167 182.292 107.027 181.864 106.684C181.435 106.34 181.189 105.89 181.125 105.332C181.061 104.775 181.201 104.282 181.545 103.853L182.704 102.536C183.111 102.107 183.433 101.754 183.67 101.475C183.906 101.197 184.11 100.886 184.281 100.543C184.582 99.9215 184.723 98.5816 184.703 96.5232C184.704 95.7728 184.673 94.8079 184.609 93.6286C184.568 92.4279 184.547 91.6989 184.547 91.4416C184.547 91.2915 184.558 91.1521 184.58 91.0235C184.623 90.5304 184.816 90.1125 185.16 89.7697C185.524 89.4056 185.964 89.213 186.479 89.192C187.058 89.1497 187.658 89.1181 188.28 89.0972C188.923 89.0549 189.341 89.0338 189.534 89.034C189.727 89.0127 189.952 89.0022 190.21 89.0024C190.488 88.9813 190.735 88.9708 190.949 88.971L191.786 88.9717C192.086 88.972 192.568 88.9831 193.233 89.0052C193.919 89.0058 194.648 89.0065 195.42 89.0072C195.591 89.0073 195.763 89.0289 195.934 89.072L195.966 89.072C196.524 89.1154 196.974 89.3516 197.317 89.7808C197.681 90.2099 197.841 90.6925 197.798 91.2285C197.364 96.5883 197.146 100.93 197.143 104.253C197.142 104.811 196.949 105.282 196.562 105.668C196.176 106.053 195.704 106.246 195.147 106.245C194.589 106.245 194.118 106.052 193.732 105.665C193.347 105.279 193.154 104.807 193.155 104.25C193.158 100.969 193.322 97.2171 193.647 92.9936C191.482 92.9916 189.799 93.0222 188.598 93.0855C188.682 94.565 188.724 95.7014 188.723 96.4947C188.721 99.2391 188.44 101.169 187.882 102.283C187.646 102.776 187.313 103.301 186.883 103.858C186.476 104.394 186.025 104.919 185.531 105.433C185.059 105.947 184.78 106.257 184.694 106.365ZM204.103 112.396C203.674 112.739 203.181 112.889 202.624 112.845C202.088 112.802 201.638 112.566 201.273 112.137C200.931 111.707 200.781 111.214 200.825 110.657C200.868 110.121 201.104 109.671 201.533 109.307C201.962 108.964 202.435 108.6 202.949 108.214C203.486 107.829 203.915 107.497 204.237 107.219C204.58 106.94 204.891 106.64 205.17 106.319L205.17 106.287C202.923 101.482 201.148 96.6025 199.845 91.6484C199.695 91.1123 199.76 90.6085 200.039 90.137C200.318 89.6441 200.726 89.3336 201.262 89.2054C201.798 89.0558 202.302 89.1206 202.774 89.3998C203.266 89.679 203.577 90.0866 203.705 90.6228C204.667 94.1828 205.864 97.7002 207.298 101.175C208.802 97.3384 209.834 93.8659 210.395 90.7575C210.481 90.2215 210.749 89.793 211.2 89.4717C211.672 89.1506 212.176 89.0438 212.712 89.1515C213.248 89.2378 213.676 89.5169 213.997 89.9889C214.319 90.4394 214.425 90.9327 214.318 91.4686C213.628 95.3488 212.209 99.8822 210.06 105.069C210.017 105.155 209.931 105.369 209.802 105.712L209.415 106.741C209.308 107.041 209.147 107.395 208.932 107.802C208.717 108.209 208.492 108.562 208.255 108.862C207.891 109.291 207.44 109.73 206.904 110.18C206.389 110.63 205.831 111.079 205.23 111.529C204.629 111.979 204.254 112.268 204.103 112.396ZM218.852 105.527C218.509 105.956 218.059 106.191 217.501 106.234C216.965 106.297 216.483 106.158 216.054 105.814C215.647 105.471 215.422 105.02 215.38 104.463C215.316 103.905 215.467 103.423 215.832 103.016L220.822 97.1671L219.858 96.2978L219.151 95.6861L218.733 95.2998L217.865 94.4307L217.03 93.658L215.938 92.5314C215.552 92.1451 215.349 91.6839 215.328 91.1479C215.328 90.6119 215.522 90.1511 215.908 89.7655C216.294 89.3584 216.755 89.1552 217.291 89.1557C217.827 89.1347 218.299 89.3281 218.706 89.7358L220.056 91.0557L221.341 92.3433C221.619 92.6009 221.801 92.7618 221.887 92.8262C221.973 92.8906 222.273 93.1482 222.787 93.5989L224.265 94.9832L224.333 91.1239C224.333 90.5879 224.527 90.1271 224.913 89.7415C225.299 89.3559 225.771 89.1741 226.329 89.196C226.886 89.1965 227.347 89.4006 227.711 89.8083C228.097 90.1946 228.278 90.6558 228.257 91.1918C228.234 92.371 228.222 93.636 228.221 94.9868L233.018 89.974C233.361 89.5455 233.801 89.31 234.337 89.2676C234.873 89.2252 235.355 89.3865 235.784 89.7513C236.212 90.0948 236.448 90.5345 236.49 91.0706C236.532 91.6067 236.382 92.0782 236.038 92.4853L231.564 97.3054C233.663 99.3228 235.452 101.222 236.929 103.003C237.272 103.432 237.422 103.915 237.378 104.451C237.335 104.987 237.099 105.426 236.67 105.769C236.262 106.111 235.79 106.261 235.254 106.218C234.718 106.174 234.268 105.938 233.904 105.509C232.276 103.599 230.391 101.635 228.249 99.6181C228.269 101.076 228.3 102.62 228.341 104.249C228.362 104.807 228.19 105.289 227.825 105.696C227.46 106.082 226.999 106.274 226.442 106.274C225.884 106.295 225.402 106.123 224.995 105.758C224.609 105.393 224.417 104.932 224.417 104.374C224.355 102.595 224.313 100.858 224.293 99.1642L224.261 99.1642L218.852 105.527ZM240.311 105.965C239.626 105.492 239.337 104.849 239.445 104.034L239.445 103.841C239.213 99.3814 239.271 95.0719 239.618 90.9126C239.661 90.3552 239.887 89.9051 240.294 89.5625C240.723 89.1984 241.217 89.038 241.774 89.0814C242.331 89.1248 242.782 89.361 243.124 89.7902C243.488 90.1979 243.649 90.6804 243.605 91.2379C243.41 93.7463 243.311 96.1476 243.309 98.4418L244.79 96.5456C246.808 93.9102 248.333 91.7353 249.363 90.021C249.707 89.4638 250.19 89.1426 250.811 89.0574C251.047 88.9719 251.283 88.9292 251.519 88.9294C252.077 88.9085 252.559 89.0912 252.966 89.4775C253.373 89.8423 253.576 90.3035 253.576 90.861C253.617 92.2332 253.626 94.4524 253.602 97.5184C253.578 100.327 253.597 102.557 253.66 104.208C253.681 104.766 253.498 105.248 253.112 105.655C252.747 106.062 252.286 106.276 251.728 106.297C251.192 106.318 250.721 106.146 250.314 105.781C249.907 105.395 249.693 104.933 249.672 104.397C249.609 102.789 249.59 100.27 249.614 96.8394L247.972 98.9927C244.945 102.978 243.314 105.131 243.078 105.453C242.777 105.924 242.348 106.202 241.791 106.288C241.254 106.394 240.761 106.287 240.311 105.965ZM258.722 106.432C258.379 106.86 257.928 107.106 257.371 107.17C256.813 107.234 256.32 107.094 255.891 106.751C255.463 106.407 255.217 105.957 255.153 105.399C255.089 104.842 255.229 104.349 255.572 103.92L256.731 102.603C257.139 102.174 257.461 101.821 257.697 101.542C257.933 101.264 258.137 100.953 258.309 100.61C258.61 99.9887 258.75 98.6487 258.731 96.5904C258.732 95.8399 258.7 94.8751 258.637 93.6958C258.595 92.495 258.574 91.766 258.575 91.5087C258.575 91.3586 258.586 91.2193 258.607 91.0907C258.651 90.5976 258.844 90.1796 259.187 89.8369C259.552 89.4727 259.992 89.2802 260.506 89.2592C261.085 89.2168 261.686 89.1852 262.308 89.1643C262.951 89.122 263.369 89.101 263.562 89.1012C263.755 89.0799 263.98 89.0694 264.237 89.0696C264.516 89.0484 264.763 89.0379 264.977 89.0381L265.813 89.0389C266.113 89.0391 266.596 89.0503 267.26 89.0723C267.947 89.073 268.676 89.0736 269.447 89.0743C269.619 89.0745 269.79 89.0961 269.962 89.1391L269.994 89.1391C270.552 89.1825 271.002 89.4188 271.344 89.8479C271.708 90.2771 271.869 90.7596 271.825 91.2956C271.392 96.6555 271.173 100.997 271.17 104.32C271.17 104.878 270.976 105.349 270.59 105.735C270.204 106.121 269.732 106.313 269.175 106.313C268.617 106.312 268.146 106.119 267.76 105.732C267.374 105.346 267.182 104.874 267.182 104.317C267.185 101.036 267.35 97.2843 267.675 93.0607C265.509 93.0588 263.826 93.0894 262.626 93.1526C262.71 94.6321 262.752 95.7686 262.751 96.5619C262.749 99.3063 262.468 101.236 261.91 102.35C261.673 102.843 261.341 103.368 260.911 103.925C260.503 104.461 260.053 104.986 259.559 105.5C259.087 106.014 258.808 106.325 258.722 106.432ZM282.865 106.1C281.771 106.442 280.752 106.505 279.809 106.29C278.866 106.053 278.019 105.635 277.27 105.033C276.541 104.432 275.941 103.735 275.47 102.941C275.021 102.126 274.743 101.3 274.636 100.464C274.423 98.8774 274.511 97.3122 274.898 95.7689C275.307 94.204 275.994 92.8646 276.96 91.7505C278.033 90.4651 279.353 89.6515 280.918 89.3099C282.484 88.9468 284.252 89.1414 286.224 89.8936C286.889 90.1515 287.596 90.6024 288.346 91.2463C288.431 91.3536 288.56 91.4823 288.731 91.6326L289.245 92.0833C289.395 92.2121 289.545 92.3301 289.695 92.4375C290.124 92.7595 290.37 93.1993 290.434 93.7568C290.519 94.2929 290.401 94.7752 290.079 95.2037C289.821 95.5251 289.489 95.7499 289.081 95.8782L289.113 95.9104C289.284 96.2965 289.38 96.8004 289.401 97.4222C289.423 97.6796 289.422 97.9261 289.401 98.162C289.4 98.3764 289.4 98.505 289.4 98.5479C289.4 98.5908 289.411 98.6658 289.432 98.773C289.582 99.4379 289.742 100.199 289.913 101.057C289.955 101.314 289.987 101.475 290.009 101.539C290.051 101.604 290.105 101.668 290.169 101.733L291.551 103.085C291.958 103.492 292.151 103.975 292.129 104.532C292.128 105.068 291.924 105.529 291.516 105.915C291.13 106.3 290.669 106.482 290.133 106.46C289.597 106.46 289.136 106.266 288.75 105.88L287.401 104.56C286.93 104.088 286.598 103.659 286.405 103.273L286.373 103.176C286.351 103.219 286.266 103.337 286.115 103.53L285.761 103.98L285.31 104.462C285.139 104.655 284.967 104.826 284.795 104.976L284.216 105.394C284.002 105.543 283.776 105.683 283.54 105.811C283.326 105.918 283.101 106.014 282.865 106.1ZM281.582 102.368C281.667 102.347 281.753 102.315 281.839 102.272C281.925 102.208 282 102.154 282.064 102.111C282.129 102.047 282.214 101.95 282.322 101.822C282.429 101.693 282.526 101.586 282.612 101.501C282.697 101.415 282.837 101.265 283.03 101.051L283.449 100.504C283.599 100.333 283.803 99.9365 284.061 99.3149C284.082 99.2506 284.093 99.1756 284.093 99.0898C284.115 99.0041 284.126 98.854 284.126 98.6396C284.147 98.4038 284.18 98.1465 284.223 97.8678C284.374 96.3885 284.976 95.3921 286.027 94.8784C286.112 94.8356 286.198 94.8035 286.284 94.7822L285.77 94.2671C285.341 93.9022 284.988 93.6661 284.709 93.5586C282.695 92.7206 281.118 92.9765 279.981 94.3262C279.401 94.9689 278.982 95.8047 278.724 96.8336C278.466 97.8411 278.412 98.8917 278.561 99.9853C278.667 100.779 279.052 101.422 279.717 101.916C280.381 102.41 281.003 102.56 281.582 102.368ZM53.5714 135.442C51.408 133.124 49.6089 130.978 48.1741 129.004L45.8888 131.093C45.9737 132.015 46.0801 132.937 46.2079 133.859C46.2717 134.417 46.1426 134.92 45.8206 135.37C45.4986 135.799 45.0588 136.045 44.5013 136.109C43.9437 136.194 43.44 136.076 42.99 135.754C42.5615 135.432 42.3046 134.992 42.2193 134.434C41.6868 130.617 41.5301 126.104 41.7492 120.894C41.7712 120.336 41.986 119.876 42.3937 119.512C42.8014 119.126 43.284 118.955 43.8414 118.998C44.3989 119.02 44.8596 119.235 45.2238 119.643C45.6093 120.051 45.7804 120.533 45.737 121.091C45.6711 122.827 45.6375 124.424 45.6362 125.882L52.6854 119.457C53.1146 119.071 53.5971 118.9 54.1331 118.943C54.6906 118.965 55.1513 119.191 55.5154 119.62C55.901 120.028 56.0721 120.51 56.0287 121.068C56.0068 121.604 55.792 122.054 55.3843 122.418L51.1676 126.273C52.5595 128.269 54.3693 130.425 56.597 132.743C56.9611 133.172 57.1215 133.665 57.0781 134.223C57.0562 134.759 56.8306 135.219 56.4015 135.605C55.9938 135.969 55.5112 136.129 54.9538 136.086C54.4178 136.064 53.957 135.849 53.5714 135.442ZM61.8312 142.267C61.4021 142.61 60.9088 142.76 60.3514 142.716C59.8154 142.673 59.3653 142.437 59.0012 142.007C58.6586 141.578 58.5089 141.085 58.5523 140.528C58.5957 139.992 58.8319 139.542 59.2611 139.178C59.6902 138.835 60.1623 138.471 60.6772 138.085C61.2136 137.7 61.6427 137.368 61.9645 137.089C62.3079 136.811 62.619 136.511 62.898 136.19L62.8981 136.158C60.6511 131.353 58.876 126.473 57.5726 121.519C57.423 120.983 57.4877 120.479 57.7669 120.008C58.0461 119.515 58.4537 119.205 58.9899 119.076C59.526 118.927 60.0298 118.992 60.5013 119.271C60.9942 119.55 61.3047 119.958 61.4329 120.494C62.3945 124.054 63.592 127.571 65.0254 131.046C66.5297 127.209 67.562 123.737 68.1223 120.628C68.2086 120.092 68.477 119.664 68.9275 119.343C69.3995 119.021 69.9035 118.915 70.4394 119.022C70.9753 119.109 71.4039 119.388 71.7251 119.86C72.0463 120.31 72.153 120.804 72.0454 121.34C71.3557 125.22 69.9365 129.753 67.7877 134.94C67.7447 135.026 67.6588 135.24 67.5298 135.583L67.143 136.612C67.0355 136.912 66.8744 137.265 66.6596 137.673C66.4448 138.08 66.2194 138.433 65.9832 138.733C65.6183 139.162 65.1677 139.601 64.6313 140.051C64.1163 140.501 63.5584 140.95 62.9576 141.4C62.3569 141.85 61.9814 142.139 61.8312 142.267ZM74.9732 134.239C74.9525 133.424 74.932 132.341 74.9118 130.991C74.8916 129.64 74.8816 128.75 74.882 128.321C74.8414 125.877 74.736 123.84 74.566 122.21C74.5448 121.91 74.5772 121.631 74.6632 121.374C74.6419 121.267 74.6312 121.16 74.6313 121.052C74.6104 120.495 74.7931 120.023 75.1794 119.638C75.5657 119.231 76.0376 119.028 76.595 119.028C76.6593 119.028 77.2597 119.007 78.3961 118.965C79.5325 118.923 80.5188 118.892 81.3551 118.872C82.5986 118.851 83.6171 118.852 84.4104 118.874C84.9035 118.875 85.3109 118.897 85.6325 118.94C86.147 118.983 86.5543 119.058 86.8544 119.166C88.0546 119.66 88.9649 120.744 89.5852 122.417C89.7135 122.717 89.7882 123.146 89.8091 123.703C89.8302 124.068 89.8405 124.54 89.84 125.119C89.8392 126.019 89.8167 127.22 89.7724 128.721C89.7503 129.428 89.7175 130.178 89.6739 130.972C89.6303 131.765 89.5868 132.451 89.5434 133.03C89.5214 133.609 89.5103 134.006 89.5101 134.22C89.5096 134.756 89.3055 135.227 88.8978 135.634C88.5115 136.02 88.0396 136.202 87.4822 136.18C86.9462 136.179 86.4746 135.986 86.0676 135.6C85.682 135.192 85.5002 134.709 85.5222 134.152C85.5224 133.959 85.5334 133.562 85.5554 132.962C85.5774 132.362 85.6102 131.654 85.6538 130.839C85.6974 130.025 85.7303 129.264 85.7524 128.556C85.7966 127.098 85.8191 125.951 85.8198 125.115L85.8209 123.925C85.7995 123.839 85.7889 123.764 85.789 123.7C85.6392 123.335 85.5001 123.078 85.3716 122.928L85.2751 122.927C85.0392 122.906 84.7176 122.884 84.3103 122.862C83.5813 122.862 82.6164 122.871 81.4157 122.892C80.6438 122.913 79.7219 122.933 78.6498 122.954C78.7771 124.455 78.8612 126.224 78.9023 128.26C78.9019 128.711 78.9011 129.6 78.8998 130.93C78.9201 132.259 78.9406 133.321 78.9613 134.114C78.9822 134.671 78.7995 135.154 78.4132 135.561C78.0484 135.968 77.5872 136.171 77.0297 136.17C76.4722 136.191 75.99 136.019 75.5829 135.655C75.1759 135.268 74.9726 134.796 74.9732 134.239ZM96.7734 135.224C95.4233 134.472 94.4059 133.377 93.7211 131.94C93.0363 130.503 92.6946 128.981 92.6961 127.372C92.6975 125.786 93.0312 124.275 93.6972 122.839C94.3846 121.403 95.404 120.299 96.7555 119.529C97.3991 119.165 98.2247 118.951 99.2325 118.888C99.5544 118.566 99.9405 118.374 100.391 118.31C100.863 118.246 101.302 118.343 101.709 118.601C102.223 118.944 102.984 119.395 103.991 119.953C104.849 120.447 105.481 120.855 105.888 121.177C106.531 121.757 107.012 122.443 107.333 123.237C107.676 124.031 107.943 125.06 108.134 126.325C108.348 127.826 108.218 129.305 107.745 130.763C107.271 132.221 106.509 133.431 105.458 134.395C104.32 135.445 103.001 136.055 101.5 136.225C99.9992 136.395 98.4236 136.061 96.7734 135.224ZM98.6741 131.752C100.26 132.632 101.622 132.548 102.759 131.498C103.317 130.984 103.735 130.32 104.015 129.505C104.294 128.669 104.36 127.79 104.21 126.868C103.997 125.389 103.687 124.488 103.28 124.166C103.087 123.994 102.691 123.737 102.091 123.393L100.934 122.749C100.762 122.77 100.558 122.78 100.322 122.78L99.9687 122.78C99.7543 122.78 99.5935 122.79 99.4862 122.812C99.1003 122.833 98.843 122.875 98.7143 122.94C98.0921 123.304 97.5878 123.882 97.2011 124.675C96.8359 125.468 96.6528 126.379 96.6519 127.408C96.651 128.416 96.8324 129.317 97.1962 130.11C97.56 130.882 98.0526 131.43 98.6741 131.752ZM115.166 135.401C114.801 135.83 114.339 136.076 113.782 136.139C113.246 136.203 112.764 136.064 112.335 135.72C111.907 135.355 111.66 134.905 111.597 134.369C111.512 133.511 111.437 132.653 111.374 131.795C111.31 130.916 111.268 129.93 111.248 128.837L111.186 126.328C111.186 125.749 111.176 124.827 111.156 123.562C111.157 122.297 111.158 121.493 111.158 121.15C111.137 120.592 111.32 120.121 111.706 119.735C112.114 119.328 112.586 119.125 113.122 119.125C113.679 119.105 114.151 119.298 114.537 119.706C114.944 120.092 115.147 120.553 115.146 121.089C115.167 121.625 115.177 122.397 115.176 123.405L115.175 125.334C117.147 125.272 119.291 125.242 121.607 125.244L121.514 121.095C121.493 120.537 121.676 120.055 122.062 119.648C122.449 119.241 122.91 119.038 123.446 119.038C124.003 119.017 124.486 119.2 124.893 119.586C125.3 119.973 125.503 120.434 125.502 120.97C125.689 127.595 125.793 131.98 125.812 134.124C125.833 134.682 125.65 135.164 125.264 135.571C124.878 135.957 124.406 136.149 123.848 136.149C123.291 136.17 122.809 135.987 122.402 135.601C122.016 135.214 121.824 134.742 121.824 134.185C121.783 132.684 121.752 131.033 121.732 129.232C119.374 129.251 117.219 129.292 115.268 129.355C115.33 130.984 115.436 132.507 115.585 133.922C115.649 134.479 115.509 134.973 115.166 135.401ZM142.333 135.426C141.968 135.854 141.507 136.1 140.95 136.164C140.413 136.228 139.931 136.088 139.503 135.745C139.074 135.38 138.828 134.929 138.764 134.393C138.679 133.536 138.605 132.678 138.541 131.82C138.478 130.941 138.436 129.955 138.415 128.861L138.353 126.353C138.354 125.774 138.344 124.852 138.324 123.587C138.325 122.322 138.326 121.518 138.326 121.175C138.305 120.617 138.488 120.146 138.874 119.76C139.282 119.353 139.754 119.15 140.29 119.15C140.847 119.129 141.319 119.323 141.704 119.73C142.111 120.117 142.314 120.578 142.314 121.114C142.335 121.65 142.345 122.422 142.344 123.429L142.342 125.359C144.315 125.297 146.459 125.266 148.775 125.268L148.682 121.12C148.661 120.562 148.844 120.08 149.23 119.673C149.616 119.266 150.077 119.063 150.613 119.063C151.171 119.042 151.653 119.225 152.06 119.611C152.467 119.997 152.671 120.459 152.67 120.995C152.857 127.62 152.96 132.005 152.98 134.149C153.001 134.706 152.818 135.189 152.432 135.596C152.045 135.981 151.574 136.174 151.016 136.173C150.459 136.194 149.976 136.012 149.569 135.625C149.184 135.239 148.991 134.767 148.992 134.21C148.95 132.709 148.919 131.058 148.9 129.257C146.541 129.276 144.386 129.317 142.435 129.379C142.498 131.009 142.604 132.531 142.753 133.947C142.816 134.504 142.677 134.997 142.333 135.426ZM164.305 135.992C163.211 136.334 162.193 136.398 161.25 136.183C160.306 135.946 159.46 135.527 158.71 134.926C157.982 134.325 157.382 133.628 156.911 132.834C156.461 132.019 156.183 131.193 156.077 130.357C155.864 128.77 155.951 127.205 156.339 125.661C156.747 124.096 157.435 122.757 158.4 121.643C159.474 120.358 160.793 119.544 162.359 119.202C163.924 118.839 165.693 119.034 167.665 119.786C168.329 120.044 169.036 120.495 169.786 121.139C169.872 121.246 170 121.375 170.172 121.525L170.686 121.976C170.836 122.105 170.986 122.223 171.136 122.33C171.564 122.652 171.81 123.092 171.874 123.649C171.96 124.185 171.841 124.668 171.519 125.096C171.262 125.418 170.929 125.642 170.522 125.771L170.554 125.803C170.725 126.189 170.821 126.693 170.842 127.315C170.863 127.572 170.863 127.819 170.841 128.054C170.841 128.269 170.841 128.397 170.841 128.44C170.841 128.483 170.851 128.558 170.873 128.665C171.022 129.33 171.182 130.092 171.353 130.949C171.396 131.207 171.428 131.368 171.449 131.432C171.492 131.496 171.546 131.561 171.61 131.625L172.991 132.977C173.398 133.385 173.591 133.867 173.569 134.425C173.569 134.961 173.364 135.422 172.957 135.807C172.57 136.193 172.109 136.375 171.573 136.353C171.037 136.352 170.576 136.159 170.191 135.773L168.841 134.453C168.37 133.981 168.038 133.551 167.845 133.165L167.813 133.069C167.792 133.112 167.706 133.23 167.556 133.422L167.202 133.872L166.751 134.354C166.579 134.547 166.408 134.719 166.236 134.868L165.657 135.286C165.442 135.436 165.217 135.575 164.981 135.703C164.766 135.811 164.541 135.907 164.305 135.992ZM163.022 132.26C163.108 132.239 163.194 132.207 163.279 132.164C163.365 132.1 163.44 132.046 163.505 132.004C163.569 131.939 163.655 131.843 163.762 131.714C163.87 131.586 163.966 131.479 164.052 131.393C164.138 131.307 164.277 131.157 164.471 130.943L164.889 130.397C165.039 130.225 165.243 129.829 165.501 129.207C165.523 129.143 165.534 129.068 165.534 128.982C165.555 128.897 165.566 128.746 165.566 128.532C165.588 128.296 165.62 128.039 165.663 127.76C165.815 126.281 166.416 125.285 167.467 124.771C167.553 124.728 167.639 124.696 167.725 124.675L167.21 124.16C166.782 123.795 166.428 123.559 166.15 123.451C164.135 122.613 162.559 122.869 161.421 124.219C160.842 124.861 160.423 125.697 160.165 126.726C159.907 127.734 159.852 128.784 160.001 129.878C160.108 130.671 160.493 131.315 161.157 131.808C161.821 132.302 162.443 132.453 163.022 132.26ZM193.046 134.153C193.024 134.775 192.787 135.3 192.337 135.728C191.886 136.157 191.35 136.36 190.728 136.338C190.106 136.316 189.581 136.08 189.153 135.629C188.725 135.178 188.521 134.642 188.543 134.02C188.61 131.962 188.613 127.76 188.555 121.413L186.946 122.473C186.431 122.816 185.863 122.933 185.241 122.825C184.641 122.696 184.169 122.374 183.827 121.859C183.484 121.344 183.367 120.787 183.474 120.186C183.604 119.565 183.926 119.083 184.441 118.74L185.438 118.098C185.803 117.862 186.039 117.712 186.146 117.648C186.253 117.562 186.404 117.445 186.597 117.295C186.79 117.123 186.951 116.952 187.08 116.78L187.563 116.106C187.691 115.977 187.756 115.72 187.756 115.334C187.907 114.776 188.111 114.326 188.369 113.984C188.991 113.169 189.806 112.795 190.814 112.86C191.607 112.925 192.207 113.301 192.614 113.987C192.699 114.159 192.774 114.341 192.838 114.534C192.86 114.642 192.881 114.77 192.902 114.92C192.924 115.071 192.945 115.242 192.966 115.435C192.987 115.757 192.998 116.207 192.997 116.786C193.018 117.622 193.038 118.833 193.058 120.42C193.094 128.139 193.09 132.717 193.046 134.153ZM208.335 135.518C207.992 135.946 207.541 136.182 206.984 136.224C206.448 136.288 205.965 136.148 205.537 135.805C205.13 135.461 204.905 135.011 204.863 134.453C204.799 133.896 204.949 133.413 205.314 133.006L210.304 127.158L209.34 126.288L208.633 125.677L208.216 125.29L207.348 124.421L206.513 123.648L205.42 122.522C205.035 122.136 204.831 121.674 204.81 121.138C204.811 120.602 205.004 120.142 205.391 119.756C205.777 119.349 206.238 119.146 206.774 119.146C207.31 119.125 207.782 119.319 208.189 119.726L209.538 121.046L210.823 122.334C211.102 122.591 211.284 122.752 211.37 122.817C211.455 122.881 211.755 123.139 212.27 123.589L213.748 124.974L213.816 121.114C213.816 120.578 214.009 120.118 214.396 119.732C214.782 119.346 215.254 119.165 215.811 119.186C216.369 119.187 216.83 119.391 217.194 119.799C217.579 120.185 217.761 120.646 217.739 121.182C217.717 122.361 217.705 123.626 217.704 124.977L222.5 119.964C222.844 119.536 223.283 119.3 223.819 119.258C224.356 119.216 224.838 119.377 225.266 119.742C225.695 120.085 225.93 120.525 225.973 121.061C226.015 121.597 225.865 122.069 225.521 122.476L221.046 127.296C223.146 129.313 224.934 131.212 226.412 132.993C226.755 133.422 226.904 133.905 226.861 134.441C226.818 134.977 226.581 135.416 226.152 135.759C225.745 136.102 225.273 136.251 224.737 136.208C224.201 136.165 223.751 135.928 223.387 135.499C221.759 133.589 219.874 131.626 217.732 129.609C217.752 131.067 217.782 132.61 217.824 134.24C217.845 134.797 217.673 135.28 217.308 135.687C216.943 136.072 216.482 136.265 215.924 136.264C215.367 136.285 214.885 136.113 214.478 135.748C214.092 135.384 213.9 134.922 213.9 134.365C213.837 132.585 213.796 130.849 213.776 129.155L213.744 129.155L208.335 135.518ZM234.875 136.249C233.653 136.034 232.55 135.647 231.564 135.089C230.514 134.423 229.678 133.629 229.057 132.706C228.458 131.719 228.094 130.722 227.967 129.714C227.839 128.685 227.861 127.667 228.034 126.659C228.228 125.651 228.561 124.698 229.033 123.798C229.527 122.897 230.139 122.094 230.869 121.387C231.598 120.659 232.424 120.081 233.347 119.653C234.269 119.203 235.298 119 236.435 119.044C237.593 119.067 238.739 119.379 239.875 119.98C241.375 120.775 242.5 121.891 243.249 123.328C243.613 123.993 243.827 124.808 243.89 125.773L243.954 126.706C243.953 127.006 243.964 127.242 243.985 127.413C244.049 127.799 243.995 128.164 243.823 128.507C243.673 128.849 243.426 129.117 243.083 129.31C242.718 129.588 242.311 129.706 241.86 129.663C238.387 129.466 235.053 129.442 231.858 129.589C232.115 130.533 232.682 131.273 233.561 131.81C234.075 132.111 234.707 132.336 235.458 132.487C236.229 132.616 236.862 132.606 237.355 132.457C237.548 132.392 237.806 132.232 238.128 131.975L238.803 131.429C239.082 131.172 239.351 130.957 239.608 130.786C240.037 130.486 240.509 130.39 241.023 130.498C241.559 130.606 241.977 130.885 242.277 131.335C242.577 131.764 242.673 132.236 242.565 132.751C242.457 133.265 242.189 133.683 241.76 134.004C241.631 134.09 241.46 134.218 241.245 134.39L240.537 135C239.786 135.557 239.078 135.932 238.413 136.124C237.277 136.423 236.097 136.465 234.875 136.249ZM232.376 125.698C234.864 125.615 237.404 125.617 239.999 125.705C239.977 125.426 239.935 125.233 239.87 125.126C239.464 124.375 238.864 123.785 238.071 123.356C236.978 122.797 235.928 122.732 234.919 123.16C233.911 123.566 233.085 124.369 232.441 125.57L232.376 125.698ZM247.922 136.422C247.578 136.85 247.128 137.097 246.57 137.16C246.013 137.224 245.52 137.084 245.091 136.741C244.663 136.398 244.417 135.947 244.353 135.39C244.289 134.832 244.429 134.339 244.772 133.911L245.931 132.593C246.339 132.165 246.661 131.811 246.897 131.533C247.133 131.254 247.337 130.943 247.509 130.6C247.81 129.979 247.95 128.639 247.931 126.581C247.932 125.83 247.9 124.865 247.837 123.686C247.795 122.485 247.774 121.756 247.775 121.499C247.775 121.349 247.786 121.21 247.807 121.081C247.851 120.588 248.044 120.17 248.387 119.827C248.752 119.463 249.192 119.27 249.706 119.249C250.285 119.207 250.886 119.175 251.508 119.155C252.151 119.112 252.569 119.091 252.762 119.091C252.955 119.07 253.18 119.06 253.437 119.06C253.716 119.039 253.963 119.028 254.177 119.028L255.013 119.029C255.313 119.029 255.796 119.041 256.46 119.063C257.147 119.063 257.876 119.064 258.647 119.065C258.819 119.065 258.99 119.086 259.162 119.129L259.194 119.129C259.752 119.173 260.202 119.409 260.544 119.838C260.908 120.267 261.069 120.75 261.025 121.286C260.592 126.646 260.373 130.987 260.37 134.311C260.37 134.868 260.176 135.34 259.79 135.725C259.404 136.111 258.932 136.303 258.375 136.303C257.817 136.302 257.346 136.109 256.96 135.723C256.574 135.336 256.382 134.864 256.382 134.307C256.385 131.027 256.55 127.275 256.875 123.051C254.709 123.049 253.026 123.08 251.826 123.143C251.91 124.622 251.952 125.759 251.951 126.552C251.949 129.297 251.668 131.226 251.11 132.34C250.873 132.833 250.541 133.358 250.111 133.915C249.703 134.451 249.253 134.976 248.759 135.49C248.287 136.004 248.008 136.315 247.922 136.422ZM272.065 136.09C270.971 136.432 269.952 136.496 269.009 136.28C268.066 136.044 267.219 135.625 266.47 135.024C265.741 134.423 265.141 133.725 264.67 132.932C264.221 132.116 263.943 131.291 263.836 130.454C263.623 128.868 263.711 127.302 264.098 125.759C264.507 124.194 265.194 122.855 266.16 121.741C267.233 120.455 268.553 119.642 270.118 119.3C271.684 118.937 273.452 119.132 275.424 119.884C276.089 120.142 276.796 120.593 277.546 121.237C277.631 121.344 277.76 121.473 277.931 121.623L278.445 122.074C278.595 122.202 278.745 122.32 278.895 122.428C279.324 122.75 279.57 123.189 279.634 123.747C279.719 124.283 279.601 124.765 279.279 125.194C279.021 125.515 278.689 125.74 278.281 125.868L278.313 125.901C278.484 126.287 278.58 126.791 278.601 127.412C278.622 127.67 278.622 127.916 278.601 128.152C278.6 128.367 278.6 128.495 278.6 128.538C278.6 128.581 278.611 128.656 278.632 128.763C278.782 129.428 278.942 130.189 279.113 131.047C279.155 131.304 279.187 131.465 279.209 131.53C279.251 131.594 279.305 131.658 279.369 131.723L280.751 133.075C281.158 133.483 281.351 133.965 281.329 134.523C281.328 135.059 281.124 135.519 280.716 135.905C280.33 136.291 279.869 136.472 279.333 136.45C278.797 136.45 278.336 136.257 277.95 135.87L276.601 134.55C276.13 134.078 275.798 133.649 275.605 133.263L275.573 133.167C275.551 133.209 275.466 133.327 275.315 133.52L274.961 133.97L274.51 134.452C274.339 134.645 274.167 134.816 273.995 134.966L273.416 135.384C273.202 135.534 272.976 135.673 272.74 135.801C272.526 135.908 272.301 136.005 272.065 136.09ZM270.782 132.358C270.867 132.337 270.953 132.305 271.039 132.262C271.125 132.198 271.2 132.144 271.264 132.101C271.329 132.037 271.414 131.941 271.522 131.812C271.629 131.684 271.726 131.576 271.812 131.491C271.897 131.405 272.037 131.255 272.23 131.041L272.649 130.495C272.799 130.323 273.003 129.927 273.261 129.305C273.282 129.241 273.293 129.166 273.293 129.08C273.315 128.994 273.326 128.844 273.326 128.63C273.347 128.394 273.38 128.137 273.423 127.858C273.574 126.379 274.176 125.382 275.227 124.869C275.312 124.826 275.398 124.794 275.484 124.772L274.97 124.257C274.541 123.892 274.188 123.656 273.909 123.549C271.895 122.711 270.318 122.967 269.181 124.316C268.601 124.959 268.182 125.795 267.924 126.824C267.666 127.831 267.611 128.882 267.761 129.976C267.867 130.769 268.252 131.413 268.917 131.906C269.581 132.4 270.203 132.551 270.782 132.358ZM287.279 135.557C286.914 135.986 286.453 136.232 285.896 136.296C285.36 136.359 284.877 136.22 284.449 135.876C284.02 135.511 283.774 135.061 283.71 134.525C283.625 133.667 283.551 132.809 283.487 131.952C283.424 131.073 283.382 130.086 283.362 128.993L283.299 126.484C283.3 125.905 283.29 124.983 283.27 123.718C283.271 122.453 283.272 121.649 283.272 121.306C283.251 120.749 283.434 120.277 283.82 119.891C284.228 119.484 284.7 119.281 285.236 119.282C285.793 119.261 286.265 119.454 286.65 119.862C287.057 120.248 287.261 120.709 287.26 121.245C287.281 121.781 287.291 122.553 287.29 123.561L287.288 125.491C289.261 125.428 291.405 125.398 293.721 125.4L293.628 121.251C293.607 120.694 293.79 120.211 294.176 119.804C294.562 119.397 295.024 119.194 295.56 119.195C296.117 119.174 296.599 119.356 297.006 119.743C297.413 120.129 297.617 120.59 297.616 121.126C297.803 127.751 297.906 132.136 297.926 134.28C297.947 134.838 297.764 135.32 297.378 135.727C296.991 136.113 296.52 136.305 295.962 136.305C295.405 136.326 294.922 136.143 294.515 135.757C294.13 135.37 293.937 134.899 293.938 134.341C293.896 132.84 293.866 131.189 293.846 129.388C291.487 129.407 289.332 129.448 287.381 129.511C287.444 131.14 287.55 132.663 287.699 134.078C287.762 134.636 287.623 135.129 287.279 135.557ZM302.723 136.021C302.037 135.549 301.748 134.906 301.856 134.091L301.856 133.898C301.624 129.438 301.682 125.128 302.029 120.969C302.072 120.412 302.298 119.962 302.705 119.619C303.134 119.255 303.628 119.095 304.185 119.138C304.743 119.181 305.193 119.418 305.535 119.847C305.899 120.255 306.06 120.737 306.016 121.294C305.821 123.803 305.723 126.204 305.72 128.498L307.202 126.602C309.219 123.967 310.744 121.792 311.774 120.078C312.118 119.52 312.601 119.199 313.223 119.114C313.458 119.029 313.694 118.986 313.93 118.986C314.488 118.965 314.97 119.148 315.377 119.534C315.784 119.899 315.987 120.36 315.987 120.918C316.028 122.29 316.037 124.509 316.013 127.575C315.989 130.384 316.008 132.614 316.071 134.265C316.092 134.822 315.909 135.304 315.523 135.711C315.158 136.118 314.697 136.332 314.14 136.353C313.604 136.374 313.132 136.202 312.725 135.838C312.318 135.451 312.104 134.99 312.083 134.454C312.02 132.846 312.001 130.327 312.026 126.896L310.383 129.049C307.357 133.035 305.725 135.188 305.489 135.509C305.188 135.981 304.759 136.259 304.202 136.344C303.666 136.451 303.173 136.343 302.723 136.021ZM325.957 136.332C324.735 136.116 323.632 135.73 322.646 135.171C321.596 134.506 320.76 133.711 320.139 132.789C319.54 131.802 319.176 130.805 319.049 129.797C318.921 128.768 318.943 127.749 319.116 126.742C319.31 125.734 319.643 124.78 320.115 123.88C320.609 122.98 321.221 122.177 321.951 121.47C322.68 120.741 323.506 120.163 324.429 119.735C325.351 119.286 326.38 119.083 327.517 119.127C328.675 119.15 329.821 119.461 330.957 120.063C332.457 120.858 333.582 121.973 334.331 123.411C334.695 124.076 334.909 124.891 334.972 125.856L335.036 126.788C335.035 127.088 335.046 127.324 335.067 127.496C335.131 127.882 335.077 128.246 334.905 128.589C334.755 128.932 334.508 129.2 334.165 129.393C333.8 129.671 333.393 129.789 332.942 129.745C329.469 129.549 326.135 129.525 322.94 129.672C323.197 130.615 323.764 131.356 324.643 131.893C325.157 132.193 325.789 132.419 326.54 132.57C327.311 132.699 327.944 132.689 328.437 132.539C328.63 132.475 328.888 132.314 329.21 132.057L329.885 131.511C330.164 131.254 330.433 131.04 330.69 130.869C331.119 130.569 331.591 130.473 332.105 130.581C332.641 130.688 333.059 130.967 333.359 131.418C333.659 131.847 333.755 132.319 333.647 132.833C333.539 133.348 333.271 133.766 332.842 134.087C332.713 134.173 332.542 134.301 332.327 134.472L331.619 135.083C330.868 135.64 330.16 136.014 329.495 136.207C328.359 136.506 327.179 136.547 325.957 136.332ZM323.458 125.781C325.946 125.697 328.486 125.7 331.081 125.788C331.059 125.509 331.017 125.316 330.953 125.209C330.546 124.458 329.946 123.868 329.153 123.438C328.06 122.88 327.01 122.814 326.001 123.242C324.993 123.649 324.167 124.452 323.523 125.652L323.458 125.781Z" fill="#434343"/>
</svg>
