<svg width="375" height="227" viewBox="0 0 375 227" fill="none" xmlns="http://www.w3.org/2000/svg">
<path d="M21.7376 149.94C0.576228 94.356 -1.15204 13.4232 96.73 28.6226C194.612 43.8219 293.624 12.8503 338.831 47.5035C384.039 82.1567 366.132 170.924 274.275 188.376C182.419 205.828 42.899 205.525 21.7376 149.94Z" fill="#FADE7E"/>
<path d="M48.0049 74.8635C47.9842 74.0487 47.9638 72.966 47.9436 71.6152C47.9234 70.2644 47.9134 69.3745 47.9138 68.9457C47.8732 66.5014 47.7678 64.4644 47.5978 62.8348C47.5766 62.5346 47.609 62.2559 47.695 61.9987C47.6737 61.8914 47.663 61.7842 47.6631 61.677C47.6422 61.1195 47.8249 60.648 48.2112 60.2624C48.5975 59.8554 49.0694 59.6521 49.6268 59.6526C49.6911 59.6527 50.2915 59.6318 51.4279 59.5899C52.5643 59.5481 53.5506 59.5168 54.3868 59.4961C55.6304 59.4758 56.6489 59.4768 57.4422 59.4989C57.9353 59.4994 58.3427 59.5212 58.6643 59.5643C59.1788 59.6077 59.5861 59.6831 59.8862 59.7906C61.0864 60.2848 61.9967 61.3684 62.617 63.0414C62.7453 63.3417 62.82 63.7705 62.8409 64.328C62.862 64.6925 62.8723 65.1643 62.8718 65.7432C62.871 66.6437 62.8484 67.8444 62.8042 69.3452C62.7821 70.0527 62.7493 70.8031 62.7057 71.5964C62.6621 72.3897 62.6186 73.0757 62.5752 73.6546C62.5532 74.2335 62.5421 74.6301 62.5419 74.8445C62.5414 75.3806 62.3373 75.8521 61.9296 76.2591C61.5433 76.6447 61.0714 76.8265 60.514 76.8045C59.978 76.8041 59.5064 76.6107 59.0994 76.2244C58.7138 75.8166 58.532 75.334 58.554 74.7766C58.5541 74.5836 58.5652 74.187 58.5872 73.5867C58.6092 72.9863 58.642 72.2788 58.6856 71.4641C58.7292 70.6494 58.7621 69.8883 58.7842 69.1807C58.8284 67.7228 58.8509 66.5757 58.8516 65.7395L58.8527 64.5495C58.8313 64.4638 58.8207 64.3887 58.8207 64.3244C58.671 63.9597 58.5319 63.7023 58.4033 63.5521L58.3069 63.552C58.071 63.5304 57.7494 63.5087 57.3421 63.4868C56.6131 63.4862 55.6482 63.496 54.4475 63.5164C53.6756 63.5371 52.7537 63.5577 51.6816 63.5782C51.8089 65.0792 51.893 66.8481 51.9341 68.8851C51.9337 69.3353 51.9328 70.2251 51.9316 71.5544C51.9519 72.8838 51.9724 73.9452 51.9931 74.7385C52.014 75.296 51.8313 75.7782 51.445 76.1853C51.0802 76.5923 50.619 76.7956 50.0615 76.7951C49.504 76.816 49.0218 76.644 48.6147 76.2792C48.2077 75.8929 48.0044 75.421 48.0049 74.8635ZM67.3886 80.831C67.3053 78.1508 67.1699 73.766 66.9824 67.6766C66.6183 67.3117 66.415 66.872 66.3726 66.3574C66.3516 65.8428 66.5021 65.382 66.8241 64.9749L66.9207 64.8463L66.8591 61.8552C66.8381 61.2978 67.0101 60.8155 67.375 60.4084C67.7613 60.0014 68.2332 59.7982 68.7906 59.7987C69.5839 59.7779 70.184 60.1323 70.5907 60.8616C72.8864 59.2128 75.0952 58.7538 77.2172 59.4847C78.3747 59.8717 79.3496 60.5372 80.1421 61.4814C80.9345 62.4469 81.5446 63.5302 81.9723 64.7313C82.9135 67.155 83.0187 69.3957 82.2878 71.4533C81.9222 72.6966 81.278 73.7895 80.3552 74.7321C79.4538 75.6532 78.3169 76.2847 76.9443 76.6265C75.293 77.0109 73.7601 76.8916 72.3456 76.2685C72.0027 76.1181 71.6276 75.9141 71.2205 75.6564C71.2832 77.479 71.3352 79.1621 71.3767 80.7059C71.3977 81.2634 71.215 81.735 70.8287 82.1205C70.4638 82.5276 70.0027 82.7416 69.4452 82.7625C68.8877 82.7834 68.4054 82.6008 67.9984 82.2145C67.6128 81.8496 67.4095 81.3884 67.3886 80.831ZM75.9831 72.7019C77.1626 72.4243 77.9564 71.8032 78.3647 70.8387C78.8163 69.3168 78.7535 67.7194 78.1761 66.0465C77.6414 64.5237 76.8918 63.6011 75.9273 63.2786C74.8556 62.9131 73.5257 63.4694 71.9378 64.9473C71.6588 65.2044 71.3368 65.59 70.9719 66.1043L71.0967 70.3497L72.0928 71.2511C72.4999 71.6374 72.8319 71.9272 73.0891 72.1204C73.3462 72.2921 73.6355 72.4532 73.957 72.6036C74.5357 72.8614 75.211 72.8942 75.9831 72.7019ZM88.8382 75.8654C87.4881 75.1137 86.4707 74.0193 85.7859 72.5822C85.1011 71.145 84.7594 69.6224 84.7609 68.0143C84.7623 66.4277 85.096 64.9164 85.762 63.4805C86.4494 62.0445 87.4688 60.9413 88.8203 60.1706C89.4639 59.8067 90.2895 59.593 91.2973 59.5296C91.6192 59.2083 92.0053 59.0157 92.4557 58.9518C92.9274 58.8879 93.3669 58.9848 93.774 59.2424C94.2883 59.5859 95.049 60.0369 96.0562 60.5953C96.9134 61.0892 97.5456 61.4971 97.9527 61.8191C98.5954 62.3986 99.0772 63.0852 99.398 63.8788C99.7404 64.6724 100.007 65.7018 100.199 66.967C100.412 68.4681 100.282 69.9474 99.8093 71.4049C99.3363 72.8625 98.574 74.0732 97.5226 75.0371C96.3852 76.0867 95.0661 76.6965 93.565 76.8667C92.064 77.0369 90.4884 76.7031 88.8382 75.8654ZM90.7389 72.3937C92.3247 73.2742 93.6863 73.1897 94.8236 72.1401C95.3816 71.626 95.8003 70.9617 96.0797 70.1472C96.3592 69.3113 96.4243 68.4323 96.2751 67.5102C96.062 66.0306 95.752 65.1298 95.3449 64.8078C95.1521 64.6361 94.7556 64.3784 94.1556 64.0348L92.9984 63.3905C92.8268 63.4118 92.6231 63.4224 92.3873 63.4222L92.0335 63.4218C91.8191 63.4216 91.6583 63.4322 91.551 63.4536C91.1651 63.4746 90.9078 63.5173 90.7791 63.5815C90.1569 63.9454 89.6526 64.5239 89.2659 65.3168C88.9007 66.1098 88.7176 67.0209 88.7167 68.0501C88.7158 69.0578 88.8972 69.9585 89.261 70.7521C89.6248 71.5243 90.1174 72.0715 90.7389 72.3937ZM106.04 76.8459C105.482 76.8882 104.989 76.7377 104.561 76.3942C104.154 76.0294 103.929 75.5682 103.887 75.0107C103.442 69.114 103.21 64.697 103.191 61.7596C103.17 61.2021 103.353 60.7305 103.739 60.345C104.147 59.9379 104.619 59.7347 105.155 59.7352C105.712 59.7142 106.184 59.8969 106.569 60.2832C106.976 60.6909 107.18 61.1628 107.179 61.6989C107.198 64.0145 107.314 66.6411 107.526 69.5787L114.03 60.7402L114.063 60.6759C114.428 59.9473 115.018 59.5833 115.832 59.5841C116.39 59.5631 116.861 59.7565 117.247 60.1642C117.654 60.5506 117.857 61.0117 117.857 61.5477C117.877 63.3488 117.906 65.9217 117.946 69.2666C117.986 72.6114 117.995 74.4982 117.973 74.927C117.973 75.463 117.769 75.9345 117.361 76.3415C116.975 76.7271 116.503 76.9089 115.945 76.887C115.409 76.8865 114.938 76.6931 114.531 76.3068C114.145 75.8991 113.963 75.4165 113.985 74.8591C113.986 73.8942 113.955 72.5327 113.893 70.7745C113.83 68.9948 113.809 67.9978 113.831 67.7834L108.003 75.4325C107.895 75.5825 107.777 75.7111 107.649 75.8181C107.305 76.4396 106.769 76.7822 106.04 76.8459ZM110.333 59.9007C109.603 59.9643 108.832 59.7063 108.018 59.1267C107.996 59.1481 107.739 58.9871 107.246 58.6436L105.928 57.7419C105.457 57.4413 105.157 57.0229 105.029 56.4868C104.901 55.9292 104.987 55.4254 105.288 54.9754C105.588 54.504 106.007 54.2042 106.543 54.076C107.079 53.9479 107.583 54.0341 108.054 54.3347C108.183 54.4206 108.879 54.8929 110.143 55.7517L110.465 55.559C111.495 55.0239 112.503 54.5424 113.49 54.1145C114.004 53.922 114.519 53.9332 115.033 54.1481C115.548 54.3415 115.901 54.6956 116.094 55.2103C116.308 55.7251 116.318 56.2397 116.124 56.7541C115.931 57.2685 115.566 57.6327 115.03 57.8466C114.129 58.2317 113.228 58.6597 112.327 59.1306C111.448 59.6015 110.783 59.8582 110.333 59.9007ZM134.857 80.2811C134.857 79.9809 134.879 79.6057 134.923 79.1555L134.955 78.8018C134.977 78.5874 134.988 78.4159 134.988 78.2872C135.031 77.8156 135.021 77.4832 134.956 77.2902C134.914 77.1401 134.764 77.022 134.506 76.936C134.356 76.893 134.088 76.882 133.702 76.9031C133.638 76.9245 133.563 76.9351 133.477 76.9351C133.392 76.935 133.295 76.9349 133.188 76.9348C133.102 76.9562 133.027 76.9775 132.963 76.9989C132.577 77.02 132.244 77.0304 131.966 77.0302L123.957 77.0229L123.891 78.9847C123.891 79.5207 123.687 79.9815 123.279 80.3671C122.871 80.7527 122.389 80.9345 121.831 80.9125C121.295 80.912 120.834 80.7079 120.449 80.3002C120.063 79.8925 119.881 79.4099 119.903 78.8524L120.003 75.154C120.004 74.7251 120.133 74.3393 120.39 73.9965C120.712 73.4608 121.195 73.1396 121.838 73.033C123.793 69.1111 124.858 65.2848 125.033 61.5542C125.055 61.0182 125.27 60.5682 125.677 60.2041C126.085 59.8185 126.568 59.6367 127.125 59.6586C127.254 59.6587 127.393 59.6803 127.543 59.7233C127.564 59.7233 127.811 59.7128 128.283 59.6918C128.755 59.6708 129.28 59.6499 129.859 59.6289C130.438 59.608 130.984 59.5978 131.499 59.5983C132.528 59.5563 133.343 59.5356 133.943 59.5362C134.308 59.5365 134.597 59.5475 134.812 59.5691L135.198 59.5695C135.283 59.591 135.369 59.6018 135.455 59.6019C135.712 59.6664 135.948 59.7631 136.162 59.892C136.355 60.0208 136.516 60.171 136.644 60.3426C136.794 60.5143 136.89 60.6538 136.933 60.761L136.997 60.9219C137.04 61.0291 137.062 61.1363 137.061 61.2435C137.083 61.3293 137.093 61.4044 137.093 61.4687C137.115 61.533 137.125 61.6081 137.125 61.6939L137.125 62.0476C137.103 62.3049 137.092 62.6908 137.092 63.2054C137.07 63.527 137.048 64.0952 137.026 64.9099C137.004 65.7247 136.982 66.2499 136.96 66.4858C136.871 70.0234 136.837 72.4141 136.857 73.6577C137.8 74.2589 138.432 75.042 138.753 76.0072C138.988 76.7364 139.073 77.6048 139.008 78.6125L138.91 79.5451C138.867 79.8666 138.845 80.1132 138.845 80.2847C138.845 80.8422 138.651 81.3137 138.265 81.6993C137.879 82.0849 137.407 82.2774 136.849 82.2769C136.292 82.2764 135.82 82.083 135.435 81.6967C135.049 81.3104 134.857 80.8386 134.857 80.2811ZM131.969 73.0422C132.119 73.0423 132.323 73.021 132.58 72.9784L132.838 72.9786C132.839 71.5421 132.884 69.3337 132.972 66.3535L133.071 63.5555C132.642 63.5766 132.149 63.5869 131.592 63.5864C130.82 63.6071 129.919 63.6385 128.89 63.6804C128.566 66.7033 127.695 69.8221 126.277 73.037L131.969 73.0422ZM143.888 75.7545C143.652 76.2475 143.277 76.5902 142.762 76.7827C142.247 76.9752 141.732 76.964 141.218 76.7491C140.725 76.5128 140.382 76.1373 140.19 75.6225C139.997 75.1078 140.009 74.5932 140.223 74.0788C140.588 73.7147 140.986 73.0182 141.415 71.9894C141.759 71.0892 142.049 70.4677 142.285 70.1248L142.35 70.0284C141.407 69.2986 140.797 68.3546 140.519 67.1965C140.306 66.2744 140.36 65.3525 140.682 64.4308C141.005 63.4877 141.456 62.6841 142.035 62.0199C143.452 60.4346 145.608 59.6647 148.502 59.7102C149.124 59.7322 149.767 59.7864 150.432 59.8727C151.096 59.9377 151.846 60.0455 152.683 60.1964C153.519 60.3258 153.969 60.3905 154.033 60.3906C154.741 60.4984 155.244 60.8741 155.544 61.5176C155.779 61.8609 155.886 62.2362 155.864 62.6435C155.863 63.5441 155.765 65.731 155.569 69.2042C155.416 71.9056 155.35 73.7817 155.371 74.8323C155.392 75.3898 155.209 75.872 154.823 76.279C154.436 76.6646 153.965 76.8572 153.407 76.8567C152.85 76.8776 152.367 76.6949 151.96 76.3086C151.575 75.9223 151.382 75.4504 151.383 74.893C151.362 74.1854 151.384 73.1241 151.45 71.7091C149.82 71.729 148.652 71.7172 147.944 71.6737C147.515 71.8663 147.033 72.0588 146.497 72.2513C145.982 72.4438 145.682 72.5507 145.596 72.5721L145.467 72.6363L143.888 75.7545ZM151.647 67.6891C151.734 66.1883 151.799 64.9984 151.843 64.1193C150.406 63.8822 149.27 63.7525 148.434 63.7303C146.762 63.6859 145.636 63.9958 145.056 64.6599C144.799 64.9384 144.616 65.2384 144.509 65.5599C144.423 65.86 144.401 66.1066 144.444 66.2996C144.572 66.9001 145.365 67.3189 146.822 67.556C147.208 67.5993 147.637 67.6425 148.109 67.6859C148.602 67.7077 148.999 67.7188 149.299 67.7191C149.62 67.7194 150.049 67.7198 150.585 67.7203C151.143 67.6993 151.496 67.6889 151.647 67.6891ZM171.76 77.5809C171.224 77.6876 170.731 77.5799 170.281 77.2579C169.831 76.9573 169.553 76.5497 169.446 76.035L169.382 75.649C169.254 75.3916 169.2 75.1236 169.222 74.8448L169.222 74.7805C168.817 72.293 168.478 68.3047 168.204 62.8156C168.14 62.6654 168.086 62.5153 168.043 62.3651C168.001 62.0221 168.033 61.7005 168.141 61.4004C168.206 60.9073 168.41 60.5001 168.753 60.1788C169.096 59.8575 169.515 59.6864 170.008 59.6654C170.372 59.6443 170.715 59.7196 171.037 59.8914C172.752 59.6357 174.232 59.5084 175.475 59.5095C176.89 59.5322 178.091 59.7263 179.077 60.0917C180.599 60.6291 181.573 61.5734 182.001 62.9246C182.536 64.5545 182.245 66.0123 181.129 67.2977L180.839 67.5547C181.61 68.0915 182.199 68.7031 182.606 69.3895C183.077 70.3548 183.205 71.3091 182.99 72.2523C182.796 73.1955 182.28 74.0848 181.443 74.9203C180.263 76.1199 178.408 76.7936 175.878 76.9414C175.106 76.9836 174.216 76.9827 173.208 76.939L172.887 76.9387C172.586 77.2814 172.211 77.4955 171.76 77.5809ZM175.688 73.0175C177.189 72.9331 178.154 72.6553 178.583 72.1839C179.013 71.777 179.195 71.4877 179.131 71.3161C178.917 70.9299 178.349 70.5757 177.427 70.2532C176.892 70.0598 176.013 70.0268 174.79 70.1543C174.233 70.2181 173.525 70.3247 172.667 70.474C172.752 71.3532 172.848 72.1895 172.954 72.9829L173.405 72.9833C174.305 73.027 175.066 73.0384 175.688 73.0175ZM172.317 66.2606C174.097 66.0906 175.512 65.8239 176.563 65.4604C177.378 65.2253 177.925 64.947 178.204 64.6257C178.29 64.5185 178.301 64.347 178.237 64.1111C178.237 64.0039 178.066 63.8965 177.723 63.789C177.187 63.5741 176.426 63.4662 175.44 63.4653C174.518 63.4645 173.435 63.5493 172.191 63.7197C172.254 64.7918 172.296 65.6387 172.317 66.2606ZM194.626 76.5724C193.167 77.0428 191.645 77.02 190.059 76.504C188.751 76.074 187.68 75.4191 186.844 74.5392C186.009 73.6379 185.452 72.6512 185.175 71.5789C184.918 70.4851 184.823 69.3916 184.888 68.2981C184.975 67.2047 185.201 66.1543 185.566 65.1469C185.975 64.1181 186.522 63.1752 187.209 62.3182C187.917 61.4612 188.744 60.7973 189.687 60.3265C190.696 59.8128 191.811 59.6101 193.033 59.7184C194.255 59.8267 195.444 60.2674 196.601 61.0403C197.201 61.4482 197.748 62.0705 198.24 62.9071L198.69 63.6472C198.818 63.8832 198.936 64.0656 199.043 64.1943C199.343 64.6234 199.439 65.1059 199.331 65.6418C199.245 66.1563 198.987 66.5742 198.558 66.8954C198.15 67.2167 197.679 67.3342 197.143 67.2479C196.607 67.1402 196.178 66.8718 195.857 66.4427C195.686 66.2067 195.504 65.9171 195.311 65.5739L194.926 64.8981C194.711 64.5549 194.54 64.3403 194.412 64.2544C193.319 63.503 192.311 63.3627 191.389 63.8336C190.445 64.3044 189.715 65.215 189.199 66.5653C188.641 68.0014 188.543 69.3092 188.906 70.4887C189.291 71.6684 190.062 72.4516 191.22 72.8386C192.034 73.0752 192.774 73.0866 193.439 72.8728C193.568 72.8515 193.761 72.7123 194.018 72.4552L194.565 71.909C194.866 71.6305 195.113 71.4056 195.306 71.2343C195.756 70.9131 196.239 70.7849 196.753 70.8496C197.289 70.893 197.718 71.1293 198.039 71.5584C198.382 71.9875 198.521 72.47 198.456 73.006C198.391 73.542 198.155 73.9706 197.747 74.2918C197.619 74.3775 197.458 74.5167 197.264 74.7095L196.685 75.2879C195.998 75.9305 195.312 76.3587 194.626 76.5724ZM208.033 76.8741C206.811 76.6585 205.707 76.2716 204.721 75.7132C203.671 75.0476 202.836 74.2536 202.215 73.331C201.615 72.3442 201.252 71.3469 201.124 70.339C200.996 69.3097 201.019 68.2913 201.191 67.2838C201.385 66.2762 201.718 65.3224 202.191 64.4223C202.685 63.5222 203.296 62.7187 204.026 62.0119C204.756 61.2835 205.582 60.7054 206.504 60.2774C207.426 59.828 208.456 59.6252 209.592 59.6691C210.75 59.6916 211.897 60.0035 213.033 60.6049C214.533 61.3996 215.657 62.5155 216.406 63.9528C216.77 64.6178 216.984 65.4327 217.047 66.3976L217.111 67.3304C217.111 67.6305 217.121 67.8664 217.142 68.0379C217.206 68.4239 217.153 68.7884 216.981 69.1313C216.83 69.4742 216.583 69.742 216.24 69.9346C215.875 70.213 215.468 70.3306 215.018 70.2873C211.545 70.0912 208.21 70.0667 205.016 70.2139C205.272 71.1575 205.84 71.8978 206.718 72.4346C207.233 72.7352 207.865 72.9609 208.615 73.1117C209.387 73.2411 210.019 73.2309 210.513 73.0813C210.706 73.0171 210.963 72.8565 211.285 72.5995L211.961 72.0534C212.24 71.7964 212.508 71.5822 212.765 71.4109C213.195 71.1111 213.666 71.0151 214.181 71.1227C214.717 71.2304 215.135 71.5095 215.434 71.9601C215.734 72.3892 215.83 72.861 215.723 73.3754C215.615 73.8899 215.346 74.3078 214.917 74.629C214.789 74.7147 214.617 74.8431 214.402 75.0145L213.694 75.6249C212.943 76.1817 212.236 76.5563 211.571 76.7486C210.434 77.0478 209.255 77.0896 208.033 76.8741ZM205.534 66.3229C208.021 66.2393 210.562 66.2416 213.156 66.3298C213.135 66.051 213.092 65.858 213.028 65.7507C212.621 64.9999 212.021 64.4098 211.228 63.9802C210.135 63.4218 209.085 63.3565 208.077 63.7844C207.069 64.1909 206.243 64.9942 205.598 66.1943L205.534 66.3229ZM232.579 76.4782C231.7 76.0915 230.854 75.351 230.04 74.2568L229.269 73.1948C229.012 72.8515 228.798 72.5833 228.626 72.3901C228.284 71.9825 228.123 71.5106 228.145 70.9746C228.167 70.4172 228.371 69.9671 228.758 69.6244C229.144 69.2602 229.616 69.0891 230.173 69.1111C230.731 69.133 231.181 69.3479 231.523 69.7555C231.802 70.0345 232.112 70.4207 232.455 70.9142L233.194 71.9119C233.601 72.4911 233.965 72.8453 234.286 72.9742C234.522 73.0816 235.155 72.9321 236.184 72.5257C237.364 72.055 238.094 71.198 238.374 69.9547C236.98 69.9963 235.554 70.0594 234.096 70.1438C233.56 70.1862 233.088 70.0357 232.681 69.6923C232.274 69.3488 232.049 68.9091 232.007 68.373C231.965 67.8155 232.115 67.3333 232.459 66.9262C232.802 66.5191 233.242 66.2944 233.778 66.252C235.386 66.1248 236.694 66.0509 237.702 66.0304C237.145 64.9793 236.428 64.2818 235.549 63.938C234.67 63.5727 233.727 63.604 232.719 64.0319C232.525 64.096 232.289 64.2888 232.01 64.6102L231.431 65.2207C231.173 65.5206 230.937 65.7563 230.723 65.9276C230.315 66.3132 229.843 66.495 229.307 66.4731C228.771 66.4297 228.31 66.2149 227.925 65.8286C227.561 65.4209 227.39 64.949 227.412 64.413C227.455 63.8556 227.68 63.4055 228.088 63.0629C228.217 62.9343 228.378 62.7629 228.571 62.5487L229.151 61.8738C229.816 61.2312 230.47 60.7601 231.114 60.4605C232.379 59.9256 233.559 59.6801 234.652 59.724C235.746 59.7679 236.753 60.069 237.674 60.6273C238.617 61.1642 239.41 61.8295 240.053 62.6234C240.717 63.4174 241.241 64.2862 241.626 65.2299C242.011 66.1737 242.235 67.1709 242.299 68.2216C242.384 69.2508 242.297 70.2799 242.039 71.3088C241.802 72.3378 241.308 73.2915 240.557 74.1699C239.805 75.0268 238.84 75.6799 237.66 76.1291C235.558 76.9848 233.864 77.1012 232.579 76.4782ZM252.324 74.9846C252.324 75.5206 252.119 75.9921 251.712 76.3991C251.325 76.7847 250.854 76.9665 250.296 76.9446C249.76 76.9441 249.289 76.7507 248.882 76.3644C248.496 75.9567 248.314 75.4741 248.336 74.9166C248.383 70.8643 248.375 67.1979 248.314 63.9174C246.599 63.9158 245.462 63.9041 244.905 63.8821C244.369 63.8817 243.897 63.6883 243.49 63.302C243.105 62.8942 242.912 62.4224 242.913 61.8863C242.935 61.3289 243.139 60.8574 243.525 60.4718C243.933 60.0648 244.415 59.8722 244.973 59.8942C251.148 59.9427 254.825 59.9675 256.004 59.9685C256.562 59.9476 257.033 60.141 257.419 60.5487C257.826 60.935 258.029 61.4069 258.028 61.9644C258.049 62.5004 257.856 62.9719 257.448 63.3789C257.062 63.7645 256.601 63.9571 256.065 63.9566C255.7 63.9777 254.457 63.9873 252.334 63.9854C252.374 67.2873 252.371 70.9537 252.324 74.9846ZM266.988 76.7346C265.894 77.0766 264.875 77.14 263.932 76.9248C262.989 76.6881 262.142 76.2692 261.392 75.6682C260.664 75.0672 260.064 74.3698 259.593 73.5761C259.144 72.7609 258.866 71.9352 258.759 71.0989C258.546 69.512 258.634 67.9469 259.021 66.4035C259.43 64.8387 260.117 63.4993 261.083 62.3852C262.156 61.0998 263.475 60.2862 265.041 59.9446C266.606 59.5815 268.375 59.7761 270.347 60.5283C271.011 60.7862 271.719 61.2371 272.468 61.881C272.554 61.9883 272.683 62.117 272.854 62.2673L273.368 62.718C273.518 62.8468 273.668 62.9648 273.818 63.0722C274.247 63.3942 274.493 63.8339 274.557 64.3915C274.642 64.9276 274.524 65.4099 274.202 65.8384C273.944 66.1598 273.611 66.3846 273.204 66.5129L273.236 66.5451C273.407 66.9312 273.503 67.4351 273.524 68.0569C273.545 68.3142 273.545 68.5608 273.524 68.7966C273.523 69.0111 273.523 69.1397 273.523 69.1826C273.523 69.2255 273.534 69.3005 273.555 69.4077C273.705 70.0725 273.865 70.8338 274.035 71.6916C274.078 71.949 274.11 72.1098 274.132 72.1741C274.174 72.2385 274.228 72.3029 274.292 72.3673L275.674 73.7193C276.081 74.127 276.273 74.6096 276.251 75.1671C276.251 75.7031 276.047 76.1639 275.639 76.5495C275.253 76.935 274.792 77.1169 274.256 77.095C273.72 77.0945 273.259 76.9011 272.873 76.5148L271.524 75.195C271.052 74.7228 270.72 74.2937 270.528 73.9076L270.496 73.8111C270.474 73.8539 270.388 73.9718 270.238 74.1646L269.884 74.6146L269.433 75.0966C269.262 75.2894 269.09 75.4608 268.918 75.6107L268.339 76.0283C268.124 76.1781 267.899 76.3173 267.663 76.4457C267.449 76.5528 267.223 76.649 266.988 76.7346ZM265.704 73.0027C265.79 72.9813 265.876 72.9492 265.962 72.9064C266.048 72.8422 266.123 72.7887 266.187 72.7458C266.252 72.6816 266.337 72.5852 266.445 72.4566C266.552 72.3281 266.649 72.221 266.734 72.1353C266.82 72.0496 266.96 71.8996 267.153 71.6854L267.572 71.139C267.722 70.9676 267.926 70.5712 268.184 69.9496C268.205 69.8853 268.216 69.8103 268.216 69.7245C268.238 69.6388 268.248 69.4887 268.249 69.2743C268.27 69.0384 268.303 68.7812 268.346 68.5025C268.497 67.0232 269.098 66.0267 270.15 65.5131C270.235 65.4703 270.321 65.4382 270.407 65.4169L269.893 64.9018C269.464 64.5369 269.111 64.3008 268.832 64.1933C266.817 63.3553 265.241 63.6111 264.104 64.9609C263.524 65.6036 263.105 66.4394 262.847 67.4683C262.589 68.4758 262.534 69.5264 262.683 70.62C262.79 71.4134 263.175 72.057 263.84 72.5507C264.504 73.0445 265.125 73.1951 265.704 73.0027ZM278.537 75.0727C278.516 74.2579 278.496 73.1751 278.475 71.8243C278.455 70.4735 278.445 69.5837 278.446 69.1549C278.405 66.7106 278.3 64.6736 278.13 63.0439C278.108 62.7437 278.141 62.465 278.227 62.2078C278.205 62.1006 278.195 61.9934 278.195 61.8862C278.174 61.3287 278.357 60.8572 278.743 60.4716C279.129 60.0645 279.601 59.8613 280.159 59.8618C280.223 59.8618 280.823 59.841 281.96 59.7991C283.096 59.7572 284.082 59.726 284.919 59.7053C286.162 59.685 287.181 59.6859 287.974 59.7081C288.467 59.7085 288.874 59.7303 289.196 59.7735C289.711 59.8169 290.118 59.8923 290.418 59.9997C291.618 60.494 292.528 61.5776 293.149 63.2505C293.277 63.5508 293.352 63.9797 293.373 64.5372C293.394 64.9017 293.404 65.3734 293.404 65.9523C293.403 66.8528 293.38 68.0535 293.336 69.5543C293.314 70.2619 293.281 71.0123 293.237 71.8055C293.194 72.5988 293.15 73.2849 293.107 73.8638C293.085 74.4426 293.074 74.8393 293.074 75.0537C293.073 75.5897 292.869 76.0612 292.461 76.4682C292.075 76.8538 291.603 77.0356 291.046 77.0137C290.51 77.0132 290.038 76.8198 289.631 76.4335C289.246 76.0258 289.064 75.5432 289.086 74.9858C289.086 74.7928 289.097 74.3961 289.119 73.7958C289.141 73.1955 289.174 72.488 289.217 71.6732C289.261 70.8585 289.294 70.0974 289.316 69.3899C289.36 67.9319 289.383 66.7849 289.383 65.9487L289.385 64.7587C289.363 64.6729 289.352 64.5979 289.353 64.5335C289.203 64.1689 289.064 63.9115 288.935 63.7613L288.839 63.7612C288.603 63.7395 288.281 63.7178 287.874 63.696C287.145 63.6953 286.18 63.7052 284.979 63.7255C284.207 63.7463 283.285 63.7669 282.213 63.7873C282.341 65.2883 282.425 67.0573 282.466 69.0942C282.465 69.5445 282.465 70.4343 282.463 71.7636C282.484 73.093 282.504 74.1543 282.525 74.9476C282.546 75.5051 282.363 75.9874 281.977 76.3944C281.612 76.8015 281.151 77.0047 280.593 77.0042C280.036 77.0252 279.554 76.8532 279.147 76.4883C278.74 76.102 278.536 75.6301 278.537 75.0727ZM299.886 76.9252C299.328 76.9676 298.846 76.8064 298.439 76.4415C298.032 76.0766 297.807 75.6155 297.765 75.058C297.575 72.2276 297.332 67.8212 297.037 61.8389C296.995 61.2814 297.156 60.7992 297.521 60.3921C297.907 59.9851 298.379 59.7711 298.937 59.7502C299.494 59.7078 299.977 59.8798 300.384 60.2661C300.791 60.6309 301.005 61.0921 301.026 61.6496L301.247 65.5092C302.148 65.3385 302.877 65.2212 303.434 65.1574C305.279 64.9232 306.758 64.9889 307.873 65.3544C309.223 65.8059 310.316 66.5037 311.151 67.4478C312.008 68.392 312.436 69.4859 312.435 70.7295C312.455 71.9516 312.057 73.0662 311.242 74.0732C310.447 75.0587 309.375 75.8404 308.023 76.418C307.509 76.632 306.972 76.803 306.415 76.9312C305.879 77.0379 305.278 77.0909 304.614 77.0903C303.97 77.0898 303.488 77.0786 303.166 77.0569C302.845 77.0566 302.309 77.0239 301.558 76.9589C300.829 76.8939 300.433 76.8507 300.369 76.8292C300.218 76.8934 300.058 76.9254 299.886 76.9252ZM301.626 72.9388C302.57 73.0469 303.459 73.1013 304.296 73.102C305.132 73.0813 305.861 72.9426 306.483 72.6859C306.998 72.472 307.405 72.2258 307.706 71.9473C308.028 71.6689 308.221 71.4439 308.285 71.2724C308.371 71.0796 308.414 70.9188 308.414 70.7901C308.414 70.6401 308.382 70.4899 308.318 70.3398C308.254 70.1897 308.072 69.9965 307.772 69.7604C307.472 69.5243 307.076 69.3202 306.583 69.1483C306.068 68.9763 305.189 68.9755 303.945 69.1459C303.366 69.2097 302.53 69.3483 301.436 69.5617L301.626 72.9388ZM313.042 74.911C313.048 68.5002 313.105 64.137 313.215 61.8215C313.236 61.264 313.451 60.8032 313.859 60.4391C314.267 60.0535 314.749 59.8825 315.307 59.9258C315.864 59.9478 316.325 60.1626 316.689 60.5703C317.075 60.978 317.246 61.4606 317.202 62.0181C317.093 64.0334 317.036 68.3323 317.03 74.9146C317.029 75.4721 316.836 75.9436 316.45 76.3292C316.063 76.7148 315.592 76.9073 315.034 76.9068C314.477 76.9063 314.005 76.7129 313.619 76.3266C313.234 75.9403 313.041 75.4685 313.042 74.911ZM320.823 82.9263C320.244 82.9257 319.762 82.743 319.376 82.3782C318.991 82.0134 318.798 81.5415 318.799 80.9626C318.799 80.5552 318.874 80.2015 319.025 79.9015C319.111 79.73 319.282 79.4514 319.54 79.0657C319.884 78.5086 320.12 78.0907 320.249 77.8121C320.421 77.4263 320.56 76.9654 320.668 76.4295C320.754 76.0437 320.829 75.7543 320.894 75.5614C321.044 75.1112 321.281 74.7577 321.602 74.5007C321.946 74.2223 322.353 74.0833 322.825 74.0837C323.425 74.0842 323.929 74.2884 324.336 74.6961C324.764 75.0824 324.978 75.5865 324.978 76.2083C324.977 76.5728 324.891 77.0658 324.719 77.6875C324.569 78.3091 324.397 78.845 324.203 79.2951C323.881 80.0452 323.462 80.8167 322.947 81.6096C322.646 82.0596 322.324 82.3916 321.981 82.6057C321.659 82.8198 321.273 82.9267 320.823 82.9263ZM43.1841 105.663C42.9478 106.156 42.5722 106.499 42.0575 106.691C41.5427 106.884 41.0282 106.873 40.5138 106.658C40.0208 106.421 39.6781 106.046 39.4856 105.531C39.2931 105.016 39.3043 104.502 39.5192 103.987C39.884 103.623 40.2813 102.927 40.7111 101.898C41.0549 100.998 41.3449 100.376 41.5811 100.033L41.6455 99.9371C40.7028 99.2072 40.0926 98.2633 39.8149 97.1052C39.6013 96.183 39.6558 95.2611 39.9782 94.3395C40.3007 93.3964 40.7517 92.5927 41.3312 91.9286C42.7477 90.3432 44.9032 89.5733 47.7977 89.6188C48.4195 89.6408 49.0627 89.695 49.7272 89.7814C50.3919 89.8463 51.1422 89.9542 51.9783 90.105C52.8143 90.2344 53.2645 90.2992 53.3289 90.2992C54.0363 90.4071 54.5398 90.7828 54.8394 91.4263C55.075 91.7695 55.1818 92.1448 55.16 92.5522C55.1592 93.4527 55.0607 95.6396 54.8646 99.1129C54.7121 101.814 54.646 103.69 54.6665 104.741C54.6875 105.298 54.5048 105.781 54.1185 106.188C53.7322 106.573 53.2603 106.766 52.7029 106.765C52.1454 106.786 51.6631 106.604 51.2561 106.217C50.8705 105.831 50.678 105.359 50.6785 104.802C50.6577 104.094 50.6801 103.033 50.7457 101.618C49.1161 101.638 47.9476 101.626 47.2401 101.582C46.8111 101.775 46.3285 101.967 45.7923 102.16C45.2776 102.352 44.9773 102.459 44.8915 102.481L44.7628 102.545L43.1841 105.663ZM50.9423 97.5977C51.0294 96.0969 51.0948 94.907 51.1385 94.028C49.7022 93.7908 48.5659 93.6611 47.7297 93.6389C46.0574 93.5945 44.9315 93.9044 44.3519 94.5686C44.0944 94.8471 43.9119 95.1471 43.8044 95.4686C43.7184 95.7687 43.6967 96.0152 43.7394 96.2082C43.8675 96.8087 44.6604 97.2275 46.1182 97.4647C46.5041 97.5079 46.9329 97.5512 47.4045 97.5945C47.8977 97.6164 48.2943 97.6275 48.5945 97.6277C48.9161 97.628 49.3449 97.6284 49.8809 97.6289C50.4384 97.608 50.7922 97.5976 50.9423 97.5977ZM67.8101 104.914C67.6408 102.426 67.559 98.063 67.5647 91.8237C67.5649 91.5664 67.608 91.3199 67.694 91.0841C67.8016 90.6554 68.0377 90.3126 68.4025 90.0556C68.7672 89.7772 69.1747 89.6382 69.625 89.6386L76.1216 89.6445C76.6791 89.645 77.1506 89.8384 77.5362 90.2247C77.9218 90.611 78.1143 91.0829 78.1138 91.6403C78.1133 92.1978 77.9199 92.6693 77.5336 93.0549C77.1473 93.4405 76.6754 93.633 76.118 93.6325L71.5511 93.6284C71.5466 98.5598 71.629 102.237 71.7983 104.66C71.8407 105.217 71.6795 105.71 71.3146 106.139C70.9497 106.546 70.4885 106.76 69.9311 106.781C69.3735 106.823 68.8806 106.662 68.4521 106.297C68.045 105.932 67.831 105.471 67.8101 104.914ZM83.0791 105.86C81.729 105.109 80.7116 104.014 80.0268 102.577C79.342 101.14 79.0003 99.6172 79.0017 98.0091C79.0032 96.4225 79.3369 94.9112 80.0029 93.4753C80.6903 92.0393 81.7097 90.936 83.0612 90.1654C83.7048 89.8015 84.5304 89.5878 85.5382 89.5244C85.8601 89.2031 86.2462 89.0105 86.6965 88.9466C87.1683 88.8827 87.6078 88.9796 88.0149 89.2372C88.5292 89.5807 89.2899 90.0317 90.2971 90.5901C91.1543 91.084 91.7865 91.4919 92.1935 91.8139C92.8362 92.3934 93.318 93.08 93.6389 93.8736C93.9813 94.6672 94.2484 95.6966 94.4402 96.9618C94.6532 98.4628 94.5232 99.9422 94.0502 101.4C93.5772 102.857 92.8149 104.068 91.7635 105.032C90.6261 106.081 89.307 106.691 87.8059 106.861C86.3049 107.032 84.7293 106.698 83.0791 105.86ZM84.9798 102.388C86.5656 103.269 87.9272 103.184 89.0645 102.135C89.6225 101.621 90.0412 100.957 90.3206 100.142C90.6001 99.3061 90.6652 98.4271 90.516 97.505C90.3029 96.0253 89.9928 95.1245 89.5858 94.8026C89.3929 94.6309 88.9965 94.3732 88.3965 94.0296L87.2393 93.3853C87.0677 93.4066 86.864 93.4172 86.6282 93.4169L86.2744 93.4166C86.06 93.4164 85.8992 93.427 85.7919 93.4483C85.406 93.4694 85.1487 93.5121 85.0199 93.5763C84.3978 93.9402 83.8934 94.5187 83.5068 95.3116C83.1416 96.1046 82.9585 97.0157 82.9576 98.0449C82.9567 99.0526 83.1381 99.9533 83.5019 100.747C83.8657 101.519 84.3583 102.066 84.9798 102.388ZM104.54 104.85C104.539 105.387 104.335 105.858 103.927 106.265C103.541 106.651 103.069 106.832 102.512 106.811C101.976 106.81 101.504 106.617 101.097 106.23C100.712 105.823 100.53 105.34 100.552 104.783C100.598 100.73 100.591 97.0638 100.53 93.7833C98.8143 93.7818 97.678 93.77 97.1205 93.7481C96.5845 93.7476 96.113 93.5542 95.7059 93.1679C95.3204 92.7602 95.1278 92.2883 95.1283 91.7523C95.1503 91.1948 95.3544 90.7233 95.7407 90.3377C96.1484 89.9307 96.631 89.7382 97.1885 89.7601C103.363 89.8086 107.041 89.8334 108.22 89.8345C108.777 89.8135 109.249 90.0069 109.634 90.4146C110.041 90.8009 110.245 91.2728 110.244 91.8303C110.265 92.3663 110.072 92.8379 109.664 93.2449C109.278 93.6305 108.816 93.823 108.28 93.8225C107.916 93.8436 106.672 93.8532 104.55 93.8513C104.59 97.1532 104.586 100.82 104.54 104.85ZM114.926 105.889C113.576 105.137 112.559 104.043 111.874 102.606C111.189 101.169 110.848 99.6461 110.849 98.038C110.85 96.4514 111.184 94.9401 111.85 93.5041C112.538 92.0682 113.557 90.9649 114.909 90.1943C115.552 89.8304 116.378 89.6167 117.386 89.5533C117.707 89.232 118.094 89.0394 118.544 88.9755C119.016 88.9116 119.455 89.0084 119.862 89.2661C120.376 89.6096 121.137 90.0606 122.144 90.619C123.002 91.1129 123.634 91.5208 124.041 91.8428C124.684 92.4223 125.165 93.1088 125.486 93.9025C125.829 94.6961 126.096 95.7255 126.287 96.9907C126.501 98.4917 126.371 99.971 125.898 101.429C125.424 102.886 124.662 104.097 123.611 105.061C122.473 106.11 121.154 106.72 119.653 106.89C118.152 107.061 116.577 106.727 114.926 105.889ZM116.827 102.417C118.413 103.298 119.775 103.213 120.912 102.164C121.47 101.65 121.888 100.985 122.168 100.171C122.447 99.335 122.513 98.456 122.363 97.5339C122.15 96.0542 121.84 95.1534 121.433 94.8315C121.24 94.6598 120.844 94.4021 120.244 94.0585L119.087 93.4142C118.915 93.4355 118.711 93.446 118.475 93.4458L118.122 93.4455C117.907 93.4453 117.746 93.4559 117.639 93.4772C117.253 93.4983 116.996 93.541 116.867 93.6052C116.245 93.9691 115.741 94.5476 115.354 95.3405C114.989 96.1335 114.806 97.0446 114.805 98.0737C114.804 99.0815 114.985 99.9822 115.349 100.776C115.713 101.548 116.206 102.095 116.827 102.417ZM132.835 107.546C132.299 107.652 131.806 107.545 131.356 107.223C130.906 106.922 130.627 106.514 130.521 106L130.457 105.614C130.328 105.356 130.275 105.088 130.297 104.81L130.297 104.745C129.891 102.258 129.552 98.2694 129.278 92.7802C129.214 92.6301 129.161 92.48 129.118 92.3298C129.075 91.9867 129.108 91.6652 129.215 91.3651C129.28 90.872 129.484 90.4648 129.827 90.1435C130.171 89.8222 130.589 89.6511 131.082 89.6301C131.447 89.609 131.79 89.6843 132.111 89.8561C133.827 89.6004 135.306 89.4731 136.55 89.4742C137.965 89.4969 139.165 89.691 140.151 90.0564C141.673 90.5938 142.648 91.5381 143.075 92.8892C143.61 94.5192 143.319 95.977 142.203 97.2624L141.913 97.5194C142.685 98.0562 143.274 98.6678 143.681 99.3542C144.151 100.32 144.279 101.274 144.064 102.217C143.87 103.16 143.355 104.05 142.518 104.885C141.337 106.085 139.482 106.758 136.952 106.906C136.18 106.948 135.29 106.947 134.283 106.904L133.961 106.903C133.661 107.246 133.285 107.46 132.835 107.546ZM136.763 102.982C138.264 102.898 139.229 102.62 139.658 102.149C140.087 101.742 140.27 101.452 140.205 101.281C139.991 100.895 139.424 100.54 138.502 100.218C137.966 100.024 137.087 99.9915 135.865 100.119C135.307 100.183 134.6 100.289 133.742 100.439C133.827 101.318 133.922 102.154 134.029 102.948L134.479 102.948C135.38 102.992 136.141 103.003 136.763 102.982ZM133.392 96.2252C135.172 96.0553 136.587 95.7886 137.638 95.4251C138.453 95.19 139 94.9117 139.279 94.5904C139.365 94.4832 139.376 94.3117 139.311 94.0758C139.312 93.9686 139.14 93.8612 138.797 93.7537C138.261 93.5388 137.5 93.4309 136.514 93.43C135.592 93.4292 134.509 93.514 133.265 93.6844C133.329 94.7565 133.371 95.6034 133.392 96.2252ZM158.709 105.929C157.359 105.177 156.341 104.083 155.656 102.646C154.971 101.208 154.63 99.6858 154.631 98.0777C154.633 96.4911 154.966 94.9798 155.632 93.5439C156.32 92.108 157.339 91.0047 158.691 90.234C159.334 89.8701 160.16 89.6564 161.168 89.593C161.49 89.2717 161.876 89.0791 162.326 89.0152C162.798 88.9513 163.237 89.0482 163.644 89.3058C164.159 89.6494 164.919 90.1003 165.927 90.6587C166.784 91.1526 167.416 91.5606 167.823 91.8825C168.466 92.462 168.948 93.1486 169.268 93.9422C169.611 94.7358 169.878 95.7652 170.07 97.0304C170.283 98.5315 170.153 100.011 169.68 101.468C169.207 102.926 168.444 104.137 167.393 105.1C166.256 106.15 164.936 106.76 163.435 106.93C161.934 107.1 160.359 106.766 158.709 105.929ZM160.609 102.457C162.195 103.338 163.557 103.253 164.694 102.204C165.252 101.689 165.671 101.025 165.95 100.211C166.23 99.3747 166.295 98.4957 166.145 97.5736C165.932 96.094 165.622 95.1932 165.215 94.8712C165.022 94.6995 164.626 94.4418 164.026 94.0982L162.869 93.454C162.697 93.4752 162.494 93.4858 162.258 93.4856L161.904 93.4852C161.689 93.485 161.529 93.4956 161.421 93.517C161.035 93.5381 160.778 93.5807 160.649 93.6449C160.027 94.0088 159.523 94.5873 159.136 95.3802C158.771 96.1732 158.588 97.0843 158.587 98.1135C158.586 99.1212 158.768 100.022 159.131 100.816C159.495 101.588 159.988 102.135 160.609 102.457ZM180.169 104.919C180.169 105.455 179.965 105.927 179.557 106.334C179.171 106.719 178.699 106.901 178.141 106.879C177.605 106.879 177.134 106.685 176.727 106.299C176.341 105.891 176.159 105.409 176.181 104.851C176.228 100.799 176.22 97.1325 176.159 93.8519C174.444 93.8504 173.307 93.8386 172.75 93.8167C172.214 93.8162 171.742 93.6228 171.335 93.2365C170.95 92.8288 170.757 92.3569 170.758 91.8209C170.78 91.2634 170.984 90.7919 171.37 90.4063C171.778 89.9993 172.261 89.8068 172.818 89.8287C178.993 89.8772 182.67 89.902 183.849 89.9031C184.407 89.8821 184.878 90.0755 185.264 90.4833C185.671 90.8696 185.874 91.3414 185.874 91.8989C185.895 92.435 185.701 92.9065 185.293 93.3135C184.907 93.6991 184.446 93.8916 183.91 93.8911C183.545 93.9122 182.302 93.9218 180.179 93.9199C180.219 97.2219 180.216 100.888 180.169 104.919ZM200.896 110.341C200.896 110.041 200.918 109.666 200.961 109.215L200.994 108.862C201.015 108.647 201.026 108.476 201.026 108.347C201.07 107.875 201.059 107.543 200.995 107.35C200.952 107.2 200.802 107.082 200.545 106.996C200.395 106.953 200.127 106.942 199.741 106.963C199.677 106.984 199.602 106.995 199.516 106.995C199.43 106.995 199.334 106.995 199.227 106.995C199.141 107.016 199.066 107.037 199.001 107.059C198.615 107.08 198.283 107.09 198.004 107.09L189.996 107.083L189.93 109.045C189.93 109.581 189.725 110.041 189.318 110.427C188.91 110.813 188.427 110.994 187.87 110.972C187.334 110.972 186.873 110.768 186.488 110.36C186.102 109.952 185.92 109.47 185.942 108.912L186.042 105.214C186.042 104.785 186.171 104.399 186.429 104.056C186.751 103.521 187.234 103.2 187.877 103.093C189.832 99.171 190.897 95.3447 191.071 91.6142C191.093 91.0782 191.308 90.6281 191.716 90.264C192.124 89.8784 192.606 89.6966 193.164 89.7186C193.292 89.7187 193.432 89.7402 193.582 89.7833C193.603 89.7833 193.85 89.7728 194.321 89.7518C194.793 89.7307 195.319 89.7098 195.897 89.6889C196.476 89.668 197.023 89.6577 197.538 89.6582C198.567 89.6162 199.382 89.5955 199.982 89.5961C200.347 89.5964 200.636 89.6074 200.85 89.629L201.236 89.6294C201.322 89.6509 201.408 89.6617 201.494 89.6618C201.751 89.7263 201.987 89.823 202.201 89.9519C202.394 90.0807 202.554 90.2309 202.683 90.4026C202.833 90.5742 202.929 90.7137 202.972 90.8209L203.036 90.9818C203.079 91.089 203.1 91.1963 203.1 91.3035C203.121 91.3893 203.132 91.4643 203.132 91.5286C203.153 91.593 203.164 91.668 203.164 91.7538L203.164 92.1076C203.142 92.3648 203.131 92.7508 203.131 93.2653C203.109 93.5869 203.087 94.1551 203.065 94.9698C203.042 95.7846 203.021 96.3099 202.999 96.5457C202.91 100.083 202.876 102.474 202.896 103.718C203.839 104.319 204.471 105.102 204.791 106.067C205.026 106.796 205.111 107.665 205.046 108.672L204.949 109.605C204.906 109.927 204.884 110.173 204.884 110.345C204.883 110.902 204.69 111.374 204.304 111.759C203.917 112.145 203.446 112.337 202.888 112.337C202.331 112.336 201.859 112.143 201.473 111.757C201.088 111.37 200.895 110.898 200.896 110.341ZM198.008 103.102C198.158 103.102 198.362 103.081 198.619 103.038L198.876 103.039C198.878 101.602 198.923 99.3936 199.011 96.4134L199.11 93.6155C198.681 93.6365 198.188 93.6468 197.631 93.6463C196.859 93.667 195.958 93.6984 194.929 93.7403C194.605 96.7632 193.733 99.8821 192.315 103.097L198.008 103.102ZM214.054 106.687C212.96 107.029 211.942 107.092 210.999 106.877C210.056 106.64 209.209 106.221 208.459 105.62C207.731 105.019 207.131 104.322 206.66 103.528C206.21 102.713 205.932 101.887 205.826 101.051C205.613 99.464 205.7 97.8989 206.088 96.3555C206.496 94.7907 207.184 93.4513 208.15 92.3372C209.223 91.0517 210.542 90.2382 212.108 89.8965C213.673 89.5335 215.442 89.728 217.414 90.4803C218.078 90.7382 218.785 91.1891 219.535 91.833C219.621 91.9403 219.749 92.069 219.921 92.2193L220.435 92.67C220.585 92.7988 220.735 92.9168 220.885 93.0242C221.313 93.3462 221.56 93.7859 221.623 94.3435C221.709 94.8796 221.59 95.3619 221.268 95.7904C221.011 96.1118 220.678 96.3366 220.271 96.4649L220.303 96.4971C220.474 96.8832 220.57 97.3871 220.591 98.0089C220.612 98.2662 220.612 98.5128 220.59 98.7486C220.59 98.963 220.59 99.0917 220.59 99.1346C220.59 99.1774 220.6 99.2525 220.622 99.3597C220.771 100.025 220.931 100.786 221.102 101.644C221.145 101.901 221.177 102.062 221.198 102.126C221.241 102.19 221.295 102.255 221.359 102.319L222.741 103.671C223.148 104.079 223.34 104.562 223.318 105.119C223.318 105.655 223.114 106.116 222.706 106.501C222.32 106.887 221.858 107.069 221.322 107.047C220.786 107.046 220.326 106.853 219.94 106.467L218.59 105.147C218.119 104.675 217.787 104.246 217.595 103.86L217.562 103.763C217.541 103.806 217.455 103.924 217.305 104.117L216.951 104.567L216.5 105.049C216.328 105.241 216.157 105.413 215.985 105.563L215.406 105.98C215.191 106.13 214.966 106.269 214.73 106.398C214.515 106.505 214.29 106.601 214.054 106.687ZM212.771 102.955C212.857 102.933 212.943 102.901 213.029 102.858C213.114 102.794 213.189 102.741 213.254 102.698C213.318 102.634 213.404 102.537 213.511 102.409C213.619 102.28 213.715 102.173 213.801 102.087C213.887 102.002 214.026 101.852 214.22 101.637L214.638 101.091C214.788 100.92 214.992 100.523 215.25 99.9016C215.272 99.8373 215.283 99.7623 215.283 99.6765C215.304 99.5908 215.315 99.4407 215.315 99.2263C215.337 98.9904 215.369 98.7332 215.412 98.4545C215.564 96.9752 216.165 95.9787 217.216 95.4651C217.302 95.4223 217.388 95.3902 217.474 95.3689L216.959 94.8538C216.531 94.4889 216.177 94.2527 215.899 94.1453C213.884 93.3073 212.308 93.5631 211.17 94.9129C210.591 95.5556 210.172 96.3914 209.914 97.4203C209.656 98.4278 209.601 99.4784 209.75 100.572C209.857 101.365 210.242 102.009 210.906 102.503C211.57 102.996 212.192 103.147 212.771 102.955ZM232.84 104.967C232.839 105.503 232.635 105.974 232.227 106.381C231.841 106.767 231.369 106.949 230.812 106.927C230.276 106.926 229.804 106.733 229.397 106.347C229.012 105.939 228.83 105.456 228.852 104.899C228.898 100.847 228.891 97.1803 228.83 93.8997C227.114 93.8982 225.978 93.8864 225.421 93.8645C224.885 93.864 224.413 93.6706 224.006 93.2843C223.62 92.8766 223.428 92.4047 223.428 91.8687C223.45 91.3112 223.654 90.8397 224.041 90.4541C224.448 90.0471 224.931 89.8546 225.489 89.8765C231.663 89.925 235.341 89.9498 236.52 89.9509C237.077 89.9299 237.549 90.1233 237.934 90.531C238.341 90.9174 238.545 91.3892 238.544 91.9467C238.565 92.4827 238.372 92.9543 237.964 93.3613C237.578 93.7469 237.117 93.9394 236.581 93.9389C236.216 93.96 234.972 93.9696 232.85 93.9677C232.89 97.2696 232.886 100.936 232.84 104.967ZM243.02 107.195C242.463 107.216 241.981 107.034 241.574 106.647C241.188 106.261 240.995 105.789 240.996 105.232C240.955 103.559 240.86 101.19 240.713 98.1237C240.587 95.036 240.514 92.9455 240.494 91.852C240.473 91.2945 240.645 90.8122 241.009 90.4052C241.396 89.9982 241.868 89.7949 242.425 89.7954C242.983 89.7745 243.465 89.9572 243.872 90.3435C244.279 90.7083 244.482 91.1695 244.482 91.727L244.639 95.7794C245.411 95.7158 246.086 95.6628 246.665 95.6205C247.566 95.557 248.338 95.5469 248.981 95.5904C249.967 95.6342 250.739 95.8171 251.296 96.1393C252.067 96.5473 252.721 97.1375 253.256 97.9099C253.791 98.6823 254.134 99.4973 254.283 100.355C254.582 102.285 254.162 103.839 253.025 105.017C252.145 105.917 250.901 106.484 249.292 106.719C248.027 106.932 246.365 106.93 244.307 106.714C243.942 107.035 243.514 107.196 243.02 107.195ZM244.922 102.759C246.53 102.91 247.784 102.911 248.685 102.762C249.414 102.656 249.907 102.474 250.165 102.217C250.358 102.002 250.401 101.595 250.294 100.995C250.209 100.416 249.909 99.9652 249.395 99.6431L249.331 99.6431C249.288 99.643 249.213 99.6322 249.106 99.6107C249.02 99.5892 248.913 99.5784 248.784 99.5782C248.291 99.5564 247.669 99.5665 246.919 99.6087C246.318 99.6511 245.622 99.7147 244.828 99.7998C244.87 100.915 244.901 101.901 244.922 102.759ZM273.167 105.003C273.167 105.54 272.963 106.011 272.555 106.418C272.169 106.804 271.697 106.985 271.139 106.963C270.603 106.963 270.132 106.77 269.725 106.383C269.339 105.976 269.157 105.493 269.179 104.936C269.226 100.883 269.218 97.2168 269.157 93.9363C267.442 93.9348 266.305 93.923 265.748 93.9011C265.212 93.9006 264.74 93.7072 264.333 93.3209C263.948 92.9131 263.755 92.4413 263.756 91.9053C263.778 91.3478 263.982 90.8763 264.368 90.4907C264.776 90.0837 265.258 89.8912 265.816 89.9131C271.991 89.9616 275.668 89.9864 276.847 89.9874C277.405 89.9665 277.876 90.1599 278.262 90.5676C278.669 90.9539 278.872 91.4258 278.872 91.9833C278.893 92.5193 278.699 92.9909 278.291 93.3979C277.905 93.7834 277.444 93.976 276.908 93.9755C276.543 93.9966 275.3 94.0062 273.177 94.0043C273.217 97.3062 273.214 100.973 273.167 105.003ZM286.886 106.946C285.664 106.73 284.56 106.343 283.574 105.785C282.524 105.119 281.689 104.325 281.068 103.403C280.468 102.416 280.105 101.418 279.977 100.411C279.849 99.3813 279.872 98.3629 280.044 97.3553C280.238 96.3478 280.571 95.3939 281.044 94.4938C281.538 93.5938 282.149 92.7903 282.879 92.0834C283.609 91.3551 284.435 90.7769 285.357 90.3489C286.279 89.8995 287.309 89.6968 288.445 89.7407C289.603 89.7632 290.75 90.0751 291.886 90.6765C293.386 91.4712 294.51 92.5871 295.259 94.0243C295.623 94.6893 295.837 95.5043 295.9 96.4692L295.964 97.4019C295.964 97.7021 295.974 97.9379 295.995 98.1095C296.059 98.4955 296.005 98.8599 295.834 99.2028C295.683 99.5458 295.436 99.8135 295.093 100.006C294.728 100.285 294.321 100.402 293.871 100.359C290.398 100.163 287.063 100.138 283.869 100.285C284.125 101.229 284.693 101.969 285.571 102.506C286.085 102.807 286.718 103.032 287.468 103.183C288.24 103.313 288.872 103.302 289.366 103.153C289.559 103.089 289.816 102.928 290.138 102.671L290.814 102.125C291.093 101.868 291.361 101.654 291.618 101.482C292.048 101.183 292.519 101.087 293.034 101.194C293.57 101.302 293.988 101.581 294.287 102.032C294.587 102.461 294.683 102.933 294.576 103.447C294.468 103.961 294.199 104.379 293.77 104.701C293.642 104.786 293.47 104.915 293.255 105.086L292.547 105.696C291.796 106.253 291.088 106.628 290.424 106.82C289.287 107.119 288.108 107.161 286.886 106.946ZM284.387 96.3944C286.874 96.3109 289.415 96.3132 292.009 96.4013C291.988 96.1226 291.945 95.9296 291.881 95.8223C291.474 95.0715 290.874 94.4813 290.081 94.0518C288.988 93.4933 287.938 93.4281 286.93 93.856C285.922 94.2624 285.095 95.0657 284.451 96.2658L284.387 96.3944ZM307.619 106.868C305.282 107.187 303.31 106.725 301.703 105.48C300.353 104.428 299.368 102.905 298.748 100.91C298.257 99.1085 298.022 97.3395 298.045 95.6028C298.09 93.8661 298.316 92.2475 298.725 90.747C299.198 89.0322 299.789 87.7248 300.498 86.8249C301.378 85.7108 302.665 84.8436 304.359 84.2234C304.938 84.0095 305.764 83.9137 306.836 83.9361C307.372 83.9366 307.704 83.9155 307.833 83.8727C308.026 83.8086 308.273 83.6266 308.573 83.3267L309.185 82.7805C309.464 82.502 309.711 82.2771 309.925 82.1057C310.376 81.7631 310.869 81.6242 311.405 81.689C311.962 81.7538 312.412 82.0115 312.755 82.4621C313.098 82.8912 313.237 83.3845 313.172 83.9419C313.107 84.4779 312.86 84.9172 312.431 85.2598L311.916 85.7096L311.272 86.288C310.607 86.9091 309.952 87.3481 309.309 87.6048C308.687 87.8401 307.84 87.9572 306.768 87.9563C306.189 87.9343 305.835 87.9554 305.707 88.0196C304.741 88.3618 304.055 88.79 303.647 89.3042C303.454 89.5613 303.282 89.8721 303.132 90.2364C304.526 89.4873 305.909 89.1883 307.281 89.3397C308.653 89.4696 309.929 89.9746 311.107 90.8547C312.457 91.8851 313.442 93.2475 314.062 94.9419C314.683 96.6363 314.767 98.416 314.315 100.281C313.82 102.189 313.068 103.657 312.059 104.685C310.879 105.885 309.399 106.612 307.619 106.868ZM307.044 102.879C307.945 102.752 308.674 102.409 309.232 101.852C309.704 101.36 310.091 100.513 310.392 99.3125C310.672 98.2407 310.64 97.233 310.298 96.2893C309.956 95.3456 309.41 94.5946 308.66 94.0365C308.039 93.5213 307.331 93.2741 306.538 93.2948C305.766 93.3156 305.048 93.658 304.382 94.3221C304.168 94.5148 303.953 94.8684 303.738 95.3828C303.695 95.4685 303.652 95.565 303.609 95.6721C303.566 95.7793 303.512 95.8972 303.448 96.0258C303.405 96.1329 303.373 96.2294 303.351 96.3151C303.158 96.7438 302.986 97.1081 302.836 97.4081C302.685 97.6867 302.481 97.9224 302.224 98.1151C302.309 98.6941 302.427 99.2303 302.576 99.7235C302.961 100.925 303.486 101.783 304.15 102.298C304.878 102.856 305.843 103.05 307.044 102.879ZM323.633 106.979C322.411 106.763 321.307 106.376 320.321 105.818C319.271 105.153 318.436 104.358 317.815 103.436C317.215 102.449 316.852 101.452 316.724 100.444C316.596 99.4146 316.619 98.3962 316.791 97.3886C316.985 96.3811 317.318 95.4273 317.791 94.5272C318.285 93.6271 318.896 92.8236 319.626 92.1167C320.356 91.3884 321.182 90.8103 322.104 90.3823C323.026 89.9329 324.056 89.7301 325.192 89.774C326.35 89.7965 327.497 90.1084 328.632 90.7098C330.133 91.5045 331.257 92.6204 332.006 94.0577C332.37 94.7227 332.584 95.5376 332.647 96.5025L332.711 97.4353C332.711 97.7354 332.721 97.9713 332.742 98.1428C332.806 98.5288 332.752 98.8933 332.581 99.2362C332.43 99.5791 332.183 99.8469 331.84 100.04C331.475 100.318 331.068 100.435 330.618 100.392C327.144 100.196 323.81 100.172 320.616 100.319C320.872 101.262 321.439 102.003 322.318 102.539C322.832 102.84 323.465 103.066 324.215 103.217C324.987 103.346 325.619 103.336 326.113 103.186C326.306 103.122 326.563 102.961 326.885 102.704L327.561 102.158C327.84 101.901 328.108 101.687 328.365 101.516C328.794 101.216 329.266 101.12 329.781 101.228C330.317 101.335 330.734 101.614 331.034 102.065C331.334 102.494 331.43 102.966 331.322 103.48C331.215 103.995 330.946 104.413 330.517 104.734C330.389 104.82 330.217 104.948 330.002 105.119L329.294 105.73C328.543 106.287 327.835 106.661 327.171 106.854C326.034 107.153 324.855 107.194 323.633 106.979ZM321.134 96.4277C323.621 96.3442 326.162 96.3465 328.756 96.4347C328.735 96.1559 328.692 95.9629 328.628 95.8556C328.221 95.1048 327.621 94.5147 326.828 94.0851C325.735 93.5267 324.685 93.4614 323.677 93.8893C322.669 94.2958 321.842 95.099 321.198 96.2992L321.134 96.4277ZM49.204 136.441C48.5183 135.968 48.2295 135.325 48.3374 134.51L48.3376 134.317C48.1058 129.857 48.1633 125.548 48.5101 121.388C48.5535 120.831 48.779 120.381 49.1867 120.038C49.6159 119.674 50.1092 119.514 50.6666 119.557C51.224 119.601 51.6741 119.837 52.0167 120.266C52.3808 120.674 52.5412 121.156 52.4978 121.714C52.3026 124.222 52.2039 126.623 52.2018 128.917L53.683 127.021C55.7008 124.386 57.2251 122.211 58.2558 120.497C58.5994 119.94 59.0821 119.618 59.704 119.533C59.9399 119.448 60.1758 119.405 60.4116 119.405C60.9691 119.384 61.4514 119.567 61.8584 119.953C62.2654 120.318 62.4687 120.779 62.4682 121.337C62.5098 122.709 62.5186 124.928 62.4943 127.994C62.4703 130.803 62.4898 133.033 62.5526 134.684C62.5735 135.241 62.3908 135.724 62.0045 136.131C61.6397 136.538 61.1785 136.752 60.621 136.773C60.085 136.793 59.6134 136.622 59.2064 136.257C58.7993 135.87 58.5854 135.409 58.5644 134.873C58.5015 133.265 58.4824 130.746 58.5069 127.315L56.8647 129.468C53.838 133.454 52.2065 135.607 51.9704 135.928C51.6698 136.4 51.2407 136.678 50.6831 136.763C50.147 136.87 49.654 136.763 49.204 136.441ZM66.6836 134.913C66.5143 132.425 66.4325 128.062 66.4382 121.823C66.4384 121.565 66.4815 121.319 66.5675 121.083C66.6751 120.654 66.9113 120.312 67.276 120.055C67.6407 119.776 68.0483 119.637 68.4985 119.638L74.9951 119.644C75.5526 119.644 76.0241 119.837 76.4097 120.224C76.7953 120.61 76.9878 121.082 76.9873 121.639C76.9868 122.197 76.7934 122.668 76.4071 123.054C76.0208 123.439 75.549 123.632 74.9915 123.632L70.4246 123.627C70.4201 128.559 70.5025 132.236 70.6719 134.659C70.7142 135.216 70.553 135.709 70.1881 136.138C69.8232 136.545 69.3621 136.759 68.8046 136.78C68.2471 136.822 67.7541 136.661 67.3256 136.296C66.9185 135.931 66.7045 135.47 66.6836 134.913ZM80.0071 140.842C79.9238 138.162 79.7884 133.777 79.601 127.688C79.2368 127.323 79.0335 126.883 78.9911 126.369C78.9701 125.854 79.1206 125.393 79.4426 124.986L79.5392 124.858L79.4776 121.867C79.4567 121.309 79.6286 120.827 79.9935 120.42C80.3798 120.013 80.8517 119.81 81.4092 119.81C82.2025 119.789 82.8025 120.144 83.2092 120.873C85.5049 119.224 87.7137 118.765 89.8357 119.496C90.9932 119.883 91.9681 120.549 92.7606 121.493C93.553 122.458 94.1631 123.542 94.5909 124.743C95.5321 127.166 95.6372 129.407 94.9064 131.465C94.5407 132.708 93.8965 133.801 92.9737 134.744C92.0724 135.665 90.9354 136.296 89.5629 136.638C87.9116 137.022 86.3787 136.903 84.9641 136.28C84.6212 136.13 84.2462 135.926 83.839 135.668C83.9017 137.49 83.9538 139.174 83.9953 140.717C84.0162 141.275 83.8335 141.746 83.4472 142.132C83.0824 142.539 82.6212 142.753 82.0637 142.774C81.5062 142.795 81.024 142.612 80.6169 142.226C80.2313 141.861 80.0281 141.4 80.0071 140.842ZM88.6016 132.713C89.7811 132.436 90.575 131.815 90.9832 130.85C91.4349 129.328 91.372 127.731 90.7946 126.058C90.26 124.535 89.5104 123.613 88.5458 123.29C87.4741 122.925 86.1443 123.481 84.5563 124.959C84.2773 125.216 83.9554 125.602 83.5904 126.116L83.7152 130.361L84.7114 131.263C85.1184 131.649 85.4505 131.939 85.7076 132.132C85.9647 132.304 86.254 132.465 86.5755 132.615C87.1542 132.873 87.8296 132.906 88.6016 132.713ZM100.812 142.952C100.383 143.294 99.8892 143.444 99.3318 143.401C98.7958 143.357 98.3458 143.121 97.9817 142.692C97.639 142.263 97.4894 141.77 97.5328 141.212C97.5761 140.676 97.8124 140.226 98.2415 139.862C98.6707 139.519 99.1427 139.155 99.6576 138.77C100.194 138.384 100.623 138.052 100.945 137.774C101.288 137.496 101.599 137.196 101.878 136.874L101.879 136.842C99.6316 132.037 97.8564 127.158 96.553 122.204C96.4034 121.668 96.4682 121.164 96.7473 120.692C97.0265 120.2 97.4342 119.889 97.9703 119.761C98.5065 119.611 99.0103 119.676 99.4817 119.955C99.9746 120.234 100.285 120.642 100.413 121.178C101.375 124.738 102.572 128.256 104.006 131.73C105.51 127.894 106.542 124.421 107.103 121.313C107.189 120.777 107.457 120.348 107.908 120.027C108.38 119.706 108.884 119.599 109.42 119.707C109.956 119.793 110.384 120.072 110.706 120.544C111.027 120.995 111.133 121.488 111.026 122.024C110.336 125.904 108.917 130.438 106.768 135.624C106.725 135.71 106.639 135.924 106.51 136.267L106.123 137.296C106.016 137.596 105.855 137.95 105.64 138.357C105.425 138.764 105.2 139.118 104.964 139.418C104.599 139.846 104.148 140.285 103.612 140.735C103.097 141.185 102.539 141.635 101.938 142.084C101.337 142.534 100.962 142.823 100.812 142.952ZM116.975 136.888C116.825 136.909 116.675 136.898 116.525 136.855C116.096 136.834 115.71 136.683 115.367 136.404C115.025 136.104 114.8 135.739 114.693 135.31C114.351 133.766 114.095 132.125 113.926 130.389C113.756 128.63 113.65 127.14 113.608 125.918C113.588 124.674 113.578 123.281 113.58 121.737C113.58 121.179 113.774 120.708 114.16 120.322C114.546 119.937 115.018 119.744 115.575 119.745C116.133 119.745 116.604 119.939 116.99 120.325C117.376 120.711 117.568 121.183 117.568 121.74C117.563 126.415 117.807 130.113 118.297 132.837C119.648 132.795 121.106 132.764 122.671 132.744C122.672 132.315 122.651 131.383 122.61 129.946C122.568 128.51 122.537 127.459 122.516 126.794C122.517 126.108 122.528 125.208 122.551 124.093C122.551 123.535 122.573 122.742 122.617 121.713C122.639 121.155 122.854 120.695 123.261 120.331C123.669 119.945 124.152 119.774 124.709 119.817C125.267 119.839 125.727 120.054 126.092 120.462C126.477 120.869 126.648 121.352 126.605 121.909C126.561 122.831 126.528 123.721 126.506 124.579C126.505 125.436 126.515 126.219 126.536 126.927C126.557 127.613 126.577 128.62 126.598 129.95C126.639 131.279 126.671 132.212 126.691 132.748C127.399 132.727 128.857 132.728 131.065 132.752C131.39 129.107 131.522 125.452 131.461 121.785C131.44 121.228 131.623 120.756 132.009 120.371C132.396 119.964 132.868 119.76 133.425 119.761C133.982 119.74 134.454 119.923 134.84 120.309C135.247 120.695 135.45 121.167 135.449 121.725C135.553 126.184 135.366 130.547 134.891 134.814C134.804 135.564 134.418 136.1 133.732 136.421C133.388 136.635 133.013 136.742 132.606 136.741C124.908 136.734 119.698 136.783 116.975 136.888ZM151.064 136.179C148.901 133.862 147.102 131.716 145.667 129.742L143.382 131.83C143.467 132.752 143.573 133.675 143.701 134.597C143.764 135.154 143.635 135.658 143.313 136.108C142.991 136.536 142.552 136.783 141.994 136.846C141.437 136.932 140.933 136.813 140.483 136.491C140.054 136.169 139.797 135.729 139.712 135.172C139.18 131.355 139.023 126.841 139.242 121.631C139.264 121.074 139.479 120.613 139.886 120.249C140.294 119.864 140.777 119.692 141.334 119.736C141.892 119.758 142.352 119.973 142.717 120.38C143.102 120.788 143.273 121.271 143.23 121.828C143.164 123.565 143.13 125.162 143.129 126.62L150.178 120.194C150.607 119.809 151.09 119.638 151.626 119.681C152.183 119.703 152.644 119.928 153.008 120.358C153.394 120.765 153.565 121.248 153.522 121.805C153.5 122.341 153.285 122.791 152.877 123.155L148.66 127.011C150.052 129.006 151.862 131.163 154.09 133.48C154.454 133.91 154.614 134.403 154.571 134.96C154.549 135.496 154.323 135.957 153.894 136.343C153.487 136.707 153.004 136.867 152.447 136.824C151.911 136.802 151.45 136.587 151.064 136.179ZM159.324 143.005C158.895 143.348 158.402 143.497 157.844 143.454C157.308 143.41 156.858 143.174 156.494 142.745C156.151 142.316 156.002 141.823 156.045 141.265C156.088 140.729 156.325 140.279 156.754 139.915C157.183 139.572 157.655 139.208 158.17 138.823C158.706 138.437 159.135 138.105 159.457 137.827C159.801 137.549 160.112 137.249 160.391 136.927L160.391 136.895C158.144 132.09 156.369 127.211 155.065 122.257C154.916 121.721 154.981 121.217 155.26 120.746C155.539 120.253 155.947 119.942 156.483 119.814C157.019 119.664 157.523 119.729 157.994 120.008C158.487 120.287 158.798 120.695 158.926 121.231C159.887 124.791 161.085 128.309 162.518 131.783C164.023 127.947 165.055 124.474 165.615 121.366C165.701 120.83 165.97 120.401 166.42 120.08C166.892 119.759 167.396 119.652 167.932 119.76C168.468 119.846 168.897 120.125 169.218 120.597C169.539 121.048 169.646 121.541 169.538 122.077C168.849 125.957 167.429 130.491 165.281 135.677C165.238 135.763 165.152 135.978 165.023 136.32L164.636 137.349C164.528 137.649 164.367 138.003 164.152 138.41C163.938 138.817 163.712 139.171 163.476 139.471C163.111 139.899 162.66 140.339 162.124 140.788C161.609 141.238 161.051 141.688 160.45 142.138C159.85 142.587 159.474 142.876 159.324 143.005ZM171.912 142.791C171.333 142.791 170.851 142.608 170.465 142.243C170.08 141.878 169.887 141.406 169.888 140.827C169.888 140.42 169.963 140.066 170.114 139.766C170.2 139.595 170.372 139.316 170.629 138.931C170.973 138.373 171.209 137.956 171.338 137.677C171.51 137.291 171.65 136.83 171.757 136.294C171.843 135.909 171.919 135.619 171.983 135.426C172.134 134.976 172.37 134.623 172.692 134.366C173.035 134.087 173.442 133.948 173.914 133.949C174.515 133.949 175.018 134.153 175.425 134.561C175.854 134.947 176.068 135.451 176.067 136.073C176.067 136.438 175.981 136.931 175.808 137.552C175.658 138.174 175.486 138.71 175.292 139.16C174.97 139.91 174.551 140.682 174.036 141.474C173.735 141.924 173.413 142.257 173.07 142.471C172.748 142.685 172.362 142.792 171.912 142.791ZM191.929 136.12C191.564 136.548 191.103 136.794 190.546 136.858C190.01 136.922 189.527 136.782 189.099 136.439C188.67 136.074 188.424 135.623 188.36 135.087C188.275 134.23 188.201 133.372 188.138 132.514C188.074 131.635 188.032 130.649 188.012 129.555L187.95 127.047C187.95 126.468 187.94 125.546 187.92 124.281C187.921 123.016 187.922 122.212 187.922 121.869C187.901 121.311 188.084 120.84 188.47 120.454C188.878 120.047 189.35 119.844 189.886 119.844C190.443 119.823 190.915 120.017 191.3 120.424C191.707 120.811 191.911 121.272 191.91 121.808C191.931 122.344 191.941 123.116 191.94 124.124L191.938 126.053C193.911 125.991 196.055 125.961 198.371 125.963L198.278 121.814C198.257 121.256 198.44 120.774 198.826 120.367C199.213 119.96 199.674 119.757 200.21 119.757C200.767 119.736 201.249 119.919 201.656 120.305C202.063 120.691 202.267 121.153 202.266 121.689C202.453 128.314 202.556 132.699 202.576 134.843C202.597 135.4 202.414 135.883 202.028 136.29C201.642 136.675 201.17 136.868 200.612 136.867C200.055 136.888 199.573 136.706 199.166 136.319C198.78 135.933 198.587 135.461 198.588 134.904C198.546 133.403 198.516 131.752 198.496 129.951C196.137 129.97 193.983 130.011 192.031 130.074C192.094 131.703 192.2 133.225 192.349 134.641C192.413 135.198 192.273 135.691 191.929 136.12ZM209.625 135.975C208.274 135.223 207.257 134.129 206.572 132.692C205.887 131.255 205.546 129.732 205.547 128.124C205.549 126.537 205.882 125.026 206.548 123.59C207.236 122.154 208.255 121.051 209.607 120.28C210.25 119.916 211.076 119.703 212.084 119.639C212.406 119.318 212.792 119.125 213.242 119.061C213.714 118.997 214.153 119.094 214.56 119.352C215.075 119.696 215.835 120.147 216.843 120.705C217.7 121.199 218.332 121.607 218.739 121.929C219.382 122.508 219.863 123.195 220.184 123.988C220.527 124.782 220.794 125.811 220.986 127.077C221.199 128.578 221.069 130.057 220.596 131.515C220.123 132.972 219.36 134.183 218.309 135.147C217.172 136.196 215.852 136.806 214.351 136.976C212.85 137.146 211.275 136.813 209.625 135.975ZM211.525 132.503C213.111 133.384 214.473 133.299 215.61 132.25C216.168 131.736 216.587 131.071 216.866 130.257C217.146 129.421 217.211 128.542 217.061 127.62C216.848 126.14 216.538 125.239 216.131 124.917C215.938 124.746 215.542 124.488 214.942 124.144L213.785 123.5C213.613 123.521 213.409 123.532 213.174 123.532L212.82 123.531C212.605 123.531 212.445 123.542 212.337 123.563C211.951 123.584 211.694 123.627 211.565 123.691C210.943 124.055 210.439 124.633 210.052 125.426C209.687 126.219 209.504 127.131 209.503 128.16C209.502 129.167 209.684 130.068 210.047 130.862C210.411 131.634 210.904 132.181 211.525 132.503ZM235.425 143.074C234.995 143.417 234.502 143.566 233.945 143.523C233.409 143.479 232.959 143.243 232.595 142.814C232.252 142.385 232.102 141.892 232.146 141.334C232.189 140.798 232.425 140.348 232.855 139.984C233.284 139.641 233.756 139.277 234.271 138.892C234.807 138.506 235.236 138.175 235.558 137.896C235.901 137.618 236.212 137.318 236.491 136.996L236.491 136.964C234.245 132.159 232.469 127.28 231.166 122.326C231.016 121.79 231.081 121.286 231.36 120.815C231.639 120.322 232.047 120.011 232.583 119.883C233.119 119.733 233.623 119.798 234.095 120.077C234.588 120.356 234.898 120.764 235.026 121.3C235.988 124.86 237.185 128.378 238.619 131.852C240.123 128.016 241.155 124.543 241.716 121.435C241.802 120.899 242.07 120.47 242.521 120.149C242.993 119.828 243.497 119.721 244.033 119.829C244.569 119.915 244.997 120.194 245.319 120.666C245.64 121.117 245.746 121.61 245.639 122.146C244.949 126.026 243.53 130.56 241.381 135.747C241.338 135.832 241.252 136.047 241.123 136.39L240.736 137.418C240.629 137.718 240.468 138.072 240.253 138.479C240.038 138.886 239.813 139.24 239.577 139.54C239.212 139.968 238.761 140.408 238.225 140.857C237.71 141.307 237.152 141.757 236.551 142.207C235.95 142.656 235.575 142.945 235.425 143.074ZM264.471 134.996C264.471 135.532 264.267 136.003 263.859 136.41C263.473 136.796 263.001 136.978 262.443 136.956C261.907 136.955 261.436 136.762 261.029 136.375C260.643 135.968 260.462 135.485 260.483 134.928C260.53 130.875 260.523 127.209 260.461 123.928C258.746 123.927 257.61 123.915 257.052 123.893C256.516 123.893 256.045 123.699 255.638 123.313C255.252 122.905 255.06 122.433 255.06 121.897C255.082 121.34 255.286 120.868 255.672 120.483C256.08 120.076 256.563 119.883 257.12 119.905C263.295 119.954 266.972 119.978 268.151 119.98C268.709 119.959 269.18 120.152 269.566 120.56C269.973 120.946 270.176 121.418 270.176 121.975C270.197 122.511 270.003 122.983 269.596 123.39C269.209 123.776 268.748 123.968 268.212 123.968C267.848 123.989 266.604 123.998 264.481 123.996C264.521 127.298 264.518 130.965 264.471 134.996ZM278.19 136.938C276.968 136.722 275.864 136.335 274.878 135.777C273.828 135.111 272.993 134.317 272.372 133.395C271.773 132.408 271.409 131.411 271.281 130.403C271.154 129.373 271.176 128.355 271.348 127.347C271.542 126.34 271.875 125.386 272.348 124.486C272.842 123.586 273.454 122.782 274.183 122.076C274.913 121.347 275.739 120.769 276.661 120.341C277.584 119.892 278.613 119.689 279.749 119.733C280.907 119.755 282.054 120.067 283.19 120.669C284.69 121.463 285.815 122.579 286.564 124.016C286.928 124.681 287.141 125.496 287.205 126.461L287.268 127.394C287.268 127.694 287.278 127.93 287.3 128.102C287.364 128.488 287.31 128.852 287.138 129.195C286.988 129.538 286.741 129.806 286.398 129.998C286.033 130.277 285.625 130.394 285.175 130.351C281.702 130.155 278.368 130.13 275.173 130.278C275.429 131.221 275.997 131.961 276.875 132.498C277.39 132.799 278.022 133.025 278.772 133.175C279.544 133.305 280.177 133.295 280.67 133.145C280.863 133.081 281.12 132.92 281.442 132.663L282.118 132.117C282.397 131.86 282.665 131.646 282.923 131.475C283.352 131.175 283.824 131.079 284.338 131.186C284.874 131.294 285.292 131.573 285.592 132.024C285.891 132.453 285.987 132.925 285.88 133.439C285.772 133.954 285.504 134.371 285.075 134.693C284.946 134.778 284.774 134.907 284.56 135.078L283.852 135.689C283.101 136.245 282.393 136.62 281.728 136.812C280.591 137.111 279.412 137.153 278.19 136.938ZM275.691 126.387C278.178 126.303 280.719 126.305 283.313 126.393C283.292 126.115 283.249 125.922 283.185 125.814C282.778 125.064 282.179 124.473 281.386 124.044C280.293 123.485 279.242 123.42 278.234 123.848C277.226 124.255 276.4 125.058 275.755 126.258L275.691 126.387ZM298.923 136.86C296.586 137.18 294.614 136.717 293.007 135.472C291.657 134.42 290.672 132.897 290.052 130.902C289.561 129.101 289.327 127.332 289.35 125.595C289.394 123.858 289.621 122.24 290.029 120.739C290.503 119.024 291.093 117.717 291.802 116.817C292.682 115.703 293.969 114.836 295.664 114.215C296.243 114.002 297.068 113.906 298.14 113.928C298.676 113.929 299.009 113.908 299.137 113.865C299.33 113.801 299.577 113.619 299.877 113.319L300.489 112.773C300.768 112.494 301.015 112.269 301.229 112.098C301.68 111.755 302.173 111.616 302.709 111.681C303.267 111.746 303.717 112.004 304.059 112.454C304.402 112.883 304.541 113.377 304.476 113.934C304.411 114.47 304.164 114.909 303.735 115.252L303.22 115.702L302.576 116.28C301.911 116.901 301.257 117.34 300.613 117.597C299.991 117.832 299.144 117.949 298.072 117.948C297.493 117.926 297.14 117.948 297.011 118.012C296.046 118.354 295.359 118.782 294.951 119.296C294.758 119.553 294.586 119.864 294.436 120.229C295.83 119.479 297.213 119.18 298.586 119.332C299.958 119.462 301.233 119.967 302.411 120.847C303.761 121.877 304.746 123.24 305.367 124.934C305.987 126.628 306.071 128.408 305.619 130.273C305.124 132.181 304.372 133.649 303.364 134.677C302.183 135.877 300.703 136.604 298.923 136.86ZM298.348 132.872C299.249 132.744 299.978 132.401 300.536 131.844C301.008 131.352 301.395 130.505 301.696 129.305C301.976 128.233 301.945 127.225 301.602 126.281C301.26 125.338 300.714 124.587 299.964 124.029C299.343 123.513 298.636 123.266 297.842 123.287C297.07 123.308 296.352 123.65 295.687 124.314C295.472 124.507 295.257 124.861 295.042 125.375C294.999 125.461 294.956 125.557 294.913 125.664C294.87 125.771 294.817 125.889 294.752 126.018C294.709 126.125 294.677 126.222 294.656 126.307C294.462 126.736 294.29 127.1 294.14 127.4C293.99 127.679 293.786 127.915 293.528 128.107C293.613 128.686 293.731 129.222 293.881 129.716C294.265 130.917 294.79 131.775 295.454 132.29C296.183 132.848 297.147 133.042 298.348 132.872ZM311.786 135.907C311.55 136.4 311.174 136.743 310.66 136.935C310.145 137.128 309.63 137.116 309.116 136.901C308.623 136.665 308.28 136.29 308.088 135.775C307.895 135.26 307.906 134.746 308.121 134.231C308.486 133.867 308.883 133.171 309.313 132.142C309.657 131.242 309.947 130.62 310.183 130.277L310.248 130.181C309.305 129.451 308.695 128.507 308.417 127.349C308.203 126.427 308.258 125.505 308.58 124.583C308.903 123.64 309.354 122.836 309.933 122.172C311.35 120.587 313.505 119.817 316.4 119.863C317.021 119.885 317.665 119.939 318.329 120.025C318.994 120.09 319.744 120.198 320.58 120.349C321.416 120.478 321.867 120.543 321.931 120.543C322.638 120.651 323.142 121.026 323.441 121.67C323.677 122.013 323.784 122.389 323.762 122.796C323.761 123.696 323.663 125.883 323.467 129.357C323.314 132.058 323.248 133.934 323.269 134.985C323.289 135.542 323.107 136.024 322.72 136.431C322.334 136.817 321.862 137.01 321.305 137.009C320.747 137.03 320.265 136.847 319.858 136.461C319.473 136.075 319.28 135.603 319.28 135.045C319.26 134.338 319.282 133.276 319.348 131.861C317.718 131.881 316.55 131.87 315.842 131.826C315.413 132.019 314.931 132.211 314.394 132.404C313.88 132.596 313.579 132.703 313.494 132.724L313.365 132.789L311.786 135.907ZM319.544 127.841C319.631 126.341 319.697 125.151 319.741 124.272C318.304 124.035 317.168 123.905 316.332 123.883C314.659 123.838 313.533 124.148 312.954 124.812C312.696 125.091 312.514 125.391 312.406 125.712C312.32 126.012 312.299 126.259 312.341 126.452C312.47 127.052 313.262 127.471 314.72 127.708C315.106 127.752 315.535 127.795 316.007 127.838C316.5 127.86 316.896 127.871 317.196 127.871C317.518 127.872 317.947 127.872 318.483 127.873C319.04 127.852 319.394 127.841 319.544 127.841ZM108.185 166.784C106.963 166.568 105.859 166.181 104.873 165.623C103.823 164.957 102.988 164.163 102.367 163.24C101.767 162.254 101.404 161.256 101.276 160.248C101.148 159.219 101.171 158.201 101.343 157.193C101.537 156.186 101.87 155.232 102.343 154.332C102.837 153.432 103.449 152.628 104.178 151.921C104.908 151.193 105.734 150.615 106.656 150.187C107.579 149.737 108.608 149.535 109.744 149.579C110.902 149.601 112.049 149.913 113.185 150.514C114.685 151.309 115.809 152.425 116.559 153.862C116.922 154.527 117.136 155.342 117.2 156.307L117.263 157.24C117.263 157.54 117.273 157.776 117.295 157.947C117.359 158.333 117.305 158.698 117.133 159.041C116.982 159.384 116.736 159.651 116.392 159.844C116.028 160.122 115.62 160.24 115.17 160.197C111.697 160.001 108.363 159.976 105.168 160.123C105.424 161.067 105.992 161.807 106.87 162.344C107.385 162.645 108.017 162.87 108.767 163.021C109.539 163.15 110.171 163.14 110.665 162.991C110.858 162.927 111.115 162.766 111.437 162.509L112.113 161.963C112.392 161.706 112.66 161.492 112.918 161.32C113.347 161.021 113.818 160.925 114.333 161.032C114.869 161.14 115.287 161.419 115.586 161.87C115.886 162.299 115.982 162.77 115.875 163.285C115.767 163.799 115.499 164.217 115.069 164.538C114.941 164.624 114.769 164.753 114.555 164.924L113.846 165.534C113.095 166.091 112.388 166.466 111.723 166.658C110.586 166.957 109.407 166.999 108.185 166.784ZM105.686 156.232C108.173 156.149 110.714 156.151 113.308 156.239C113.287 155.96 113.244 155.767 113.18 155.66C112.773 154.909 112.173 154.319 111.381 153.89C110.288 153.331 109.237 153.266 108.229 153.694C107.221 154.1 106.395 154.904 105.75 156.104L105.686 156.232ZM128.886 166.513C127.428 166.983 125.906 166.96 124.319 166.444C123.012 166.014 121.94 165.359 121.105 164.48C120.27 163.578 119.713 162.592 119.435 161.519C119.179 160.426 119.084 159.332 119.149 158.239C119.236 157.145 119.462 156.095 119.827 155.087C120.235 154.059 120.783 153.116 121.47 152.259C122.178 151.402 123.004 150.738 123.948 150.267C124.956 149.753 126.071 149.55 127.293 149.659C128.516 149.767 129.705 150.208 130.862 150.981C131.462 151.389 132.008 152.011 132.501 152.848L132.95 153.588C133.079 153.824 133.197 154.006 133.304 154.135C133.603 154.564 133.699 155.046 133.592 155.582C133.506 156.097 133.248 156.515 132.819 156.836C132.411 157.157 131.939 157.275 131.403 157.188C130.867 157.081 130.439 156.812 130.118 156.383C129.946 156.147 129.764 155.857 129.572 155.514L129.186 154.839C128.972 154.495 128.801 154.281 128.672 154.195C127.58 153.443 126.572 153.303 125.65 153.774C124.706 154.245 123.976 155.155 123.46 156.506C122.901 157.942 122.804 159.25 123.167 160.429C123.552 161.609 124.323 162.392 125.481 162.779C126.295 163.016 127.035 163.027 127.7 162.813C127.828 162.792 128.021 162.653 128.279 162.396L128.826 161.849C129.127 161.571 129.373 161.346 129.567 161.175C130.017 160.853 130.5 160.725 131.014 160.79C131.55 160.833 131.979 161.07 132.3 161.499C132.643 161.928 132.782 162.41 132.717 162.946C132.652 163.482 132.416 163.911 132.008 164.232C131.879 164.318 131.718 164.457 131.525 164.65L130.946 165.228C130.259 165.871 129.573 166.299 128.886 166.513ZM143.839 164.886C143.839 165.422 143.634 165.894 143.227 166.301C142.84 166.686 142.369 166.868 141.811 166.846C141.275 166.846 140.804 166.652 140.397 166.266C140.011 165.858 139.829 165.376 139.851 164.818C139.898 160.766 139.89 157.1 139.829 153.819C138.114 153.817 136.977 153.806 136.42 153.784C135.884 153.783 135.412 153.59 135.005 153.204C134.62 152.796 134.427 152.324 134.428 151.788C134.45 151.23 134.654 150.759 135.04 150.373C135.448 149.966 135.93 149.774 136.488 149.796C142.663 149.844 146.34 149.869 147.519 149.87C148.077 149.849 148.548 150.043 148.934 150.45C149.341 150.837 149.544 151.309 149.543 151.866C149.564 152.402 149.371 152.874 148.963 153.281C148.577 153.666 148.116 153.859 147.58 153.858C147.215 153.879 145.972 153.889 143.849 153.887C143.889 157.189 143.886 160.855 143.839 164.886ZM154.02 167.115C153.462 167.135 152.98 166.953 152.573 166.566C152.187 166.18 151.995 165.708 151.995 165.151C151.954 163.478 151.86 161.109 151.712 158.043C151.586 154.955 151.513 152.865 151.493 151.771C151.472 151.214 151.644 150.732 152.009 150.324C152.395 149.917 152.867 149.714 153.424 149.715C153.982 149.694 154.464 149.876 154.871 150.263C155.278 150.628 155.481 151.089 155.481 151.646L155.638 155.699C156.41 155.635 157.085 155.582 157.664 155.54C158.565 155.476 159.337 155.466 159.98 155.51C160.966 155.553 161.738 155.736 162.295 156.059C163.067 156.467 163.72 157.057 164.255 157.829C164.791 158.602 165.133 159.417 165.282 160.274C165.581 162.204 165.161 163.758 164.024 164.937C163.144 165.836 161.9 166.403 160.292 166.638C159.026 166.851 157.365 166.85 155.307 166.633C154.942 166.955 154.513 167.115 154.02 167.115ZM155.921 162.678C157.529 162.83 158.783 162.831 159.684 162.681C160.413 162.575 160.906 162.393 161.164 162.136C161.357 161.922 161.4 161.514 161.294 160.914C161.208 160.335 160.909 159.884 160.394 159.562L160.33 159.562C160.287 159.562 160.212 159.552 160.105 159.53C160.019 159.508 159.912 159.498 159.783 159.498C159.29 159.476 158.669 159.486 157.918 159.528C157.318 159.57 156.621 159.634 155.827 159.719C155.869 160.834 155.901 161.82 155.921 162.678ZM180.112 167.588C179.576 167.695 179.082 167.588 178.633 167.266C178.183 166.965 177.904 166.557 177.797 166.043L177.733 165.657C177.605 165.399 177.552 165.131 177.573 164.852L177.573 164.788C177.168 162.301 176.829 158.312 176.555 152.823C176.491 152.673 176.437 152.523 176.395 152.373C176.352 152.03 176.385 151.708 176.492 151.408C176.557 150.915 176.761 150.508 177.104 150.186C177.448 149.865 177.866 149.694 178.359 149.673C178.724 149.652 179.067 149.727 179.388 149.899C181.103 149.643 182.583 149.516 183.827 149.517C185.242 149.54 186.442 149.734 187.428 150.099C188.95 150.637 189.925 151.581 190.352 152.932C190.887 154.562 190.596 156.02 189.48 157.305L189.19 157.562C189.962 158.099 190.551 158.711 190.957 159.397C191.428 160.362 191.556 161.317 191.341 162.26C191.147 163.203 190.632 164.092 189.795 164.928C188.614 166.127 186.759 166.801 184.229 166.949C183.457 166.991 182.567 166.99 181.559 166.947L181.238 166.946C180.937 167.289 180.562 167.503 180.112 167.588ZM184.039 163.025C185.54 162.941 186.506 162.663 186.935 162.192C187.364 161.785 187.546 161.495 187.482 161.324C187.268 160.938 186.7 160.583 185.779 160.261C185.243 160.067 184.364 160.034 183.142 160.162C182.584 160.226 181.876 160.332 181.019 160.482C181.104 161.361 181.199 162.197 181.306 162.99L181.756 162.991C182.657 163.035 183.418 163.046 184.039 163.025ZM180.669 156.268C182.448 156.098 183.864 155.832 184.915 155.468C185.73 155.233 186.277 154.955 186.556 154.633C186.642 154.526 186.652 154.355 186.588 154.119C186.588 154.012 186.417 153.904 186.074 153.797C185.538 153.582 184.777 153.474 183.791 153.473C182.869 153.472 181.786 153.557 180.542 153.727C180.606 154.799 180.648 155.646 180.669 156.268ZM196.866 166.832C196.308 166.874 195.826 166.713 195.419 166.348C195.012 165.983 194.787 165.522 194.745 164.965C194.555 162.134 194.312 157.728 194.017 151.746C193.975 151.188 194.136 150.706 194.501 150.299C194.887 149.892 195.359 149.678 195.917 149.657C196.474 149.614 196.956 149.786 197.363 150.173C197.77 150.538 197.984 150.999 198.005 151.556L198.227 155.416C199.128 155.245 199.857 155.128 200.414 155.064C202.258 154.83 203.738 154.895 204.852 155.261C206.203 155.712 207.296 156.41 208.131 157.354C208.988 158.299 209.416 159.392 209.414 160.636C209.435 161.858 209.037 162.973 208.221 163.98C207.427 164.965 206.355 165.747 205.003 166.325C204.488 166.539 203.952 166.71 203.395 166.838C202.859 166.944 202.258 166.998 201.593 166.997C200.95 166.996 200.468 166.985 200.146 166.963C199.825 166.963 199.289 166.93 198.538 166.865C197.809 166.801 197.413 166.757 197.348 166.736C197.198 166.8 197.037 166.832 196.866 166.832ZM198.606 162.845C199.55 162.953 200.439 163.008 201.275 163.009C202.112 162.988 202.841 162.849 203.463 162.592C203.978 162.379 204.385 162.132 204.686 161.854C205.008 161.575 205.201 161.35 205.265 161.179C205.351 160.986 205.394 160.825 205.394 160.697C205.394 160.547 205.362 160.397 205.298 160.246C205.234 160.096 205.052 159.903 204.752 159.667C204.452 159.431 204.056 159.227 203.563 159.055C203.048 158.883 202.169 158.882 200.925 159.052C200.346 159.116 199.51 159.255 198.416 159.468L198.606 162.845ZM210.022 164.818C210.028 158.407 210.085 154.044 210.194 151.728C210.216 151.171 210.431 150.71 210.839 150.346C211.247 149.96 211.729 149.789 212.287 149.832C212.844 149.854 213.305 150.069 213.669 150.477C214.055 150.885 214.226 151.367 214.182 151.925C214.073 153.94 214.016 158.239 214.01 164.821C214.009 165.379 213.816 165.85 213.43 166.236C213.043 166.621 212.571 166.814 212.014 166.813C211.456 166.813 210.985 166.619 210.599 166.233C210.214 165.847 210.021 165.375 210.022 164.818ZM226.91 166.795C224.573 167.114 222.6 166.651 220.994 165.406C219.644 164.355 218.659 162.831 218.039 160.837C217.547 159.035 217.313 157.266 217.336 155.53C217.381 153.793 217.607 152.174 218.016 150.674C218.489 148.959 219.08 147.652 219.788 146.752C220.668 145.638 221.956 144.77 223.65 144.15C224.229 143.936 225.055 143.841 226.127 143.863C226.663 143.863 226.995 143.842 227.124 143.8C227.317 143.735 227.564 143.553 227.864 143.253L228.476 142.707C228.755 142.429 229.001 142.204 229.216 142.033C229.666 141.69 230.16 141.551 230.696 141.616C231.253 141.681 231.703 141.938 232.046 142.389C232.388 142.818 232.527 143.311 232.463 143.869C232.398 144.405 232.151 144.844 231.722 145.187L231.207 145.636L230.563 146.215C229.898 146.836 229.243 147.275 228.6 147.532C227.978 147.767 227.131 147.884 226.059 147.883C225.48 147.861 225.126 147.882 224.997 147.946C224.032 148.289 223.346 148.717 222.938 149.231C222.745 149.488 222.573 149.799 222.422 150.163C223.817 149.414 225.2 149.115 226.572 149.266C227.944 149.396 229.219 149.901 230.398 150.782C231.748 151.812 232.733 153.174 233.353 154.869C233.973 156.563 234.057 158.343 233.606 160.208C233.111 162.116 232.359 163.584 231.35 164.612C230.17 165.811 228.69 166.539 226.91 166.795ZM226.335 162.806C227.235 162.678 227.965 162.336 228.523 161.779C228.995 161.286 229.381 160.44 229.683 159.239C229.962 158.168 229.931 157.16 229.589 156.216C229.247 155.272 228.701 154.521 227.951 153.963C227.329 153.448 226.622 153.201 225.829 153.222C225.057 153.242 224.338 153.585 223.673 154.249C223.458 154.442 223.244 154.795 223.029 155.31C222.986 155.395 222.943 155.492 222.9 155.599C222.857 155.706 222.803 155.824 222.739 155.953C222.696 156.06 222.664 156.156 222.642 156.242C222.449 156.671 222.277 157.035 222.127 157.335C221.976 157.614 221.772 157.849 221.515 158.042C221.6 158.621 221.717 159.157 221.867 159.65C222.252 160.851 222.776 161.709 223.441 162.225C224.169 162.783 225.134 162.977 226.335 162.806ZM240.094 166.003C238.744 165.251 237.727 164.157 237.042 162.719C236.357 161.282 236.015 159.76 236.017 158.152C236.018 156.565 236.352 155.054 237.018 153.618C237.705 152.182 238.725 151.079 240.076 150.308C240.72 149.944 241.545 149.73 242.553 149.667C242.875 149.346 243.261 149.153 243.712 149.089C244.183 149.025 244.623 149.122 245.03 149.38C245.544 149.723 246.305 150.174 247.312 150.733C248.169 151.226 248.801 151.634 249.209 151.956C249.851 152.536 250.333 153.222 250.654 154.016C250.996 154.81 251.263 155.839 251.455 157.104C251.668 158.605 251.538 160.085 251.065 161.542C250.592 163 249.83 164.21 248.778 165.174C247.641 166.224 246.322 166.834 244.821 167.004C243.32 167.174 241.744 166.84 240.094 166.003ZM241.995 162.531C243.581 163.411 244.942 163.327 246.08 162.277C246.637 161.763 247.056 161.099 247.336 160.285C247.615 159.449 247.68 158.57 247.531 157.647C247.318 156.168 247.008 155.267 246.601 154.945C246.408 154.773 246.012 154.516 245.411 154.172L244.254 153.528C244.083 153.549 243.879 153.56 243.643 153.559L243.289 153.559C243.075 153.559 242.914 153.569 242.807 153.591C242.421 153.612 242.164 153.655 242.035 153.719C241.413 154.083 240.908 154.661 240.522 155.454C240.157 156.247 239.973 157.158 239.973 158.187C239.972 159.195 240.153 160.096 240.517 160.889C240.881 161.662 241.373 162.209 241.995 162.531ZM255.266 171.001C255.182 168.321 255.047 163.936 254.86 157.847C254.495 157.482 254.292 157.043 254.25 156.528C254.229 156.013 254.379 155.552 254.701 155.145L254.798 155.017L254.736 152.026C254.715 151.468 254.887 150.986 255.252 150.579C255.638 150.172 256.11 149.969 256.668 149.969C257.461 149.948 258.061 150.303 258.468 151.032C260.764 149.383 262.972 148.924 265.094 149.655C266.252 150.042 267.227 150.708 268.019 151.652C268.812 152.617 269.422 153.701 269.849 154.902C270.791 157.325 270.896 159.566 270.165 161.624C269.799 162.867 269.155 163.96 268.232 164.903C267.331 165.824 266.194 166.455 264.821 166.797C263.17 167.181 261.637 167.062 260.223 166.439C259.88 166.289 259.505 166.085 259.098 165.827C259.16 167.649 259.212 169.333 259.254 170.876C259.275 171.434 259.092 171.905 258.706 172.291C258.341 172.698 257.88 172.912 257.322 172.933C256.765 172.954 256.283 172.771 255.876 172.385C255.49 172.02 255.287 171.559 255.266 171.001ZM263.86 162.872C265.04 162.595 265.834 161.974 266.242 161.009C266.693 159.487 266.631 157.89 266.053 156.217C265.519 154.694 264.769 153.772 263.804 153.449C262.733 153.084 261.403 153.64 259.815 155.118C259.536 155.375 259.214 155.761 258.849 156.275L258.974 160.52L259.97 161.422C260.377 161.808 260.709 162.098 260.966 162.291C261.223 162.463 261.513 162.624 261.834 162.774C262.413 163.032 263.088 163.065 263.86 162.872Z" fill="#434343"/>
</svg>
