<svg width="261" height="336" viewBox="0 0 261 336" fill="none" xmlns="http://www.w3.org/2000/svg">
<mask id="mask0" mask-type="alpha" maskUnits="userSpaceOnUse" x="0" y="0" width="261" height="336">
<path d="M34.8 8.07216C39.4669 8.07216 43.3709 5.37831 44.3506 1.77315C44.6104 0.817134 45.3906 0 46.3813 0H71.0687C72.0594 0 72.8396 0.817134 73.0994 1.77315C74.0791 5.37831 77.9831 8.07216 82.65 8.07216C87.3169 8.07216 91.2209 5.37831 92.2006 1.77315C92.4604 0.817134 93.2406 0 94.2313 0H118.919C119.909 0 120.69 0.817134 120.949 1.77315C121.929 5.37831 125.833 8.07216 130.5 8.07216C135.167 8.07216 139.071 5.37831 140.051 1.77315C140.31 0.817134 141.091 0 142.081 0H166.769C167.759 0 168.54 0.817134 168.799 1.77315C169.779 5.37831 173.683 8.07216 178.35 8.07216C183.017 8.07216 186.921 5.37831 187.901 1.77315C188.16 0.817134 188.941 0 189.931 0H214.619C215.609 0 216.39 0.817134 216.649 1.77315C217.629 5.37831 221.533 8.07216 226.2 8.07216C230.867 8.07216 234.771 5.37831 235.751 1.77315C236.01 0.817134 236.791 0 237.781 0H254.475C258.079 0 261 2.40935 261 5.38144V57.4021C248.988 57.4021 239.25 65.4332 239.25 75.3402C239.25 85.2472 248.988 93.2784 261 93.2784V317.505C261 327.412 251.262 335.443 239.25 335.443H21.75C9.7378 335.443 0 327.412 0 317.505V93.2784C12.0122 93.2784 21.75 85.2472 21.75 75.3402C21.75 65.4332 12.0122 57.4021 0 57.4021V5.38144C0 2.40935 2.92134 0 6.525 0H23.2187C24.2094 0 24.9896 0.817134 25.2494 1.77315C26.2291 5.37831 30.1331 8.07216 34.8 8.07216Z" fill="#FFF2C3"/>
</mask>
<g mask="url(#mask0)">
</g>
<mask id="mask1" mask-type="alpha" maskUnits="userSpaceOnUse" x="0" y="0" width="261" height="335">
<rect width="261" height="335" rx="30" fill="#C4C4C4"/>
</mask>
<g mask="url(#mask1)">
<rect width="261" height="335" rx="30" fill="#FADE7E"/>
<circle cx="131.845" cy="299.474" r="152.474" fill="white"/>
</g>
<path d="M134.672 197.907L135.109 238.086L129.426 238.148L129.044 202.962L119.975 203.061L119.92 198.067L134.672 197.907Z" fill="black"/>
<path d="M87.4966 111.68C86.9585 112.057 86.3073 112.245 85.5432 112.245C85.1126 112.245 84.6875 112.175 84.2678 112.035C83.848 111.895 83.5036 111.701 83.2345 111.454L84.0417 109.969C84.2355 110.152 84.4615 110.297 84.7198 110.405C84.9889 110.512 85.2579 110.566 85.527 110.566C85.8822 110.566 86.1728 110.475 86.3988 110.292C86.6356 110.109 86.8509 109.802 87.0446 109.371L87.1899 109.032L83.4283 100.379H85.527L88.2393 106.756L90.9677 100.379H92.905L88.8689 109.694C88.4922 110.631 88.0348 111.292 87.4966 111.68ZM102.578 102.09V109H100.56V102.09H97.5253V100.379H105.597V102.09H102.578ZM112.705 108.758C112.113 108.995 111.445 109.113 110.703 109.113C109.756 109.113 108.922 108.925 108.2 108.548C107.479 108.171 106.92 107.649 106.521 106.982C106.134 106.304 105.94 105.54 105.94 104.689C105.94 103.85 106.129 103.097 106.505 102.429C106.893 101.751 107.426 101.224 108.104 100.847C108.782 100.47 109.546 100.282 110.396 100.282C111.236 100.282 111.984 100.47 112.64 100.847C113.307 101.213 113.824 101.735 114.19 102.413C114.567 103.08 114.755 103.855 114.755 104.738C114.755 104.878 114.744 105.077 114.723 105.335H107.958C108.077 105.97 108.383 106.476 108.879 106.853C109.384 107.219 110.009 107.402 110.751 107.402C111.698 107.402 112.479 107.09 113.092 106.465L114.174 107.708C113.786 108.171 113.297 108.521 112.705 108.758ZM108.766 102.462C108.313 102.849 108.039 103.36 107.942 103.995H112.834C112.748 103.371 112.484 102.865 112.043 102.478C111.602 102.09 111.053 101.896 110.396 101.896C109.75 101.896 109.207 102.085 108.766 102.462ZM123.565 108.629C122.866 108.984 122.069 109.161 121.176 109.161C119.68 109.161 118.523 108.666 117.705 107.676C116.887 106.686 116.478 105.26 116.478 103.398C116.478 101.665 116.849 100.293 117.592 99.2811C118.335 98.2694 119.47 97.6021 120.998 97.2792L125.002 96.4236L125.293 98.2317L121.66 98.9744C120.616 99.1896 119.836 99.5556 119.319 100.072C118.803 100.589 118.501 101.315 118.415 102.252C118.803 101.789 119.271 101.434 119.82 101.186C120.369 100.928 120.971 100.799 121.628 100.799C122.446 100.799 123.167 100.976 123.791 101.331C124.416 101.676 124.9 102.16 125.244 102.784C125.6 103.409 125.777 104.124 125.777 104.932C125.777 105.76 125.583 106.498 125.196 107.143C124.808 107.778 124.265 108.274 123.565 108.629ZM119.416 106.821C119.879 107.294 120.482 107.531 121.224 107.531C121.967 107.531 122.564 107.294 123.016 106.821C123.479 106.336 123.711 105.723 123.711 104.98C123.711 104.237 123.479 103.64 123.016 103.188C122.564 102.736 121.967 102.51 121.224 102.51C120.471 102.51 119.863 102.736 119.4 103.188C118.937 103.64 118.706 104.237 118.706 104.98C118.706 105.733 118.943 106.347 119.416 106.821ZM130.643 106.401L128.883 109H126.72L128.754 106.126C128.13 105.911 127.651 105.583 127.317 105.142C126.995 104.689 126.833 104.135 126.833 103.479C126.833 102.488 127.183 101.724 127.883 101.186C128.582 100.648 129.545 100.379 130.772 100.379H134.728V109L132.92 109V106.401H130.643ZM128.883 103.543C128.883 104.512 129.513 104.996 130.772 104.996H132.92V102.074H130.837C129.535 102.074 128.883 102.564 128.883 103.543ZM147.926 108.758C147.334 108.995 146.667 109.113 145.924 109.113C144.977 109.113 144.143 108.925 143.422 108.548C142.7 108.171 142.141 107.649 141.743 106.982C141.355 106.304 141.161 105.54 141.161 104.689C141.161 103.85 141.35 103.097 141.726 102.429C142.114 101.751 142.647 101.224 143.325 100.847C144.003 100.47 144.767 100.282 145.617 100.282C146.457 100.282 147.205 100.47 147.861 100.847C148.529 101.213 149.045 101.735 149.411 102.413C149.788 103.08 149.976 103.855 149.976 104.738C149.976 104.878 149.965 105.077 149.944 105.335H143.179C143.298 105.97 143.605 106.476 144.1 106.853C144.606 107.219 145.23 107.402 145.972 107.402C146.92 107.402 147.7 107.09 148.313 106.465L149.395 107.708C149.008 108.171 148.518 108.521 147.926 108.758ZM143.987 102.462C143.535 102.849 143.26 103.36 143.163 103.995H148.055C147.969 103.371 147.705 102.865 147.264 102.478C146.823 102.09 146.274 101.896 145.617 101.896C144.971 101.896 144.428 102.085 143.987 102.462ZM158.334 108.58C157.689 108.935 156.946 109.113 156.106 109.113C155.213 109.113 154.411 108.925 153.701 108.548C152.991 108.171 152.436 107.649 152.038 106.982C151.64 106.304 151.441 105.54 151.441 104.689C151.441 103.839 151.64 103.08 152.038 102.413C152.436 101.746 152.985 101.224 153.685 100.847C154.395 100.47 155.202 100.282 156.106 100.282C156.957 100.282 157.699 100.454 158.334 100.799C158.98 101.143 159.465 101.638 159.787 102.284L158.238 103.188C157.99 102.79 157.678 102.494 157.301 102.3C156.935 102.096 156.532 101.993 156.09 101.993C155.337 101.993 154.713 102.241 154.218 102.736C153.723 103.22 153.475 103.871 153.475 104.689C153.475 105.507 153.717 106.164 154.201 106.659C154.697 107.143 155.326 107.386 156.09 107.386C156.532 107.386 156.935 107.289 157.301 107.095C157.678 106.89 157.99 106.589 158.238 106.191L159.787 107.095C159.454 107.741 158.969 108.236 158.334 108.58ZM165.295 102.09V109H163.277V102.09H160.242V100.379H168.314V102.09H165.295ZM176.543 108.257C175.908 108.763 175.02 109.016 173.879 109.016C173.857 109.016 173.836 109.016 173.814 109.016L169.778 109V100.379H171.796V103.204L174.105 103.22C175.203 103.22 176.042 103.468 176.623 103.963C177.215 104.458 177.511 105.158 177.511 106.062C177.511 107.009 177.188 107.741 176.543 108.257ZM173.637 107.531C173.658 107.531 173.68 107.531 173.701 107.531C174.261 107.531 174.691 107.407 174.993 107.16C175.305 106.901 175.461 106.525 175.461 106.029C175.461 105.545 175.31 105.19 175.009 104.964C174.708 104.738 174.25 104.62 173.637 104.609L171.796 104.593V107.515L173.637 107.531Z" fill="#434343" fill-opacity="0.5"/>
<path d="M37.7414 288.414C37.2391 289.017 36.5575 289.318 35.6965 289.318C35.2946 289.318 34.7996 289.239 34.2112 289.082L34.3403 286.821C34.5412 286.864 34.7135 286.886 34.857 286.886C35.4023 286.886 35.8113 286.671 36.0839 286.24C36.3566 285.795 36.5288 285.272 36.6005 284.669C36.6866 284.052 36.7584 283.176 36.8158 282.043L37.0095 277.608H46.3087V289.103H43.6179V279.89H39.3128L39.2052 282.172C39.1334 283.693 38.9899 284.97 38.7746 286.003C38.5737 287.022 38.2293 287.826 37.7414 288.414ZM58.7364 281.526L52.4079 289.103H49.9324V277.608H52.6231V285.185L58.9732 277.608H61.4272V289.103H58.7364V281.526ZM74.7979 277.608V289.103H72.1071V284.647C71.0022 285.178 69.8469 285.444 68.6415 285.444C67.1634 285.444 66.0297 285.106 65.2404 284.432C64.4511 283.743 64.0565 282.696 64.0565 281.289V277.608H66.7472V281.117C66.7472 281.849 66.9625 282.394 67.393 282.753C67.8235 283.112 68.4334 283.291 69.2227 283.291C70.2272 283.291 71.1887 283.076 72.1071 282.645V277.608H74.7979ZM81.1069 284.561V289.103H78.4162V277.608H81.1069V282.279H86.8974V277.608H89.5881V289.103H86.8974V284.561H81.1069ZM101.482 288.5C100.549 289.003 99.494 289.254 98.3173 289.254C97.1549 289.254 96.1073 289.003 95.1745 288.5C94.2417 287.998 93.5099 287.302 92.9789 286.412C92.4623 285.508 92.204 284.489 92.204 283.356C92.204 282.222 92.4623 281.21 92.9789 280.321C93.5099 279.431 94.2417 278.735 95.1745 278.233C96.1073 277.73 97.1549 277.479 98.3173 277.479C99.494 277.479 100.549 277.73 101.482 278.233C102.414 278.735 103.139 279.431 103.656 280.321C104.187 281.21 104.452 282.222 104.452 283.356C104.452 284.489 104.187 285.508 103.656 286.412C103.139 287.302 102.414 287.998 101.482 288.5ZM95.8849 285.96C96.5163 286.62 97.3271 286.951 98.3173 286.951C99.3075 286.951 100.125 286.62 100.771 285.96C101.417 285.3 101.74 284.432 101.74 283.356C101.74 282.279 101.417 281.411 100.771 280.751C100.125 280.091 99.3075 279.761 98.3173 279.761C97.3271 279.761 96.5091 280.091 95.8634 280.751C95.2319 281.411 94.9162 282.279 94.9162 283.356C94.9162 284.432 95.2391 285.3 95.8849 285.96ZM115.139 288.78C114.35 289.096 113.46 289.254 112.47 289.254C111.207 289.254 110.095 289.003 109.134 288.5C108.172 287.998 107.426 287.302 106.895 286.412C106.378 285.508 106.12 284.489 106.12 283.356C106.12 282.236 106.371 281.232 106.873 280.342C107.39 279.438 108.1 278.735 109.004 278.233C109.909 277.73 110.927 277.479 112.061 277.479C113.18 277.479 114.178 277.73 115.053 278.233C115.943 278.72 116.632 279.416 117.12 280.321C117.622 281.21 117.873 282.244 117.873 283.42C117.873 283.607 117.859 283.872 117.83 284.217H108.811C108.969 285.063 109.378 285.738 110.038 286.24C110.712 286.728 111.545 286.972 112.535 286.972C113.798 286.972 114.838 286.556 115.656 285.724L117.098 287.381C116.582 287.998 115.929 288.464 115.139 288.78ZM109.887 280.385C109.284 280.902 108.918 281.583 108.789 282.43H115.312C115.197 281.598 114.845 280.923 114.257 280.407C113.668 279.89 112.937 279.632 112.061 279.632C111.2 279.632 110.475 279.883 109.887 280.385ZM131.135 284.497L128.336 289.103H125.151L128.918 283.162L125.431 277.608H128.293L131.092 282.258H133.072V277.608H135.741V282.258H137.7L140.52 277.608H143.383L139.896 283.162L143.684 289.103H140.477L137.679 284.497H135.741V289.103H133.072V284.497H131.135ZM153.335 288.78C152.546 289.096 151.656 289.254 150.666 289.254C149.403 289.254 148.291 289.003 147.329 288.5C146.368 287.998 145.622 287.302 145.091 286.412C144.574 285.508 144.316 284.489 144.316 283.356C144.316 282.236 144.567 281.232 145.069 280.342C145.586 279.438 146.296 278.735 147.2 278.233C148.104 277.73 149.123 277.479 150.257 277.479C151.376 277.479 152.373 277.73 153.249 278.233C154.139 278.72 154.827 279.416 155.315 280.321C155.818 281.21 156.069 282.244 156.069 283.42C156.069 283.607 156.054 283.872 156.026 284.217H147.006C147.164 285.063 147.573 285.738 148.233 286.24C148.908 286.728 149.74 286.972 150.73 286.972C151.993 286.972 153.034 286.556 153.852 285.724L155.294 287.381C154.777 287.998 154.124 288.464 153.335 288.78ZM148.083 280.385C147.48 280.902 147.114 281.583 146.985 282.43H153.507C153.392 281.598 153.041 280.923 152.452 280.407C151.864 279.89 151.132 279.632 150.257 279.632C149.396 279.632 148.671 279.883 148.083 280.385ZM160.716 288.414C160.214 289.017 159.532 289.318 158.671 289.318C158.269 289.318 157.774 289.239 157.186 289.082L157.315 286.821C157.516 286.864 157.688 286.886 157.831 286.886C158.377 286.886 158.786 286.671 159.058 286.24C159.331 285.795 159.503 285.272 159.575 284.669C159.661 284.052 159.733 283.176 159.79 282.043L159.984 277.608H169.283V289.103H166.592V279.89H162.287L162.18 282.172C162.108 283.693 161.964 284.97 161.749 286.003C161.548 287.022 161.204 287.826 160.716 288.414ZM178.482 288.845C177.865 289.117 177.126 289.254 176.265 289.254C175.404 289.254 174.65 289.11 174.005 288.823C173.359 288.522 172.857 288.113 172.498 287.596C172.153 287.065 171.981 286.47 171.981 285.81C171.981 284.776 172.361 283.951 173.122 283.334C173.897 282.703 175.11 282.387 176.76 282.387H179.73V282.215C179.73 281.411 179.486 280.794 178.999 280.364C178.525 279.933 177.815 279.718 176.868 279.718C176.222 279.718 175.583 279.818 174.952 280.019C174.335 280.22 173.811 280.5 173.38 280.859L172.326 278.9C172.928 278.441 173.653 278.089 174.5 277.845C175.346 277.601 176.243 277.479 177.19 277.479C178.884 277.479 180.175 277.888 181.065 278.706C181.969 279.51 182.421 280.73 182.421 282.366V289.103H179.881V287.704C179.551 288.206 179.085 288.586 178.482 288.845ZM175.21 286.864C175.598 287.151 176.136 287.295 176.824 287.295C177.499 287.295 178.094 287.144 178.611 286.843C179.142 286.527 179.515 286.082 179.73 285.508V284.174H176.954C175.404 284.174 174.629 284.683 174.629 285.702C174.629 286.19 174.823 286.577 175.21 286.864ZM188.441 284.561V289.103H185.751V277.608H188.441V282.279H194.232V277.608H196.923V289.103H194.232V284.561H188.441ZM209.333 281.526L203.004 289.103H200.529V277.608H203.219V285.185L209.57 277.608H212.023V289.103H209.333V281.526ZM223.672 288.78C222.883 289.096 221.993 289.254 221.003 289.254C219.74 289.254 218.628 289.003 217.666 288.5C216.705 287.998 215.959 287.302 215.428 286.412C214.911 285.508 214.653 284.489 214.653 283.356C214.653 282.236 214.904 281.232 215.406 280.342C215.923 279.438 216.633 278.735 217.537 278.233C218.441 277.73 219.46 277.479 220.594 277.479C221.713 277.479 222.711 277.73 223.586 278.233C224.476 278.72 225.165 279.416 225.652 280.321C226.155 281.21 226.406 282.244 226.406 283.42C226.406 283.607 226.392 283.872 226.363 284.217L217.344 284.217C217.501 285.063 217.91 285.738 218.571 286.24C219.245 286.728 220.077 286.972 221.067 286.972C222.33 286.972 223.371 286.556 224.189 285.724L225.631 287.381C225.114 287.998 224.461 288.464 223.672 288.78ZM218.42 280.385C217.817 280.902 217.451 281.583 217.322 282.43H223.844C223.73 281.598 223.378 280.923 222.79 280.407C222.201 279.89 221.469 279.632 220.594 279.632C219.733 279.632 219.008 279.883 218.42 280.385Z" fill="#434343" fill-opacity="0.4"/>
<path d="M89.9454 41.568H87.7854V48H83.0574V31.2H87.7854V37.728H90.0654L94.0734 31.2H99.0654L93.8094 39.312L99.1134 48H93.7614L89.9454 41.568ZM117.956 31.2L110.996 44.184C110.26 45.576 109.356 46.632 108.284 47.352C107.228 48.072 106.068 48.432 104.804 48.432C103.876 48.432 102.884 48.224 101.828 47.808L102.956 44.304C103.612 44.496 104.172 44.592 104.636 44.592C105.1 44.592 105.508 44.488 105.86 44.28C106.228 44.072 106.564 43.744 106.868 43.296L100.34 31.2H105.356L109.268 39.312L113.324 31.2H117.956ZM136.209 31.2V48H131.505V34.968H125.121V48H120.441V31.2H136.209ZM149.016 48.336C147.24 48.336 145.64 47.96 144.216 47.208C142.808 46.456 141.696 45.416 140.88 44.088C140.08 42.76 139.68 41.264 139.68 39.6C139.68 37.936 140.08 36.44 140.88 35.112C141.696 33.784 142.808 32.744 144.216 31.992C145.64 31.24 147.24 30.864 149.016 30.864C150.792 30.864 152.384 31.24 153.792 31.992C155.216 32.744 156.328 33.784 157.128 35.112C157.944 36.44 158.352 37.936 158.352 39.6C158.352 41.264 157.944 42.76 157.128 44.088C156.328 45.416 155.216 46.456 153.792 47.208C152.384 47.96 150.792 48.336 149.016 48.336ZM149.016 44.4C149.864 44.4 150.632 44.2 151.32 43.8C152.008 43.4 152.552 42.84 152.952 42.12C153.352 41.384 153.552 40.544 153.552 39.6C153.552 38.656 153.352 37.824 152.952 37.104C152.552 36.368 152.008 35.8 151.32 35.4C150.632 35 149.864 34.8 149.016 34.8C148.168 34.8 147.4 35 146.712 35.4C146.024 35.8 145.48 36.368 145.08 37.104C144.68 37.824 144.48 38.656 144.48 39.6C144.48 40.544 144.68 41.384 145.08 42.12C145.48 42.84 146.024 43.4 146.712 43.8C147.4 44.2 148.168 44.4 149.016 44.4ZM177.837 31.2V48H173.085V41.448H166.605V48H161.853V31.2H166.605V37.512H173.085V31.2H177.837Z" fill="#434343"/>
</svg>
