<svg width="322" height="150" viewBox="0 0 322 150" fill="none" xmlns="http://www.w3.org/2000/svg">
<path d="M32.5225 95.5827C15.9442 61.9475 14.1507 13.1409 89.4423 22.8681C164.734 32.5953 240.628 14.4913 275.561 35.6447C310.494 56.7982 297.246 110.216 226.772 120.21C156.298 130.203 49.1009 129.218 32.5225 95.5827Z" fill="#FADE7E"/>
<path d="M70.7769 63.7675C70.0912 63.2952 69.8024 62.6517 69.9103 61.8371L69.9105 61.6441C69.6787 57.1842 69.7362 52.8746 70.083 48.7154C70.1264 48.1579 70.352 47.7079 70.7597 47.3652C71.1888 47.0011 71.6821 46.8407 72.2395 46.8841C72.7969 46.9275 73.247 47.1638 73.5896 47.5929C73.9538 48.0006 74.1141 48.4832 74.0708 49.0406C73.8755 51.549 73.7768 53.9503 73.7748 56.2445L75.2559 54.3483C77.2738 51.7129 78.798 49.538 79.8288 47.8237C80.1723 47.2665 80.655 46.9454 81.2769 46.8602C81.5128 46.7746 81.7487 46.7319 81.9846 46.7322C82.542 46.7112 83.0243 46.8939 83.4313 47.2802C83.8384 47.6451 84.0416 48.1062 84.0411 48.6637C84.0828 50.036 84.0915 52.2551 84.0673 55.3211C84.0433 58.1299 84.0627 60.3598 84.1255 62.0108C84.1464 62.5683 83.9638 63.0505 83.5775 63.4575C83.2126 63.8646 82.7514 64.0786 82.1939 64.0995C81.6579 64.1205 81.1863 63.9485 80.7793 63.5836C80.3723 63.1973 80.1583 62.7362 80.1373 62.2001C80.0745 60.592 80.0553 58.0727 80.0799 54.6421L78.4377 56.7955C75.4109 60.7807 73.7794 62.9341 73.5433 63.2555C73.2427 63.7269 72.8136 64.0052 72.2561 64.0905C71.7199 64.1972 71.2269 64.0896 70.7769 63.7675ZM88.2565 62.2396C88.0873 59.7523 88.0055 55.389 88.0111 49.1497C88.0114 48.8924 88.0545 48.6459 88.1404 48.4101C88.248 47.9814 88.4842 47.6386 88.8489 47.3816C89.2137 47.1032 89.6212 46.9642 90.0714 46.9646L96.568 46.9705C97.1255 46.971 97.597 47.1644 97.9826 47.5507C98.3682 47.937 98.5607 48.4089 98.5602 48.9663C98.5597 49.5238 98.3663 49.9953 97.98 50.3809C97.5938 50.7665 97.1219 50.959 96.5644 50.9585L91.9975 50.9544C91.993 55.8858 92.0755 59.563 92.2448 61.986C92.2872 62.5435 92.1259 63.0365 91.761 63.465C91.3962 63.872 90.935 64.086 90.3775 64.1069C89.82 64.1493 89.327 63.9881 88.8985 63.6232C88.4915 63.2583 88.2775 62.7971 88.2565 62.2396ZM101.58 68.1694C101.497 65.4892 101.361 61.1044 101.174 55.015C100.81 54.6502 100.606 54.2105 100.564 53.6959C100.543 53.1813 100.694 52.7204 101.016 52.3133L101.112 52.1848L101.051 49.1937C101.03 48.6362 101.202 48.154 101.566 47.7469C101.953 47.3399 102.425 47.1366 102.982 47.1371C103.775 47.1164 104.375 47.4707 104.782 48.2001C107.078 46.5512 109.287 46.0923 111.409 46.8232C112.566 47.2102 113.541 47.8757 114.334 48.8198C115.126 49.7854 115.736 50.8687 116.164 52.0698C117.105 54.4935 117.21 56.7342 116.479 58.7918C116.114 60.0351 115.469 61.128 114.547 62.0705C113.645 62.9917 112.508 63.6231 111.136 63.965C109.485 64.3494 107.952 64.2301 106.537 63.607C106.194 63.4566 105.819 63.2526 105.412 62.9949C105.475 64.8175 105.527 66.5006 105.568 68.0444C105.589 68.6019 105.406 69.0734 105.02 69.459C104.655 69.8661 104.194 70.0801 103.637 70.101C103.079 70.1219 102.597 69.9392 102.19 69.5529C101.804 69.1881 101.601 68.7269 101.58 68.1694ZM110.175 60.0404C111.354 59.7627 112.148 59.1417 112.556 58.1772C113.008 56.6553 112.945 55.0579 112.368 53.385C111.833 51.8622 111.083 50.9395 110.119 50.617C109.047 50.2516 107.717 50.8078 106.129 52.2858C105.85 52.5429 105.528 52.9285 105.163 53.4428L105.288 57.6882L106.284 58.5896C106.691 58.9759 107.023 59.2657 107.281 59.4589C107.538 59.6306 107.827 59.7917 108.148 59.9421C108.727 60.1999 109.402 60.2327 110.175 60.0404ZM122.385 70.2788C121.955 70.6215 121.462 70.7711 120.905 70.7277C120.369 70.6844 119.919 70.4481 119.555 70.0189C119.212 69.5898 119.062 69.0965 119.106 68.5391C119.149 68.0031 119.385 67.5531 119.814 67.189C120.244 66.8463 120.716 66.4822 121.231 66.0968C121.767 65.7113 122.196 65.3794 122.518 65.1009C122.861 64.8225 123.172 64.5226 123.451 64.2013L123.451 64.1691C121.204 59.3643 119.429 54.4849 118.126 49.5308C117.976 48.9947 118.041 48.4909 118.32 48.0194C118.599 47.5265 119.007 47.216 119.543 47.0878C120.079 46.9382 120.583 47.003 121.055 47.2822C121.548 47.5614 121.858 47.969 121.986 48.5052C122.948 52.0652 124.145 55.5826 125.579 59.0574C127.083 55.2208 128.115 51.7483 128.676 48.6399C128.762 48.1039 129.03 47.6754 129.481 47.3542C129.953 47.033 130.457 46.9262 130.993 47.0339C131.529 47.1202 131.957 47.3993 132.278 47.8713C132.6 48.3218 132.706 48.8151 132.599 49.351C131.909 53.2312 130.49 57.7646 128.341 62.9514C128.298 63.0371 128.212 63.2515 128.083 63.5944L127.696 64.6232C127.589 64.9233 127.428 65.2769 127.213 65.6841C126.998 66.0913 126.773 66.4449 126.537 66.7448C126.172 67.1733 125.721 67.6124 125.185 68.0622C124.67 68.512 124.112 68.9618 123.511 69.4115C122.91 69.8612 122.535 70.1503 122.385 70.2788ZM138.548 64.215C138.398 64.2363 138.248 64.2254 138.098 64.1824C137.669 64.1606 137.283 64.0101 136.94 63.7311C136.597 63.4306 136.373 63.0659 136.266 62.637C135.924 61.0929 135.668 59.4525 135.498 57.7156C135.329 55.9573 135.223 54.467 135.181 53.2449C135.161 52.0013 135.151 50.6076 135.153 49.0639C135.153 48.5064 135.346 48.0349 135.733 47.6493C136.119 47.2637 136.591 47.0712 137.148 47.0717C137.706 47.0722 138.177 47.2656 138.563 47.6518C138.949 48.0381 139.141 48.51 139.141 49.0675C139.136 53.7416 139.38 57.4404 139.87 60.1638C141.221 60.1222 142.679 60.0913 144.244 60.0713C144.245 59.6425 144.224 58.7098 144.182 57.2732C144.141 55.8366 144.11 54.786 144.089 54.1213C144.089 53.4352 144.101 52.5347 144.123 51.4198C144.124 50.8623 144.146 50.069 144.19 49.0399C144.212 48.4824 144.427 48.0217 144.834 47.6575C145.242 47.272 145.725 47.1009 146.282 47.1443C146.84 47.1662 147.3 47.381 147.664 47.7887C148.05 48.1965 148.221 48.6791 148.178 49.2365C148.134 50.1584 148.101 51.0482 148.079 51.9058C148.078 52.7634 148.088 53.546 148.109 54.2536C148.13 54.9397 148.15 55.9475 148.17 57.2768C148.212 58.6062 148.243 59.5389 148.264 60.075C148.972 60.0542 150.43 60.0555 152.638 60.0789C152.963 56.4343 153.095 52.7787 153.034 49.1122C153.013 48.5548 153.196 48.0832 153.582 47.6976C153.969 47.2906 154.44 47.0873 154.998 47.0879C155.555 47.0669 156.027 47.2496 156.413 47.6359C156.82 48.0222 157.023 48.4941 157.022 49.0515C157.125 53.5113 156.939 57.8744 156.464 62.1407C156.377 62.8911 155.991 63.4267 155.304 63.7477C154.961 63.9618 154.586 64.0687 154.178 64.0683C146.481 64.0614 141.271 64.1102 138.548 64.215ZM172.637 63.5062C170.474 61.1886 168.675 59.0429 167.24 57.069L164.955 59.1574C165.039 60.0795 165.146 61.0015 165.274 61.9236C165.337 62.4811 165.208 62.9849 164.886 63.4348C164.564 63.8633 164.125 64.1095 163.567 64.1733C163.009 64.2586 162.506 64.1402 162.056 63.8182C161.627 63.4962 161.37 63.0564 161.285 62.4989C160.753 58.6819 160.596 54.1684 160.815 48.9585C160.837 48.401 161.052 47.9403 161.459 47.5761C161.867 47.1906 162.35 47.0195 162.907 47.0629C163.465 47.0848 163.925 47.2996 164.29 47.7073C164.675 48.1151 164.846 48.5977 164.803 49.1551C164.737 50.8917 164.703 52.4891 164.702 53.947L171.751 47.5211C172.18 47.1356 172.663 46.9645 173.199 47.0079C173.756 47.0298 174.217 47.2554 174.581 47.6845C174.967 48.0923 175.138 48.5748 175.094 49.1323C175.073 49.6683 174.858 50.1183 174.45 50.4824L170.233 54.338C171.625 56.3333 173.435 58.4897 175.663 60.8074C176.027 61.2365 176.187 61.7298 176.144 62.2872C176.122 62.8232 175.896 63.284 175.467 63.6696C175.059 64.0337 174.577 64.194 174.019 64.1507C173.483 64.1287 173.023 63.9139 172.637 63.5062ZM185.316 63.9679C184.223 64.31 183.204 64.3734 182.261 64.1581C181.318 63.9214 180.471 63.5026 179.721 62.9015C178.993 62.3005 178.393 61.6032 177.922 60.8094C177.473 59.9942 177.195 59.1685 177.088 58.3322C176.875 56.7454 176.962 55.1803 177.35 53.6369C177.759 52.0721 178.446 50.7326 179.412 49.6186C180.485 48.3331 181.804 47.5195 183.37 47.1779C184.935 46.8148 186.704 47.0094 188.676 47.7616C189.34 48.0195 190.047 48.4704 190.797 49.1143C190.883 49.2216 191.011 49.3504 191.183 49.5006L191.697 49.9514C191.847 50.0801 191.997 50.1982 192.147 50.3055C192.576 50.6275 192.822 51.0673 192.885 51.6248C192.971 52.1609 192.852 52.6432 192.53 53.0718C192.273 53.3931 191.94 53.618 191.533 53.7462L191.565 53.7784C191.736 54.1645 191.832 54.6685 191.853 55.2903C191.874 55.5476 191.874 55.7942 191.852 56.03C191.852 56.2444 191.852 56.3731 191.852 56.4159C191.852 56.4588 191.863 56.5339 191.884 56.6411C192.033 57.3059 192.194 58.0672 192.364 58.925C192.407 59.1823 192.439 59.3432 192.46 59.4075C192.503 59.4719 192.557 59.5362 192.621 59.6006L194.003 60.9526C194.41 61.3604 194.602 61.843 194.58 62.4004C194.58 62.9365 194.376 63.3973 193.968 63.7828C193.582 64.1684 193.121 64.3502 192.585 64.3283C192.048 64.3278 191.588 64.1344 191.202 63.7481L189.853 62.4283C189.381 61.9562 189.049 61.5271 188.857 61.1409L188.825 61.0444C188.803 61.0873 188.717 61.2051 188.567 61.398L188.213 61.8479L187.762 62.3299C187.59 62.5227 187.419 62.6941 187.247 62.844L186.668 63.2616C186.453 63.4115 186.228 63.5507 185.992 63.6791C185.778 63.7861 185.552 63.8824 185.316 63.9679ZM184.033 60.2361C184.119 60.2147 184.205 60.1826 184.291 60.1398C184.376 60.0756 184.452 60.022 184.516 59.9792C184.58 59.9149 184.666 59.8185 184.774 59.69C184.881 59.5614 184.977 59.4543 185.063 59.3686C185.149 59.2829 185.289 59.133 185.482 58.9187L185.9 58.3724C186.051 58.201 186.255 57.8045 186.512 57.183C186.534 57.1187 186.545 57.0436 186.545 56.9579C186.566 56.8721 186.577 56.722 186.577 56.5076C186.599 56.2718 186.631 56.0145 186.675 55.7358C186.826 54.2566 187.427 53.2601 188.478 52.7465C188.564 52.7037 188.65 52.6716 188.736 52.6502L188.222 52.1352C187.793 51.7703 187.44 51.5341 187.161 51.4267C185.146 50.5886 183.57 50.8445 182.433 52.1942C181.853 52.8369 181.434 53.6728 181.176 54.7017C180.918 55.7092 180.863 56.7597 181.012 57.8534C181.119 58.6468 181.504 59.2904 182.168 59.7841C182.833 60.2778 183.454 60.4285 184.033 60.2361ZM212.77 62.2561C212.77 62.7922 212.566 63.2637 212.158 63.6707C211.772 64.0563 211.3 64.2381 210.742 64.2161C210.206 64.2157 209.735 64.0223 209.328 63.6359C208.942 63.2282 208.761 62.7456 208.782 62.1882C208.829 58.1359 208.822 54.4695 208.76 51.189C207.045 51.1874 205.909 51.1757 205.351 51.1537C204.815 51.1532 204.344 50.9598 203.937 50.5735C203.551 50.1658 203.359 49.6939 203.359 49.1579C203.381 48.6005 203.585 48.1289 203.971 47.7433C204.379 47.3363 204.862 47.1438 205.419 47.1658C211.594 47.2142 215.271 47.239 216.45 47.2401C217.008 47.2192 217.479 47.4126 217.865 47.8203C218.272 48.2066 218.475 48.6785 218.475 49.2359C218.496 49.772 218.302 50.2435 217.895 50.6505C217.508 51.0361 217.047 51.2286 216.511 51.2282C216.147 51.2493 214.903 51.2589 212.78 51.2569C212.82 54.5589 212.817 58.2253 212.77 62.2561ZM227.434 64.0062C226.34 64.3482 225.322 64.4116 224.378 64.1963C223.435 63.9596 222.589 63.5408 221.839 62.9397C221.11 62.3387 220.511 61.6414 220.04 60.8476C219.59 60.0325 219.312 59.2067 219.206 58.3704C218.993 56.7836 219.08 55.2185 219.467 53.6751C219.876 52.1103 220.563 50.7709 221.529 49.6568C222.602 48.3713 223.922 47.5578 225.487 47.2161C227.053 46.8531 228.822 47.0476 230.793 47.7998C231.458 48.0577 232.165 48.5086 232.915 49.1525C233.001 49.2598 233.129 49.3886 233.3 49.5388L233.815 49.9896C233.965 50.1183 234.115 50.2364 234.265 50.3437C234.693 50.6657 234.939 51.1055 235.003 51.663C235.088 52.1991 234.97 52.6814 234.648 53.11C234.39 53.4314 234.058 53.6562 233.65 53.7845L233.683 53.8167C233.854 54.2027 233.95 54.7067 233.971 55.3285C233.992 55.5858 233.992 55.8324 233.97 56.0682C233.97 56.2826 233.97 56.4113 233.97 56.4541C233.97 56.497 233.98 56.5721 234.002 56.6793C234.151 57.3441 234.311 58.1054 234.482 58.9632C234.525 59.2205 234.557 59.3814 234.578 59.4457C234.621 59.5101 234.674 59.5744 234.739 59.6388L236.12 60.9909C236.527 61.3986 236.72 61.8812 236.698 62.4386C236.697 62.9747 236.493 63.4355 236.086 63.821C235.699 64.2066 235.238 64.3884 234.702 64.3665C234.166 64.366 233.705 64.1726 233.32 63.7864L231.97 62.4665C231.499 61.9944 231.167 61.5653 230.974 61.1792L230.942 61.0826C230.921 61.1255 230.835 61.2434 230.685 61.4362L230.33 61.8861L229.88 62.3681C229.708 62.561 229.536 62.7323 229.365 62.8823L228.785 63.2998C228.571 63.4497 228.346 63.5889 228.11 63.7173C227.895 63.8243 227.67 63.9206 227.434 64.0062ZM226.151 60.2743C226.237 60.2529 226.322 60.2208 226.408 60.178C226.494 60.1138 226.569 60.0602 226.634 60.0174C226.698 59.9531 226.784 59.8567 226.891 59.7282C226.998 59.5996 227.095 59.4925 227.181 59.4068C227.267 59.3212 227.406 59.1712 227.599 58.957L228.018 58.4106C228.168 58.2392 228.372 57.8427 228.63 57.2212C228.652 57.1569 228.662 57.0818 228.662 56.9961C228.684 56.9103 228.695 56.7603 228.695 56.5458C228.717 56.31 228.749 56.0528 228.792 55.7741C228.944 54.2948 229.545 53.2983 230.596 52.7847C230.682 52.7419 230.768 52.7098 230.853 52.6884L230.339 52.1734C229.911 51.8085 229.557 51.5723 229.279 51.4649C227.264 50.6268 225.688 50.8827 224.55 52.2325C223.971 52.8752 223.552 53.711 223.294 54.7399C223.035 55.7474 222.981 56.798 223.13 57.8916C223.236 58.685 223.622 59.3286 224.286 59.8223C224.95 60.3161 225.572 60.4667 226.151 60.2743ZM250.528 63.5768C248.365 61.2593 246.565 59.1135 245.131 57.1397L242.845 59.2281C242.93 60.1501 243.037 61.0722 243.164 61.9943C243.228 62.5518 243.099 63.0555 242.777 63.5055C242.455 63.934 242.015 64.1802 241.458 64.244C240.9 64.3293 240.397 64.2109 239.947 63.8889C239.518 63.5669 239.261 63.1271 239.176 62.5695C238.643 58.7526 238.487 54.2391 238.706 49.0292C238.728 48.4717 238.943 48.0109 239.35 47.6468C239.758 47.2612 240.241 47.0901 240.798 47.1335C241.355 47.1555 241.816 47.3703 242.18 47.778C242.566 48.1857 242.737 48.6683 242.694 49.2257C242.628 50.9624 242.594 52.5597 242.593 54.0177L249.642 47.5918C250.071 47.2063 250.554 47.0352 251.09 47.0785C251.647 47.1005 252.108 47.326 252.472 47.7552C252.858 48.1629 253.029 48.6455 252.985 49.2029C252.963 49.7389 252.749 50.189 252.341 50.5531L248.124 54.4087C249.516 56.4039 251.326 58.5604 253.554 60.878C253.918 61.3072 254.078 61.8005 254.035 62.3579C254.013 62.8939 253.787 63.3547 253.358 63.7402C252.95 64.1043 252.468 64.2647 251.91 64.2213C251.374 64.1994 250.914 63.9846 250.528 63.5768ZM93.4417 93.7881C92.756 93.3158 92.4672 92.6723 92.5751 91.8576L92.5753 91.6647C92.3435 87.2047 92.401 82.8952 92.7478 78.7359C92.7912 78.1785 93.0167 77.7285 93.4244 77.3858C93.8536 77.0217 94.3469 76.8613 94.9043 76.9047C95.4617 76.9481 95.9118 77.1843 96.2544 77.6135C96.6185 78.0212 96.7789 78.5037 96.7355 79.0612C96.5403 81.5696 96.4416 83.9709 96.4395 86.2651L97.9207 84.3689C99.9385 81.7335 101.463 79.5586 102.494 77.8443C102.837 77.2871 103.32 76.9659 103.942 76.8807C104.178 76.7952 104.413 76.7525 104.649 76.7527C105.207 76.7318 105.689 76.9145 106.096 77.3008C106.503 77.6657 106.706 78.1268 106.706 78.6843C106.748 80.0565 106.756 82.2757 106.732 85.3417C106.708 88.1505 106.727 90.3803 106.79 92.0313C106.811 92.5888 106.629 93.0711 106.242 93.4781C105.877 93.8852 105.416 94.0991 104.859 94.1201C104.323 94.141 103.851 93.9691 103.444 93.6042C103.037 93.2179 102.823 92.7567 102.802 92.2207C102.739 90.6126 102.72 88.0932 102.745 84.6627L101.102 86.816C98.0757 90.8013 96.4442 92.9546 96.2081 93.276C95.9075 93.7475 95.4784 94.0258 94.9208 94.1111C94.3847 94.2178 93.8917 94.1101 93.4417 93.7881ZM110.921 92.2602C110.752 89.7729 110.67 85.4096 110.676 79.1703C110.676 78.913 110.719 78.6665 110.805 78.4307C110.913 78.002 111.149 77.6591 111.514 77.4022C111.878 77.1238 112.286 76.9848 112.736 76.9852L119.233 76.9911C119.79 76.9916 120.262 77.185 120.647 77.5713C121.033 77.9576 121.226 78.4294 121.225 78.9869C121.225 79.5444 121.031 80.0159 120.645 80.4015C120.259 80.7871 119.787 80.9796 119.229 80.9791L114.662 80.975C114.658 85.9064 114.74 89.5836 114.91 92.0065C114.952 92.5641 114.791 93.057 114.426 93.4855C114.061 93.8926 113.6 94.1066 113.042 94.1275C112.485 94.1699 111.992 94.0086 111.563 93.6437C111.156 93.2789 110.942 92.8177 110.921 92.2602ZM124.245 98.19C124.161 95.5098 124.026 91.125 123.839 85.0356C123.474 84.6708 123.271 84.2311 123.229 83.7165C123.208 83.2019 123.358 82.741 123.68 82.3339L123.777 82.2054L123.715 79.2143C123.694 78.6568 123.866 78.1745 124.231 77.7675C124.618 77.3605 125.089 77.1572 125.647 77.1577C126.44 77.137 127.04 77.4913 127.447 78.2207C129.743 76.5718 131.951 76.1128 134.073 76.8437C135.231 77.2307 136.206 77.8963 136.998 78.8404C137.791 79.806 138.401 80.8893 138.829 82.0904C139.77 84.5141 139.875 86.7547 139.144 88.8124C138.778 90.0556 138.134 91.1485 137.211 92.0911C136.31 93.0122 135.173 93.6437 133.801 93.9855C132.149 94.37 130.616 94.2507 129.202 93.6276C128.859 93.4772 128.484 93.2732 128.077 93.0155C128.139 94.838 128.191 96.5212 128.233 98.065C128.254 98.6225 128.071 99.094 127.685 99.4796C127.32 99.8866 126.859 100.101 126.301 100.122C125.744 100.142 125.262 99.9598 124.855 99.5735C124.469 99.2087 124.266 98.7475 124.245 98.19ZM132.839 90.061C134.019 89.7833 134.813 89.1622 135.221 88.1978C135.673 86.6759 135.61 85.0785 135.032 83.4055C134.498 81.8828 133.748 80.9601 132.784 80.6376C131.712 80.2722 130.382 80.8284 128.794 82.3064C128.515 82.5634 128.193 82.9491 127.828 83.4633L127.953 87.7088L128.949 88.6102C129.356 88.9965 129.688 89.2862 129.945 89.4794C130.202 89.6512 130.492 89.8123 130.813 89.9626C131.392 90.2205 132.067 90.2532 132.839 90.061ZM145.049 100.299C144.62 100.642 144.127 100.792 143.57 100.748C143.034 100.705 142.583 100.469 142.219 100.04C141.877 99.6104 141.727 99.1171 141.77 98.5597C141.814 98.0237 142.05 97.5737 142.479 97.2096C142.908 96.8669 143.38 96.5028 143.895 96.1173C144.432 95.7319 144.861 95.4 145.183 95.1215C145.526 94.8431 145.837 94.5432 146.116 94.2218L146.116 94.1897C143.869 89.3849 142.094 84.5054 140.791 79.5514C140.641 79.0152 140.706 78.5114 140.985 78.04C141.264 77.5471 141.672 77.2366 142.208 77.1084C142.744 76.9588 143.248 77.0236 143.719 77.3028C144.212 77.5819 144.523 77.9896 144.651 78.5257C145.613 82.0858 146.81 85.6032 148.244 89.0779C149.748 85.2414 150.78 81.7689 151.34 78.6605C151.427 78.1245 151.695 77.6959 152.146 77.3747C152.618 77.0535 153.122 76.9468 153.658 77.0545C154.193 77.1407 154.622 77.4199 154.943 77.8918C155.264 78.3424 155.371 78.8356 155.263 79.3716C154.574 83.2517 153.155 87.7852 151.006 92.972C150.963 93.0577 150.877 93.272 150.748 93.615L150.361 94.6438C150.254 94.9439 150.093 95.2975 149.878 95.7047C149.663 96.1119 149.437 96.4654 149.201 96.7654C148.836 97.1939 148.386 97.633 147.849 98.0828C147.334 98.5326 146.777 98.9823 146.176 99.432C145.575 99.8818 145.2 100.171 145.049 100.299ZM161.213 94.2355C161.063 94.2568 160.913 94.246 160.762 94.203C160.334 94.1811 159.948 94.0307 159.605 93.7517C159.262 93.4512 159.037 93.0865 158.931 92.6576C158.589 91.1135 158.333 89.473 158.163 87.7362C157.993 85.9779 157.887 84.4876 157.846 83.2654C157.825 82.0218 157.816 80.6282 157.817 79.0844C157.818 78.527 158.011 78.0554 158.398 77.6699C158.784 77.2843 159.256 77.0917 159.813 77.0922C160.371 77.0927 160.842 77.2861 161.228 77.6724C161.613 78.0587 161.806 78.5306 161.805 79.088C161.801 83.7622 162.044 87.461 162.535 90.1844C163.886 90.1427 165.344 90.1119 166.909 90.0919C166.909 89.6631 166.889 88.7304 166.847 87.2938C166.806 85.8572 166.774 84.8066 166.754 84.1419C166.754 83.4558 166.766 82.5553 166.788 81.4404C166.789 80.8829 166.811 80.0896 166.855 79.0605C166.877 78.503 167.091 78.0422 167.499 77.6781C167.907 77.2925 168.389 77.1215 168.947 77.1648C169.504 77.1868 169.965 77.4016 170.329 77.8093C170.715 78.2171 170.886 78.6996 170.843 79.2571C170.799 80.179 170.766 81.0687 170.744 81.9264C170.743 82.784 170.753 83.5666 170.774 84.2742C170.794 84.9603 170.815 85.968 170.835 87.2974C170.877 88.6268 170.908 89.5595 170.929 90.0955C171.637 90.0747 173.095 90.0761 175.303 90.0995C175.628 86.4548 175.76 82.7993 175.699 79.1328C175.678 78.5753 175.861 78.1038 176.247 77.7182C176.633 77.3112 177.105 77.1079 177.663 77.1084C178.22 77.0875 178.692 77.2702 179.077 77.6565C179.484 78.0428 179.688 78.5146 179.687 79.0721C179.79 83.5319 179.604 87.895 179.128 92.1613C179.042 92.9117 178.656 93.4473 177.969 93.7683C177.626 93.9824 177.251 94.0893 176.843 94.0889C169.146 94.0819 163.936 94.1308 161.213 94.2355ZM195.302 93.5268C193.138 91.2092 191.339 89.0634 189.905 87.0896L187.619 89.178C187.704 90.1 187.811 91.0221 187.938 91.9442C188.002 92.5017 187.873 93.0054 187.551 93.4554C187.229 93.8839 186.789 94.1301 186.232 94.1939C185.674 94.2792 185.17 94.1608 184.721 93.8388C184.292 93.5168 184.035 93.077 183.95 92.5194C183.417 88.7025 183.261 84.189 183.48 78.9791C183.502 78.4216 183.716 77.9608 184.124 77.5967C184.532 77.2111 185.014 77.0401 185.572 77.0834C186.129 77.1054 186.59 77.3202 186.954 77.7279C187.34 78.1357 187.511 78.6182 187.468 79.1757C187.402 80.9123 187.368 82.5096 187.367 83.9676L194.416 77.5417C194.845 77.1562 195.328 76.9851 195.864 77.0285C196.421 77.0504 196.882 77.2759 197.246 77.7051C197.632 78.1128 197.803 78.5954 197.759 79.1528C197.737 79.6888 197.522 80.1389 197.115 80.503L192.898 84.3586C194.29 86.3538 196.1 88.5103 198.328 90.8279C198.692 91.2571 198.852 91.7504 198.809 92.3078C198.787 92.8438 198.561 93.3046 198.132 93.6901C197.724 94.0543 197.242 94.2146 196.684 94.1712C196.148 94.1493 195.687 93.9345 195.302 93.5268ZM207.981 93.9885C206.887 94.3306 205.869 94.394 204.926 94.1787C203.982 93.942 203.136 93.5231 202.386 92.9221C201.658 92.3211 201.058 91.6237 200.587 90.83C200.137 90.0148 199.859 89.1891 199.753 88.3528C199.54 86.766 199.627 85.2009 200.014 83.6575C200.423 82.0927 201.111 80.7532 202.076 79.6392C203.15 78.3537 204.469 77.5401 206.035 77.1985C207.6 76.8354 209.369 77.03 211.341 77.7822C212.005 78.0401 212.712 78.491 213.462 79.1349C213.548 79.2422 213.676 79.371 213.848 79.5212L214.362 79.9719C214.512 80.1007 214.662 80.2188 214.812 80.3261C215.24 80.6481 215.486 81.0879 215.55 81.6454C215.636 82.1815 215.517 82.6638 215.195 83.0923C214.938 83.4137 214.605 83.6385 214.198 83.7668L214.23 83.799C214.401 84.1851 214.497 84.6891 214.518 85.3109C214.539 85.5682 214.539 85.8147 214.517 86.0506C214.517 86.265 214.517 86.3936 214.517 86.4365C214.517 86.4794 214.527 86.5544 214.549 86.6617C214.698 87.3265 214.858 88.0878 215.029 88.9456C215.072 89.2029 215.104 89.3637 215.125 89.4281C215.168 89.4924 215.221 89.5568 215.286 89.6212L216.667 90.9732C217.074 91.381 217.267 91.8636 217.245 92.421C217.245 92.957 217.04 93.4178 216.633 93.8034C216.246 94.189 215.785 94.3708 215.249 94.3489C214.713 94.3484 214.252 94.155 213.867 93.7687L212.517 92.4489C212.046 91.9768 211.714 91.5476 211.521 91.1615L211.489 91.065C211.468 91.1079 211.382 91.2257 211.232 91.4186L210.878 91.8685L210.427 92.3505C210.255 92.5433 210.083 92.7147 209.912 92.8646L209.333 93.2822C209.118 93.4321 208.893 93.5712 208.657 93.6997C208.442 93.8067 208.217 93.903 207.981 93.9885ZM206.698 90.2566C206.784 90.2353 206.87 90.2032 206.955 90.1604C207.041 90.0961 207.116 90.0426 207.181 89.9998C207.245 89.9355 207.331 89.8391 207.438 89.7106C207.546 89.582 207.642 89.4749 207.728 89.3892C207.814 89.3035 207.953 89.1536 208.147 88.9393L208.565 88.393C208.715 88.2216 208.919 87.8251 209.177 87.2035C209.199 87.1392 209.21 87.0642 209.21 86.9784C209.231 86.8927 209.242 86.7426 209.242 86.5282C209.264 86.2924 209.296 86.0351 209.339 85.7564C209.491 84.2771 210.092 83.2807 211.143 82.767C211.229 82.7242 211.315 82.6922 211.401 82.6708L210.886 82.1557C210.458 81.7909 210.104 81.5547 209.826 81.4472C207.811 80.6092 206.235 80.8651 205.097 82.2148C204.518 82.8575 204.099 83.6933 203.841 84.7223C203.583 85.7298 203.528 86.7803 203.677 87.8739C203.784 88.6674 204.169 89.3109 204.833 89.8047C205.497 90.2984 206.119 90.4491 206.698 90.2566ZM222.523 90.2067C222.995 90.6788 223.23 91.2472 223.229 91.9119C223.229 92.5765 222.992 93.1445 222.52 93.6158C222.048 94.087 221.48 94.3224 220.815 94.3218C220.15 94.3212 219.582 94.0848 219.111 93.6127C218.64 93.1405 218.404 92.5721 218.405 91.9075C218.406 91.2428 218.642 90.6748 219.114 90.2036C219.586 89.7323 220.155 89.497 220.819 89.4976C221.484 89.4982 222.052 89.7345 222.523 90.2067ZM229.59 90.2131C230.061 90.6852 230.297 91.2536 230.296 91.9183C230.295 92.5829 230.059 93.1509 229.587 93.6222C229.115 94.0935 228.546 94.3288 227.882 94.3282C227.217 94.3276 226.649 94.0912 226.178 93.6191C225.707 93.147 225.471 92.5786 225.472 91.9139C225.472 91.2492 225.709 90.6813 226.181 90.21C226.653 89.7387 227.221 89.5034 227.886 89.504C228.551 89.5046 229.119 89.7409 229.59 90.2131Z" fill="#434343"/>
</svg>
