<svg width="357" height="203" viewBox="0 0 357 203" fill="none" xmlns="http://www.w3.org/2000/svg">
<path d="M25.3419 83.8047C4.2342 56.1239 1.27925 16.2884 95.0149 25.3417C188.751 34.395 282.821 20.7569 326.559 38.5299C370.297 56.3029 354.623 99.6757 267.169 106.779C179.715 113.883 46.4497 111.485 25.3419 83.8047Z" fill="#FADE7E"/>
<path d="M72.6173 75.1602C70.4539 72.8426 68.6548 70.6969 67.22 68.723L64.9347 70.8115C65.0196 71.7335 65.126 72.6556 65.2538 73.5776C65.3176 74.1352 65.1885 74.6389 64.8665 75.0889C64.5445 75.5174 64.1047 75.7636 63.5472 75.8274C62.9896 75.9126 62.4859 75.7943 62.0359 75.4722C61.6074 75.1502 61.3505 74.7105 61.2652 74.1529C60.7327 70.3359 60.576 65.8225 60.7951 60.6125C60.817 60.0551 61.0319 59.5943 61.4396 59.2302C61.8473 58.8446 62.3299 58.6735 62.8873 58.7169C63.4447 58.7389 63.9055 58.9537 64.2697 59.3614C64.6552 59.7691 64.8263 60.2517 64.7829 60.8091C64.717 62.5458 64.6834 64.1431 64.6821 65.6011L71.7313 59.1752C72.1604 58.7896 72.643 58.6186 73.179 58.6619C73.7364 58.6839 74.1972 58.9094 74.5613 59.3386C74.9469 59.7463 75.118 60.2289 75.0746 60.7863C75.0527 61.3223 74.8379 61.7724 74.4301 62.1365L70.2135 65.992C71.6054 67.9873 73.4152 70.1438 75.6429 72.4614C76.007 72.8906 76.1674 73.3838 76.124 73.9413C76.1021 74.4773 75.8765 74.9381 75.4473 75.3236C75.0396 75.6877 74.5571 75.8481 73.9996 75.8047C73.4636 75.7828 73.0029 75.568 72.6173 75.1602ZM80.8771 81.9859C80.448 82.3286 79.9547 82.4782 79.3972 82.4349C78.8613 82.3915 78.4112 82.1552 78.0471 81.7261C77.7044 81.2969 77.5548 80.8037 77.5982 80.2462C77.6416 79.7103 77.8778 79.2602 78.307 78.8961C78.7361 78.5534 79.2081 78.1894 79.7231 77.8039C80.2594 77.4185 80.6886 77.0865 81.0104 76.8081C81.3537 76.5296 81.6649 76.2298 81.9439 75.9084L81.944 75.8762C79.697 71.0714 77.9218 66.192 76.6184 61.238C76.4688 60.7018 76.5336 60.198 76.8128 59.7266C77.092 59.2337 77.4996 58.9231 78.0358 58.795C78.5719 58.6454 79.0757 58.7102 79.5472 58.9893C80.0401 59.2685 80.3506 59.6762 80.4787 60.2123C81.4403 63.7724 82.6379 67.2898 84.0712 70.7645C85.5756 66.9279 86.6079 63.4554 87.1682 60.347C87.2544 59.8111 87.5228 59.3825 87.9734 59.0613C88.4454 58.7401 88.9493 58.6334 89.4853 58.741C90.0212 58.8273 90.4498 59.1064 90.771 59.5784C91.0922 60.029 91.1989 60.5222 91.0912 61.0581C90.4016 64.9383 88.9824 69.4718 86.8336 74.6585C86.7906 74.7443 86.7047 74.9586 86.5757 75.3015L86.1888 76.3303C86.0814 76.6304 85.9202 76.9841 85.7055 77.3912C85.4907 77.7984 85.2652 78.152 85.0291 78.4519C84.6642 78.8804 84.2136 79.3196 83.6771 79.7693C83.1621 80.2191 82.6043 80.6689 82.0035 81.1186C81.4028 81.5683 81.0273 81.8574 80.8771 81.9859ZM94.019 73.9575C93.9983 73.1427 93.9779 72.0599 93.9577 70.7091C93.9374 69.3584 93.9275 68.4685 93.9279 68.0397C93.8873 65.5954 93.7819 63.5584 93.6119 61.9288C93.5907 61.6286 93.6231 61.3499 93.7091 61.0927C93.6878 60.9854 93.6771 60.8782 93.6772 60.771C93.6563 60.2135 93.839 59.742 94.2253 59.3564C94.6116 58.9494 95.0834 58.7461 95.6409 58.7466C95.7052 58.7467 96.3056 58.7258 97.442 58.6839C98.5784 58.6421 99.5647 58.6108 100.401 58.5901C101.645 58.5698 102.663 58.5708 103.456 58.5929C103.949 58.5934 104.357 58.6152 104.678 58.6583C105.193 58.7017 105.6 58.7771 105.9 58.8846C107.101 59.3788 108.011 60.4624 108.631 62.1354C108.759 62.4357 108.834 62.8645 108.855 63.422C108.876 63.7865 108.886 64.2582 108.886 64.8372C108.885 65.7377 108.863 66.9383 108.818 68.4392C108.796 69.1467 108.763 69.8971 108.72 70.6904C108.676 71.4837 108.633 72.1697 108.589 72.7486C108.567 73.3275 108.556 73.7241 108.556 73.9385C108.556 74.4746 108.351 74.9461 107.944 75.3531C107.557 75.7387 107.086 75.9205 106.528 75.8985C105.992 75.8981 105.521 75.7047 105.113 75.3184C104.728 74.9106 104.546 74.428 104.568 73.8706C104.568 73.6776 104.579 73.281 104.601 72.6807C104.623 72.0803 104.656 71.3728 104.7 70.5581C104.743 69.7434 104.776 68.9822 104.798 68.2747C104.842 66.8168 104.865 65.6697 104.866 64.8335L104.867 63.6435C104.845 63.5578 104.835 63.4827 104.835 63.4184C104.685 63.0537 104.546 62.7963 104.417 62.6461L104.321 62.646C104.085 62.6244 103.764 62.6026 103.356 62.5808C102.627 62.5802 101.662 62.59 100.462 62.6104C99.6897 62.6311 98.7677 62.6517 97.6957 62.6722C97.823 64.1732 97.9071 65.9421 97.9482 67.979C97.9477 68.4293 97.9469 69.3191 97.9457 70.6484C97.966 71.9778 97.9864 73.0391 98.0072 73.8325C98.0281 74.39 97.8454 74.8722 97.4591 75.2792C97.0942 75.6863 96.6331 75.8896 96.0756 75.8891C95.5181 75.91 95.0359 75.738 94.6288 75.3732C94.2218 74.9869 94.0185 74.515 94.019 73.9575ZM115.819 74.9421C114.469 74.1905 113.452 73.0961 112.767 71.6589C112.082 70.2217 111.74 68.6991 111.742 67.091C111.743 65.5044 112.077 63.9931 112.743 62.5572C113.43 61.1213 114.45 60.018 115.801 59.2473C116.445 58.8834 117.271 58.6698 118.278 58.6064C118.6 58.285 118.986 58.0924 119.437 58.0285C119.908 57.9646 120.348 58.0615 120.755 58.3192C121.269 58.6627 122.03 59.1136 123.037 59.672C123.895 60.1659 124.527 60.5739 124.934 60.8959C125.576 61.4753 126.058 62.1619 126.379 62.9555C126.721 63.7491 126.989 64.7785 127.18 66.0437C127.393 67.5448 127.263 69.0241 126.79 70.4816C126.317 71.9392 125.555 73.1499 124.504 74.1138C123.366 75.1634 122.047 75.7733 120.546 75.9434C119.045 76.1136 117.47 75.7798 115.819 74.9421ZM117.72 71.4704C119.306 72.3509 120.667 72.2664 121.805 71.2168C122.363 70.7028 122.781 70.0385 123.061 69.224C123.34 68.388 123.405 67.509 123.256 66.5869C123.043 65.1073 122.733 64.2065 122.326 63.8845C122.133 63.7128 121.737 63.4552 121.137 63.1116L119.979 62.4673C119.808 62.4886 119.604 62.4991 119.368 62.4989L119.015 62.4986C118.8 62.4984 118.639 62.5089 118.532 62.5303C118.146 62.5514 117.889 62.594 117.76 62.6582C117.138 63.0222 116.634 63.6006 116.247 64.3936C115.882 65.1866 115.699 66.0976 115.698 67.1268C115.697 68.1345 115.878 69.0352 116.242 69.8288C116.606 70.6011 117.098 71.1482 117.72 71.4704ZM134.211 75.1196C133.847 75.5481 133.385 75.7943 132.828 75.8581C132.292 75.9219 131.809 75.7821 131.381 75.4387C130.952 75.0738 130.706 74.6233 130.642 74.0872C130.557 73.2295 130.483 72.3718 130.42 71.5141C130.356 70.635 130.314 69.6486 130.294 68.5551L130.232 66.0465C130.232 65.4676 130.222 64.5456 130.202 63.2806C130.203 62.0156 130.204 61.2115 130.204 60.8685C130.183 60.311 130.366 59.8395 130.752 59.4539C131.16 59.0469 131.632 58.8436 132.168 58.8441C132.725 58.8232 133.197 59.0166 133.582 59.4243C133.989 59.8106 134.193 60.2718 134.192 60.8078C134.213 61.3438 134.223 62.1157 134.222 63.1234L134.221 65.0531C136.193 64.9906 138.337 64.9604 140.653 64.9625L140.56 60.8136C140.539 60.2561 140.722 59.7738 141.108 59.3668C141.495 58.9598 141.956 58.7565 142.492 58.757C143.049 58.736 143.532 58.9187 143.939 59.305C144.346 59.6913 144.549 60.1525 144.548 60.6885C144.735 67.3139 144.839 71.6987 144.858 73.8428C144.879 74.4003 144.696 74.8826 144.31 75.2896C143.924 75.6752 143.452 75.8677 142.894 75.8672C142.337 75.8881 141.855 75.7055 141.448 75.3192C141.062 74.9329 140.869 74.461 140.87 73.9035C140.828 72.4026 140.798 70.7516 140.778 68.9506C138.419 68.9699 136.265 69.0108 134.313 69.0734C134.376 70.7029 134.482 72.2253 134.631 73.6406C134.695 74.1981 134.555 74.6911 134.211 75.1196ZM164.95 73.9575C164.95 74.4936 164.745 74.9651 164.338 75.3721C163.951 75.7577 163.48 75.9395 162.922 75.9175C162.386 75.9171 161.915 75.7237 161.508 75.3374C161.122 74.9296 160.94 74.447 160.962 73.8896C161.009 69.8373 161.001 66.1709 160.94 62.8904C159.225 62.8888 158.088 62.8771 157.531 62.8551C156.995 62.8546 156.523 62.6612 156.116 62.2749C155.731 61.8672 155.538 61.3953 155.539 60.8593C155.561 60.3019 155.765 59.8303 156.151 59.4448C156.559 59.0377 157.041 58.8452 157.599 58.8672C163.774 58.9156 167.451 58.9404 168.63 58.9415C169.188 58.9206 169.659 59.114 170.045 59.5217C170.452 59.908 170.655 60.3799 170.654 60.9373C170.675 61.4734 170.482 61.9449 170.074 62.3519C169.688 62.7375 169.227 62.9301 168.691 62.9296C168.326 62.9507 167.083 62.9603 164.96 62.9583C165 66.2603 164.997 69.9267 164.95 73.9575ZM179.614 75.7076C178.52 76.0496 177.501 76.113 176.558 75.8978C175.615 75.661 174.768 75.2422 174.018 74.6412C173.29 74.0401 172.69 73.3428 172.219 72.549C171.77 71.7339 171.492 70.9081 171.385 70.0718C171.172 68.485 171.26 66.9199 171.647 65.3765C172.056 63.8117 172.743 62.4723 173.709 61.3582C174.782 60.0727 176.101 59.2592 177.667 58.9175C179.232 58.5545 181.001 58.749 182.973 59.5013C183.637 59.7591 184.345 60.21 185.094 60.854C185.18 60.9612 185.309 61.09 185.48 61.2402L185.994 61.691C186.144 61.8198 186.294 61.9378 186.444 62.0452C186.873 62.3672 187.119 62.8069 187.183 63.3644C187.268 63.9005 187.15 64.3829 186.828 64.8114C186.57 65.1328 186.237 65.3576 185.83 65.4859L185.862 65.5181C186.033 65.9042 186.129 66.4081 186.15 67.0299C186.171 67.2872 186.171 67.5338 186.15 67.7696C186.149 67.984 186.149 68.1127 186.149 68.1556C186.149 68.1984 186.16 68.2735 186.181 68.3807C186.331 69.0455 186.491 69.8068 186.661 70.6646C186.704 70.9219 186.736 71.0828 186.758 71.1471C186.8 71.2115 186.854 71.2759 186.918 71.3402L188.3 72.6923C188.707 73.1 188.899 73.5826 188.877 74.1401C188.877 74.6761 188.673 75.1369 188.265 75.5224C187.879 75.908 187.418 76.0899 186.882 76.0679C186.346 76.0674 185.885 75.8741 185.499 75.4878L184.15 74.1679C183.678 73.6958 183.346 73.2667 183.154 72.8806L183.122 72.7841C183.1 72.8269 183.014 72.9448 182.864 73.1376L182.51 73.5875L182.059 74.0695C181.888 74.2624 181.716 74.4337 181.544 74.5837L180.965 75.0012C180.75 75.1511 180.525 75.2903 180.289 75.4187C180.075 75.5257 179.849 75.622 179.614 75.7076ZM178.33 71.9757C178.416 71.9543 178.502 71.9222 178.588 71.8794C178.674 71.8152 178.749 71.7616 178.813 71.7188C178.878 71.6546 178.963 71.5581 179.071 71.4296C179.178 71.301 179.275 71.1939 179.36 71.1082C179.446 71.0226 179.586 70.8726 179.779 70.6584L180.198 70.112C180.348 69.9406 180.552 69.5441 180.81 68.9226C180.831 68.8583 180.842 68.7832 180.842 68.6975C180.864 68.6117 180.874 68.4617 180.875 68.2473C180.896 68.0114 180.929 67.7542 180.972 67.4755C181.123 65.9962 181.724 64.9997 182.776 64.4861C182.861 64.4433 182.947 64.4112 183.033 64.3898L182.519 63.8748C182.09 63.5099 181.737 63.2737 181.458 63.1663C179.443 62.3283 177.867 62.5841 176.73 63.9339C176.15 64.5766 175.731 65.4124 175.473 66.4413C175.215 67.4488 175.16 68.4994 175.309 69.593C175.416 70.3864 175.801 71.03 176.466 71.5237C177.13 72.0175 177.751 72.1681 178.33 71.9757ZM202.708 75.2783C200.544 72.9607 198.745 70.8149 197.31 68.8411L195.025 70.9295C195.11 71.8515 195.216 72.7736 195.344 73.6957C195.408 74.2532 195.279 74.7569 194.957 75.2069C194.635 75.6354 194.195 75.8816 193.637 75.9454C193.08 76.0307 192.576 75.9123 192.126 75.5903C191.698 75.2683 191.441 74.8285 191.356 74.2709C190.823 70.454 190.666 65.9405 190.885 60.7306C190.907 60.1731 191.122 59.7123 191.53 59.3482C191.938 58.9626 192.42 58.7916 192.978 58.8349C193.535 58.8569 193.996 59.0717 194.36 59.4794C194.746 59.8872 194.917 60.3697 194.873 60.9272C194.807 62.6638 194.774 64.2611 194.772 65.7191L201.822 59.2932C202.251 58.9077 202.733 58.7366 203.269 58.78C203.827 58.8019 204.288 59.0275 204.652 59.4566C205.037 59.8643 205.208 60.3469 205.165 60.9043C205.143 61.4403 204.928 61.8904 204.52 62.2545L200.304 66.1101C201.696 68.1053 203.505 70.2618 205.733 72.5794C206.097 73.0086 206.258 73.5019 206.214 74.0593C206.192 74.5953 205.967 75.0561 205.538 75.4416C205.13 75.8058 204.647 75.9661 204.09 75.9227C203.554 75.9008 203.093 75.686 202.708 75.2783ZM228.776 75.3019C226.612 72.9843 224.813 70.8386 223.379 68.8647L221.093 70.9531C221.178 71.8752 221.285 72.7972 221.412 73.7193C221.476 74.2768 221.347 74.7806 221.025 75.2305C220.703 75.6591 220.263 75.9052 219.706 75.9691C219.148 76.0543 218.644 75.9359 218.195 75.6139C217.766 75.2919 217.509 74.8521 217.424 74.2946C216.891 70.4776 216.735 65.9642 216.954 60.7542C216.976 60.1968 217.19 59.736 217.598 59.3719C218.006 58.9863 218.488 58.8152 219.046 58.8586C219.603 58.8805 220.064 59.0954 220.428 59.5031C220.814 59.9108 220.985 60.3934 220.942 60.9508C220.876 62.6875 220.842 64.2848 220.841 65.7428L227.89 59.3169C228.319 58.9313 228.802 58.7602 229.338 58.8036C229.895 58.8256 230.356 59.0511 230.72 59.4802C231.106 59.888 231.277 60.3706 231.233 60.928C231.211 61.464 230.996 61.914 230.589 62.2782L226.372 66.1337C227.764 68.129 229.574 70.2854 231.802 72.6031C232.166 73.0322 232.326 73.5255 232.283 74.0829C232.261 74.619 232.035 75.0797 231.606 75.4653C231.198 75.8294 230.716 75.9898 230.158 75.9464C229.622 75.9245 229.161 75.7096 228.776 75.3019ZM237.036 82.1276C236.607 82.4703 236.113 82.6199 235.556 82.5765C235.02 82.5332 234.57 82.2969 234.206 81.8678C233.863 81.4386 233.713 80.9453 233.757 80.3879C233.8 79.8519 234.036 79.4019 234.466 79.0378C234.895 78.6951 235.367 78.3311 235.882 77.9456C236.418 77.5601 236.847 77.2282 237.169 76.9497C237.512 76.6713 237.824 76.3714 238.103 76.0501L238.103 76.0179C235.856 71.2131 234.08 66.3337 232.777 61.3796C232.627 60.8435 232.692 60.3397 232.971 59.8682C233.251 59.3753 233.658 59.0648 234.194 58.9367C234.731 58.7871 235.234 58.8518 235.706 59.131C236.199 59.4102 236.509 59.8178 236.637 60.354C237.599 63.914 238.796 67.4314 240.23 70.9062C241.734 67.0696 242.767 63.5971 243.327 60.4887C243.413 59.9527 243.681 59.5242 244.132 59.203C244.604 58.8818 245.108 58.775 245.644 58.8827C246.18 58.969 246.608 59.2481 246.93 59.7201C247.251 60.1706 247.358 60.6639 247.25 61.1998C246.56 65.08 245.141 69.6135 242.992 74.8002C242.949 74.8859 242.863 75.1003 242.734 75.4432L242.347 76.472C242.24 76.7721 242.079 77.1257 241.864 77.5329C241.649 77.9401 241.424 78.2937 241.188 78.5936C240.823 79.0221 240.372 79.4612 239.836 79.911C239.321 80.3608 238.763 80.8106 238.162 81.2603C237.561 81.71 237.186 81.9991 237.036 82.1276ZM250.178 74.0992C250.157 73.2844 250.136 72.2016 250.116 70.8508C250.096 69.5 250.086 68.6102 250.087 68.1814C250.046 65.7371 249.941 63.7001 249.77 62.0704C249.749 61.7703 249.782 61.4916 249.868 61.2343C249.846 61.1271 249.836 61.0199 249.836 60.9127C249.815 60.3552 249.998 59.8837 250.384 59.4981C250.77 59.0911 251.242 58.8878 251.8 58.8883C251.864 58.8884 252.464 58.8675 253.601 58.8256C254.737 58.7838 255.723 58.7525 256.56 58.7318C257.803 58.7115 258.822 58.7124 259.615 58.7346C260.108 58.735 260.515 58.7568 260.837 58.8C261.352 58.8434 261.759 58.9188 262.059 59.0263C263.259 59.5205 264.169 60.6041 264.79 62.277C264.918 62.5773 264.993 63.0062 265.014 63.5637C265.035 63.9282 265.045 64.3999 265.044 64.9788C265.044 65.8794 265.021 67.08 264.977 68.5808C264.955 69.2884 264.922 70.0388 264.878 70.8321C264.835 71.6253 264.791 72.3114 264.748 72.8903C264.726 73.4692 264.715 73.8658 264.715 74.0802C264.714 74.6162 264.51 75.0878 264.102 75.4948C263.716 75.8803 263.244 76.0622 262.687 76.0402C262.151 76.0397 261.679 75.8463 261.272 75.46C260.887 75.0523 260.705 74.5697 260.727 74.0123C260.727 73.8193 260.738 73.4227 260.76 72.8223C260.782 72.222 260.815 71.5145 260.858 70.6998C260.902 69.885 260.935 69.1239 260.957 68.4164C261.001 66.9585 261.024 65.8114 261.024 64.9752L261.025 63.7852C261.004 63.6994 260.993 63.6244 260.993 63.5601C260.844 63.1954 260.705 62.938 260.576 62.7878L260.48 62.7877C260.244 62.7661 259.922 62.7443 259.515 62.7225C258.786 62.7219 257.821 62.7317 256.62 62.7521C255.848 62.7728 254.926 62.7934 253.854 62.8139C253.982 64.3148 254.066 66.0838 254.107 68.1207C254.106 68.571 254.106 69.4608 254.104 70.7901C254.125 72.1195 254.145 73.1808 254.166 73.9742C254.187 74.5316 254.004 75.0139 253.618 75.4209C253.253 75.828 252.792 76.0312 252.234 76.0307C251.677 76.0517 251.194 75.8797 250.787 75.5148C250.38 75.1285 250.177 74.6566 250.178 74.0992ZM271.978 75.0838C270.628 74.3321 269.61 73.2377 268.926 71.8006C268.241 70.3634 267.899 68.8408 267.901 67.2327C267.902 65.6461 268.236 64.1348 268.902 62.6989C269.589 61.263 270.609 60.1597 271.96 59.389C272.604 59.0251 273.429 58.8114 274.437 58.748C274.759 58.4267 275.145 58.2341 275.595 58.1702C276.067 58.1063 276.507 58.2032 276.914 58.4608C277.428 58.8044 278.189 59.2553 279.196 59.8137C280.053 60.3076 280.685 60.7156 281.092 61.0375C281.735 61.617 282.217 62.3036 282.538 63.0972C282.88 63.8908 283.147 64.9202 283.339 66.1854C283.552 67.6865 283.422 69.1658 282.949 70.6233C282.476 72.0809 281.714 73.2916 280.662 74.2555C279.525 75.3051 278.206 75.9149 276.705 76.0851C275.204 76.2553 273.628 75.9215 271.978 75.0838ZM273.879 71.6121C275.464 72.4926 276.826 72.4081 277.963 71.3585C278.521 70.8444 278.94 70.1801 279.219 69.3656C279.499 68.5297 279.564 67.6507 279.415 66.7286C279.202 65.249 278.892 64.3482 278.485 64.0262C278.292 63.8545 277.895 63.5968 277.295 63.2532L276.138 62.609C275.967 62.6302 275.763 62.6408 275.527 62.6406L275.173 62.6402C274.959 62.64 274.798 62.6506 274.691 62.672C274.305 62.6931 274.047 62.7357 273.919 62.7999C273.297 63.1638 272.792 63.7423 272.406 64.5353C272.04 65.3282 271.857 66.2393 271.856 67.2685C271.855 68.2762 272.037 69.1769 272.401 69.9705C272.764 70.7427 273.257 71.2899 273.879 71.6121ZM290.37 75.2613C290.005 75.6898 289.544 75.9359 288.986 75.9998C288.45 76.0636 287.968 75.9238 287.54 75.5803C287.111 75.2155 286.865 74.765 286.801 74.2289C286.716 73.3712 286.642 72.5135 286.578 71.6558C286.515 70.7766 286.473 69.7903 286.452 68.6968L286.39 66.1882C286.391 65.6093 286.381 64.6873 286.361 63.4223C286.362 62.1572 286.363 61.3532 286.363 61.0102C286.342 60.4527 286.525 59.9811 286.911 59.5956C287.319 59.1885 287.79 58.9853 288.327 58.9858C288.884 58.9648 289.356 59.1582 289.741 59.566C290.148 59.9523 290.351 60.4134 290.351 60.9495C290.372 61.4855 290.382 62.2574 290.381 63.2651L290.379 65.1948C292.352 65.1323 294.496 65.102 296.812 65.1041L296.719 60.9552C296.698 60.3977 296.881 59.9155 297.267 59.5085C297.653 59.1014 298.114 58.8982 298.65 58.8987C299.208 58.8777 299.69 59.0604 300.097 59.4467C300.504 59.833 300.707 60.2942 300.707 60.8302C300.894 67.4556 300.997 71.8404 301.017 73.9845C301.038 74.542 300.855 75.0242 300.469 75.4313C300.082 75.8169 299.61 76.0094 299.053 76.0089C298.495 76.0298 298.013 75.8471 297.606 75.4608C297.221 75.0745 297.028 74.6027 297.029 74.0452C296.987 72.5443 296.956 70.8933 296.937 69.0923C294.578 69.1116 292.423 69.1525 290.472 69.215C290.535 70.8446 290.641 72.367 290.79 73.7823C290.853 74.3398 290.714 74.8328 290.37 75.2613ZM308.197 72.0292C308.668 72.5013 308.903 73.0697 308.903 73.7344C308.902 74.399 308.666 74.967 308.194 75.4383C307.721 75.9096 307.153 76.1449 306.488 76.1443C305.824 76.1437 305.256 75.9073 304.785 75.4352C304.313 74.9631 304.078 74.3947 304.078 73.73C304.079 73.0653 304.315 72.4974 304.788 72.0261C305.26 71.5548 305.828 71.3195 306.493 71.3201C307.157 71.3207 307.725 71.557 308.197 72.0292ZM315.263 72.0356C315.735 72.5077 315.97 73.0761 315.969 73.7408C315.969 74.4054 315.732 74.9734 315.26 75.4447C314.788 75.916 314.22 76.1513 313.555 76.1507C312.89 76.1501 312.322 75.9137 311.851 75.4416C311.38 74.9695 311.145 74.4011 311.145 73.7364C311.146 73.0717 311.382 72.5038 311.854 72.0325C312.326 71.5612 312.895 71.3259 313.559 71.3265C314.224 71.3271 314.792 71.5635 315.263 72.0356Z" fill="#434343"/>
</svg>
