<svg width="322" height="150" viewBox="0 0 322 150" fill="none" xmlns="http://www.w3.org/2000/svg">
<path d="M32.5225 95.5827C15.9442 61.9475 14.1507 13.1409 89.4423 22.8681C164.734 32.5953 240.628 14.4913 275.561 35.6447C310.494 56.7982 297.246 110.216 226.772 120.21C156.298 130.203 49.1009 129.218 32.5225 95.5827Z" fill="#FADE7E"/>
<path d="M76.8827 63.7731C75.4243 64.2435 73.902 64.2206 72.3158 63.7046C71.0083 63.2746 69.9369 62.6197 69.1015 61.7398C68.2661 60.8386 67.7095 59.8518 67.4318 58.7795C67.1755 57.6858 67.08 56.5922 67.1453 55.4988C67.232 54.4053 67.4581 53.3549 67.8235 52.3476C68.2319 51.3188 68.7795 50.3759 69.4663 49.5188C70.1747 48.6618 71.0007 47.9979 71.9446 47.5271C72.9528 47.0134 74.0679 46.8107 75.2899 46.919C76.512 47.0274 77.7015 47.468 78.8586 48.2409C79.4586 48.6488 80.0048 49.2711 80.4972 50.1078L80.9468 50.8479C81.0752 51.0838 81.193 51.2662 81.3 51.3949C81.5998 51.824 81.6959 52.3065 81.5882 52.8425C81.5019 53.357 81.2443 53.7748 80.8152 54.0961C80.4075 54.4173 79.9357 54.5348 79.3997 54.4485C78.8638 54.3409 78.4352 54.0725 78.114 53.6433C77.9427 53.4073 77.7607 53.1177 77.5681 52.7745L77.1827 52.0988C76.9686 51.7555 76.7973 51.5409 76.6687 51.4551C75.5759 50.7036 74.5683 50.5634 73.6459 51.0342C72.7021 51.5051 71.9723 52.4156 71.4565 53.766C70.8977 55.202 70.8001 56.5098 71.1635 57.6894C71.5483 58.869 72.3195 59.6523 73.477 60.0393C74.2915 60.2759 75.0312 60.2872 75.6961 60.0734C75.8247 60.0521 76.0178 59.9129 76.2754 59.6559L76.8226 59.1096C77.123 58.8312 77.3698 58.6063 77.5629 58.4349C78.0135 58.1137 78.496 57.9855 79.0105 58.0503C79.5465 58.0936 79.9751 58.3299 80.2964 58.759C80.639 59.1881 80.7779 59.6707 80.7131 60.2066C80.6483 60.7426 80.4121 61.1712 80.0044 61.4924C79.8757 61.5781 79.7148 61.7173 79.5216 61.9101L78.9422 62.4885C78.2555 63.1311 77.569 63.5593 76.8827 63.7731ZM97.269 64.0167C95.6397 63.8651 94.2037 63.2099 92.9612 62.0509C91.7401 60.9135 90.8622 59.5619 90.3276 57.9962C90.2635 57.7603 90.1994 57.5244 90.1353 57.2885L88.3986 57.2869L88.7803 61.9828C88.8227 62.5189 88.6722 62.9905 88.3287 63.3975C88.0067 63.8046 87.5777 64.0293 87.0417 64.0717C86.527 64.1142 86.0662 63.9744 85.6591 63.6524C85.252 63.309 85.0273 62.8799 84.9849 62.3653C84.7939 60.1353 84.6352 57.8946 84.5086 55.6432C84.4872 55.5359 84.4766 55.418 84.4767 55.2894L84.4767 55.2572C84.3284 53.2845 84.2017 51.151 84.0966 48.8567C84.0542 48.3207 84.2154 47.8705 84.5803 47.5064C84.9451 47.1208 85.3848 46.9175 85.8994 46.8965C86.4355 46.8541 86.8963 47.0153 87.2819 47.3802C87.689 47.7236 87.903 48.1633 87.924 48.6994C87.9868 50.3718 88.0711 51.9478 88.177 53.4273L89.8815 53.4611C90.119 51.6388 90.8815 50.1279 92.1691 48.9284C92.727 48.4143 93.4885 48.029 94.4536 47.7726C94.5823 47.7299 94.7431 47.6764 94.9361 47.6123C95.1723 47.2265 95.4942 46.9588 95.9017 46.8091C96.3307 46.638 96.7595 46.6276 97.1882 46.7781L97.6705 46.9072C97.7991 46.9502 97.9599 46.9825 98.1528 47.0041L98.603 47.101C99.4176 47.3162 100.093 47.5848 100.628 47.9069C102.15 48.8517 103.274 50.2249 104.002 52.0266C104.75 53.8069 105.049 55.5975 104.897 57.3984C104.724 59.4137 104.036 61.0318 102.835 62.2529C101.418 63.6881 99.563 64.2761 97.269 64.0167ZM97.6906 60.222C98.7411 60.3302 99.5453 60.1058 100.103 59.5488C100.661 58.9919 100.994 58.1667 101.103 57.0733C101.189 55.8941 100.987 54.7361 100.495 53.5993C100.024 52.4625 99.3922 51.6472 98.5993 51.1533C98.4279 51.0245 98.1279 50.9063 97.6991 50.7988L97.5705 50.7665L97.4418 50.8307C97.1415 50.9376 96.7877 51.0552 96.3802 51.1835C96.3587 51.1835 96.2515 51.2155 96.0585 51.2797C95.8654 51.3438 95.7046 51.3866 95.5759 51.4079C95.147 51.5361 94.8789 51.6538 94.7716 51.7609C93.9776 52.4892 93.5908 53.4859 93.611 54.7509C93.6966 54.9654 93.7286 55.2013 93.7069 55.4585L93.7067 55.7158C93.7707 56.0589 93.8454 56.3913 93.9309 56.713C94.2945 57.7211 94.8083 58.547 95.4724 59.1909C96.1579 59.8133 96.8973 60.157 97.6906 60.222ZM108.694 68.1759C108.611 65.4957 108.475 61.1109 108.288 55.0215C107.924 54.6567 107.72 54.217 107.678 53.7023C107.657 53.1877 107.807 52.7269 108.129 52.3198L108.226 52.1912L108.164 49.2002C108.143 48.6427 108.315 48.1604 108.68 47.7534C109.067 47.3464 109.538 47.1431 110.096 47.1436C110.889 47.1229 111.489 47.4772 111.896 48.2066C114.192 46.5577 116.4 46.0987 118.522 46.8296C119.68 47.2166 120.655 47.8822 121.447 48.8263C122.24 49.7919 122.85 50.8752 123.278 52.0763C124.219 54.4999 124.324 56.7406 123.593 58.7983C123.227 60.0415 122.583 61.1344 121.66 62.077C120.759 62.9981 119.622 63.6296 118.25 63.9714C116.598 64.3559 115.065 64.2365 113.651 63.6135C113.308 63.4631 112.933 63.259 112.526 63.0014C112.588 64.8239 112.641 66.5071 112.682 68.0509C112.703 68.6083 112.52 69.0799 112.134 69.4655C111.769 69.8725 111.308 70.0865 110.75 70.1074C110.193 70.1284 109.711 69.9457 109.304 69.5594C108.918 69.1945 108.715 68.7334 108.694 68.1759ZM117.288 60.0468C118.468 59.7692 119.262 59.1481 119.67 58.1836C120.122 56.6618 120.059 55.0643 119.481 53.3914C118.947 51.8686 118.197 50.946 117.233 50.6235C116.161 50.258 114.831 50.8143 113.243 52.2923C112.964 52.5493 112.642 52.935 112.277 53.4492L112.402 57.6946L113.398 58.5961C113.805 58.9824 114.137 59.2721 114.394 59.4653C114.651 59.6371 114.941 59.7981 115.262 59.9485C115.841 60.2063 116.516 60.2391 117.288 60.0468ZM127.282 62.2429C127.261 61.4281 127.241 60.3453 127.221 58.9945C127.2 57.6437 127.191 56.7539 127.191 56.3251C127.15 53.8808 127.045 51.8438 126.875 50.2142C126.854 49.914 126.886 49.6353 126.972 49.378C126.951 49.2708 126.94 49.1636 126.94 49.0564C126.919 48.4989 127.102 48.0274 127.488 47.6418C127.875 47.2348 128.346 47.0315 128.904 47.032C128.968 47.0321 129.569 47.0112 130.705 46.9693C131.841 46.9275 132.828 46.8962 133.664 46.8755C134.908 46.8552 135.926 46.8561 136.719 46.8783C137.212 46.8787 137.62 46.9006 137.941 46.9437C138.456 46.9871 138.863 47.0625 139.163 47.17C140.363 47.6642 141.274 48.7478 141.894 50.4207C142.022 50.721 142.097 51.1499 142.118 51.7074C142.139 52.0719 142.149 52.5436 142.149 53.1225C142.148 54.0231 142.126 55.2237 142.081 56.7246C142.059 57.4321 142.026 58.1825 141.983 58.9758C141.939 59.769 141.896 60.4551 141.852 61.034C141.83 61.6129 141.819 62.0095 141.819 62.2239C141.819 62.7599 141.614 63.2315 141.207 63.6385C140.82 64.0241 140.348 64.2059 139.791 64.1839C139.255 64.1834 138.783 63.99 138.376 63.6037C137.991 63.196 137.809 62.7134 137.831 62.156C137.831 61.963 137.842 61.5664 137.864 60.966C137.886 60.3657 137.919 59.6582 137.963 58.8435C138.006 58.0288 138.039 57.2676 138.061 56.5601C138.105 55.1022 138.128 53.9551 138.129 53.1189L138.13 51.9289C138.108 51.8431 138.098 51.7681 138.098 51.7038C137.948 51.3391 137.809 51.0817 137.68 50.9315L137.584 50.9314C137.348 50.9098 137.027 50.888 136.619 50.8662C135.89 50.8656 134.925 50.8754 133.725 50.8958C132.953 50.9165 132.031 50.9371 130.959 50.9576C131.086 52.4586 131.17 54.2275 131.211 56.2644C131.211 56.7147 131.21 57.6045 131.209 58.9338C131.229 60.2632 131.249 61.3245 131.27 62.1179C131.291 62.6753 131.108 63.1576 130.722 63.5646C130.357 63.9717 129.896 64.1749 129.339 64.1744C128.781 64.1954 128.299 64.0234 127.892 63.6585C127.485 63.2722 127.282 62.8004 127.282 62.2429ZM146.666 68.2103C146.582 65.5301 146.447 61.1454 146.26 55.056C145.895 54.6911 145.692 54.2514 145.65 53.7368C145.629 53.2222 145.779 52.7613 146.101 52.3543L146.198 52.2257L146.136 49.2346C146.115 48.6771 146.287 48.1949 146.652 47.7878C147.038 47.3808 147.51 47.1775 148.068 47.178C148.861 47.1573 149.461 47.5116 149.868 48.241C152.163 46.5921 154.372 46.1332 156.494 46.8641C157.652 47.2511 158.627 47.9166 159.419 48.8607C160.212 49.8263 160.822 50.9096 161.249 52.1107C162.191 54.5344 162.296 56.7751 161.565 58.8327C161.199 60.076 160.555 61.1689 159.632 62.1114C158.731 63.0326 157.594 63.6641 156.221 64.0059C154.57 64.3903 153.037 64.271 151.623 63.6479C151.28 63.4975 150.905 63.2935 150.498 63.0358C150.56 64.8584 150.612 66.5415 150.654 68.0853C150.675 68.6428 150.492 69.1143 150.106 69.4999C149.741 69.907 149.28 70.121 148.722 70.1419C148.165 70.1628 147.683 69.9801 147.275 69.5938C146.89 69.229 146.687 68.7678 146.666 68.2103ZM155.26 60.0813C156.44 59.8036 157.234 59.1826 157.642 58.2181C158.093 56.6962 158.031 55.0988 157.453 53.4259C156.919 51.9031 156.169 50.9804 155.204 50.658C154.133 50.2925 152.803 50.8487 151.215 52.3267C150.936 52.5838 150.614 52.9694 150.249 53.4837L150.374 57.7291L151.37 58.6305C151.777 59.0168 152.109 59.3066 152.366 59.4998C152.623 59.6715 152.913 59.8326 153.234 59.983C153.813 60.2408 154.488 60.2736 155.26 60.0813ZM165.863 63.8538C165.178 63.3815 164.889 62.738 164.997 61.9233L164.997 61.7304C164.765 57.2704 164.823 52.9609 165.17 48.8016C165.213 48.2442 165.438 47.7942 165.846 47.4515C166.275 47.0874 166.769 46.927 167.326 46.9704C167.883 47.0138 168.334 47.25 168.676 47.6792C169.04 48.0869 169.201 48.5694 169.157 49.1269C168.962 51.6353 168.863 54.0366 168.861 56.3308L170.342 54.4346C172.36 51.7992 173.885 49.6243 174.915 47.91C175.259 47.3528 175.742 47.0316 176.363 46.9464C176.599 46.8609 176.835 46.8182 177.071 46.8184C177.629 46.7975 178.111 46.9802 178.518 47.3665C178.925 47.7313 179.128 48.1925 179.128 48.75C179.169 50.1222 179.178 52.3414 179.154 55.4074C179.13 58.2162 179.149 60.446 179.212 62.097C179.233 62.6545 179.05 63.1368 178.664 63.5438C178.299 63.9509 177.838 64.1648 177.28 64.1858C176.744 64.2067 176.273 64.0348 175.866 63.6699C175.459 63.2836 175.245 62.8224 175.224 62.2864C175.161 60.6783 175.142 58.1589 175.166 54.7284L173.524 56.8817C170.497 60.867 168.866 63.0203 168.63 63.3417C168.329 63.8132 167.9 64.0915 167.343 64.1768C166.806 64.2835 166.313 64.1758 165.863 63.8538ZM188.712 64.5821C187.318 64.5808 186.107 64.3332 185.078 63.8391C184.05 63.3236 183.268 62.7011 182.732 61.9716C182.197 61.2421 181.93 60.5558 181.93 59.9125C181.931 59.3551 182.092 58.8942 182.414 58.53C182.736 58.1444 183.154 57.9518 183.669 57.9523C184.205 57.9527 184.698 58.2319 185.147 58.7898C185.554 59.3047 185.897 59.7017 186.175 59.9807C186.454 60.2597 186.829 60.5066 187.3 60.7214C187.772 60.9363 188.34 61.044 189.005 61.0446C189.755 61.0453 190.377 60.8422 190.871 60.4352C191.385 60.0283 191.643 59.5676 191.644 59.053C191.644 58.4741 191.377 58.0021 190.841 57.6372C190.327 57.2507 189.651 57.0572 188.815 57.0564C188.151 57.0558 187.615 56.8945 187.208 56.5725C186.822 56.2291 186.629 55.8109 186.63 55.3177C186.63 54.8031 186.813 54.3959 187.178 54.0961C187.543 53.7748 187.993 53.6144 188.529 53.6149C189.365 53.6156 190.03 53.4447 190.523 53.1021C191.017 52.7381 191.264 52.288 191.264 51.752C191.265 51.3017 191.061 50.9478 190.654 50.6901C190.247 50.411 189.679 50.2711 188.95 50.2705C188.071 50.2697 187.342 50.4834 186.763 50.9117C186.183 51.3186 185.818 51.865 185.668 52.551C185.56 53.044 185.367 53.4298 185.088 53.7082C184.809 53.9867 184.455 54.1258 184.026 54.1254C183.533 54.1249 183.147 53.9638 182.869 53.6419C182.59 53.2986 182.451 52.8804 182.452 52.3872C182.452 51.4224 182.732 50.5328 183.29 49.7186C183.848 48.9043 184.621 48.2618 185.608 47.791C186.616 47.2988 187.752 47.0532 189.017 47.0544C190.004 47.0553 190.958 47.2706 191.879 47.7002C192.822 48.1085 193.583 48.6773 194.161 49.4068C194.761 50.1364 195.06 50.9514 195.059 51.8519C195.059 52.6238 194.833 53.3526 194.382 54.0383C193.952 54.724 193.341 55.2809 192.547 55.709L192.548 54.7763C194.498 55.6143 195.473 56.9445 195.471 58.767C195.47 59.7747 195.191 60.7286 194.632 61.6286C194.074 62.5072 193.28 63.2247 192.25 63.7813C191.221 64.3164 190.041 64.5833 188.712 64.5821ZM214.576 62.2578C214.576 62.7938 214.372 63.2653 213.964 63.6723C213.578 64.0579 213.106 64.2397 212.548 64.2178C212.012 64.2173 211.541 64.0239 211.134 63.6376C210.748 63.2299 210.566 62.7473 210.588 62.1898C210.635 58.1375 210.628 54.4711 210.566 51.1906C208.851 51.189 207.715 51.1773 207.157 51.1553C206.621 51.1549 206.15 50.9615 205.743 50.5752C205.357 50.1674 205.164 49.6956 205.165 49.1595C205.187 48.6021 205.391 48.1306 205.777 47.745C206.185 47.338 206.668 47.1454 207.225 47.1674C213.4 47.2159 217.077 47.2407 218.256 47.2417C218.814 47.2208 219.285 47.4142 219.671 47.8219C220.078 48.2082 220.281 48.6801 220.281 49.2376C220.302 49.7736 220.108 50.2451 219.701 50.6521C219.314 51.0377 218.853 51.2303 218.317 51.2298C217.953 51.2509 216.709 51.2605 214.586 51.2586C214.626 54.5605 214.623 58.2269 214.576 62.2578ZM229.24 64.0078C228.146 64.3499 227.128 64.4133 226.184 64.198C225.241 63.9613 224.395 63.5424 223.645 62.9414C222.916 62.3404 222.317 61.643 221.846 60.8493C221.396 60.0341 221.118 59.2084 221.012 58.3721C220.799 56.7853 220.886 55.2201 221.273 53.6767C221.682 52.1119 222.369 50.7725 223.335 49.6584C224.408 48.373 225.728 47.5594 227.293 47.2178C228.859 46.8547 230.627 47.0493 232.599 47.8015C233.264 48.0594 233.971 48.5103 234.721 49.1542C234.806 49.2615 234.935 49.3902 235.106 49.5405L235.621 49.9912C235.771 50.12 235.921 50.238 236.07 50.3454C236.499 50.6674 236.745 51.1072 236.809 51.6647C236.894 52.2008 236.776 52.6831 236.454 53.1116C236.196 53.433 235.864 53.6578 235.456 53.7861L235.488 53.8183C235.66 54.2044 235.756 54.7083 235.777 55.3301C235.798 55.5874 235.798 55.834 235.776 56.0698C235.776 56.2843 235.776 56.4129 235.776 56.4558C235.775 56.4987 235.786 56.5737 235.807 56.6809C235.957 57.3458 236.117 58.107 236.288 58.9648C236.33 59.2222 236.362 59.383 236.384 59.4474C236.427 59.5117 236.48 59.5761 236.544 59.6405L237.926 60.9925C238.333 61.4002 238.526 61.8828 238.504 62.4403C238.503 62.9763 238.299 63.4371 237.891 63.8227C237.505 64.2083 237.044 64.3901 236.508 64.3682C235.972 64.3677 235.511 64.1743 235.126 63.788L233.776 62.4682C233.305 61.996 232.973 61.5669 232.78 61.1808L232.748 61.0843C232.727 61.1271 232.641 61.245 232.491 61.4378L232.136 61.8878L231.686 62.3698C231.514 62.5626 231.342 62.734 231.171 62.8839L230.591 63.3015C230.377 63.4514 230.152 63.5905 229.916 63.7189C229.701 63.826 229.476 63.9222 229.24 64.0078ZM227.957 60.2759C228.043 60.2545 228.128 60.2225 228.214 60.1797C228.3 60.1154 228.375 60.0619 228.439 60.019C228.504 59.9548 228.59 59.8584 228.697 59.7298C228.804 59.6013 228.901 59.4942 228.987 59.4085C229.073 59.3228 229.212 59.1728 229.405 58.9586L229.824 58.4122C229.974 58.2408 230.178 57.8444 230.436 57.2228C230.458 57.1585 230.468 57.0835 230.468 56.9977C230.49 56.912 230.501 56.7619 230.501 56.5475C230.523 56.3117 230.555 56.0544 230.598 55.7757C230.75 54.2964 231.351 53.3 232.402 52.7863C232.488 52.7435 232.573 52.7114 232.659 52.6901L232.145 52.175C231.717 51.8101 231.363 51.574 231.084 51.4665C229.07 50.6285 227.494 50.8843 226.356 52.2341C225.777 52.8768 225.358 53.7126 225.099 54.7415C224.841 55.749 224.787 56.7996 224.936 57.8932C225.042 58.6866 225.428 59.3302 226.092 59.8239C226.756 60.3177 227.378 60.4683 227.957 60.2759ZM252.334 63.5785C250.17 61.2609 248.371 59.1152 246.937 57.1413L244.651 59.2297C244.736 60.1518 244.843 61.0738 244.97 61.9959C245.034 62.5534 244.905 63.0572 244.583 63.5071C244.261 63.9357 243.821 64.1818 243.264 64.2456C242.706 64.3309 242.203 64.2125 241.753 63.8905C241.324 63.5685 241.067 63.1287 240.982 62.5712C240.449 58.7542 240.293 54.2407 240.512 49.0308C240.534 48.4734 240.748 48.0126 241.156 47.6484C241.564 47.2629 242.047 47.0918 242.604 47.1352C243.161 47.1571 243.622 47.3719 243.986 47.7797C244.372 48.1874 244.543 48.67 244.5 49.2274C244.434 50.964 244.4 52.5614 244.399 54.0193L251.448 47.5935C251.877 47.2079 252.36 47.0368 252.896 47.0802C253.453 47.1021 253.914 47.3277 254.278 47.7568C254.664 48.1646 254.835 48.6471 254.791 49.2046C254.769 49.7406 254.554 50.1906 254.147 50.5548L249.93 54.4103C251.322 56.4056 253.132 58.562 255.36 60.8797C255.724 61.3088 255.884 61.8021 255.841 62.3595C255.819 62.8955 255.593 63.3563 255.164 63.7419C254.756 64.106 254.274 64.2664 253.716 64.223C253.18 64.201 252.719 63.9862 252.334 63.5785ZM99.5475 93.7937C98.0891 94.264 96.5668 94.2412 94.9806 93.7252C93.6731 93.2952 92.6016 92.6403 91.7663 91.7604C90.9309 90.8591 90.3743 89.8724 90.0965 88.8001C89.8402 87.7063 89.7448 86.6128 89.8101 85.5193C89.8968 84.4259 90.1229 83.3755 90.4883 82.3681C90.8966 81.3393 91.4442 80.3964 92.1311 79.5394C92.8394 78.6824 93.6655 78.0185 94.6094 77.5477C95.6175 77.034 96.7327 76.8313 97.9547 76.9396C99.1767 77.0479 100.366 77.4886 101.523 78.2615C102.123 78.6694 102.67 79.2917 103.162 80.1283L103.612 80.8684C103.74 81.1044 103.858 81.2868 103.965 81.4155C104.265 81.8446 104.361 82.3271 104.253 82.863C104.167 83.3775 103.909 83.7954 103.48 84.1166C103.072 84.4379 102.6 84.5554 102.065 84.4691C101.529 84.3614 101.1 84.093 100.779 83.6639C100.607 83.4279 100.425 83.1383 100.233 82.7951L99.8475 82.1193C99.6334 81.7761 99.4621 81.5615 99.3335 81.4756C98.2407 80.7242 97.2331 80.5839 96.3107 81.0548C95.3669 81.5256 94.6371 82.4362 94.1213 83.7865C93.5625 85.2226 93.4648 86.5304 93.8283 87.71C94.2131 88.8896 94.9843 89.6728 96.1417 90.0598C96.9563 90.2964 97.696 90.3078 98.3609 90.094C98.4895 90.0727 98.6826 89.9335 98.9401 89.6764L99.4874 89.1302C99.7878 88.8517 100.035 88.6268 100.228 88.4555C100.678 88.1343 101.161 88.0061 101.675 88.0708C102.211 88.1142 102.64 88.3505 102.961 88.7796C103.304 89.2087 103.443 89.6912 103.378 90.2272C103.313 90.7632 103.077 91.1918 102.669 91.513C102.54 91.5987 102.38 91.7379 102.186 91.9307L101.607 92.5091C100.92 93.1517 100.234 93.5799 99.5475 93.7937ZM119.934 94.0373C118.304 93.8857 116.868 93.2305 115.626 92.0715C114.405 90.934 113.527 89.5825 112.992 88.0168C112.928 87.7809 112.864 87.545 112.8 87.3091L111.063 87.3075L111.445 92.0034C111.487 92.5395 111.337 93.011 110.994 93.4181C110.672 93.8252 110.242 94.0499 109.706 94.0923C109.192 94.1347 108.731 93.995 108.324 93.673C107.917 93.3295 107.692 92.9005 107.65 92.3859C107.459 90.1559 107.3 87.9151 107.173 85.6637C107.152 85.5565 107.141 85.4386 107.141 85.3099L107.142 85.2778C106.993 83.3051 106.867 81.1716 106.761 78.8773C106.719 78.3412 106.88 77.8911 107.245 77.527C107.61 77.1414 108.05 76.9381 108.564 76.9171C109.1 76.8747 109.561 77.0359 109.947 77.4008C110.354 77.7442 110.568 78.1839 110.589 78.72C110.652 80.3924 110.736 81.9684 110.842 83.4479L112.546 83.4816C112.784 81.6594 113.546 80.1485 114.834 78.9489C115.392 78.4349 116.153 78.0496 117.118 77.7932C117.247 77.7504 117.408 77.697 117.601 77.6328C117.837 77.2471 118.159 76.9794 118.566 76.8297C118.995 76.6585 119.424 76.6482 119.853 76.7987L120.335 76.9278C120.464 76.9708 120.625 77.0031 120.818 77.0247L121.268 77.1216C122.082 77.3367 122.757 77.6054 123.293 77.9275C124.815 78.8722 125.939 80.2455 126.666 82.0472C127.415 83.8275 127.714 85.618 127.562 87.4189C127.389 89.4342 126.701 91.0524 125.499 92.2734C124.083 93.7087 122.228 94.2966 119.934 94.0373ZM120.355 90.2426C121.406 90.3508 122.21 90.1264 122.768 89.5694C123.326 89.0125 123.659 88.1873 123.767 87.0939C123.854 85.9147 123.652 84.7567 123.159 83.6199C122.689 82.4831 122.057 81.6678 121.264 81.1739C121.093 81.0451 120.793 80.9269 120.364 80.8193L120.235 80.787L120.107 80.8513C119.806 80.9582 119.452 81.0758 119.045 81.2041C119.023 81.204 118.916 81.2361 118.723 81.3003C118.53 81.3644 118.369 81.4071 118.241 81.4285C117.812 81.5567 117.544 81.6744 117.436 81.7815C116.642 82.5098 116.256 83.5064 116.276 84.7715C116.361 84.986 116.393 85.2218 116.372 85.4791L116.371 85.7364C116.435 86.0795 116.51 86.4119 116.596 86.7336C116.959 87.7417 117.473 88.5676 118.137 89.2114C118.823 89.8338 119.562 90.1776 120.355 90.2426ZM131.359 98.1965C131.275 95.5163 131.14 91.1315 130.952 85.0421C130.588 84.6773 130.385 84.2375 130.343 83.7229C130.322 83.2083 130.472 82.7475 130.794 82.3404L130.891 82.2118L130.829 79.2207C130.808 78.6633 130.98 78.181 131.345 77.774C131.731 77.3669 132.203 77.1637 132.761 77.1642C133.554 77.1435 134.154 77.4978 134.561 78.2271C136.856 76.5783 139.065 76.1193 141.187 76.8502C142.345 77.2372 143.32 77.9027 144.112 78.8469C144.905 79.8124 145.515 80.8957 145.942 82.0968C146.884 84.5205 146.989 86.7612 146.258 88.8188C145.892 90.0621 145.248 91.155 144.325 92.0976C143.424 93.0187 142.287 93.6502 140.914 93.992C139.263 94.3764 137.73 94.2571 136.316 93.634C135.973 93.4836 135.598 93.2796 135.191 93.022C135.253 94.8445 135.305 96.5277 135.347 98.0714C135.368 98.6289 135.185 99.1005 134.799 99.486C134.434 99.8931 133.973 100.107 133.415 100.128C132.858 100.149 132.375 99.9663 131.968 99.58C131.583 99.2151 131.38 98.7539 131.359 98.1965ZM139.953 90.0674C141.133 89.7898 141.927 89.1687 142.335 88.2042C142.786 86.6823 142.724 85.0849 142.146 83.412C141.611 81.8892 140.862 80.9666 139.897 80.6441C138.826 80.2786 137.496 80.8349 135.908 82.3129C135.629 82.5699 135.307 82.9555 134.942 83.4698L135.067 87.7152L136.063 88.6166C136.47 89.0029 136.802 89.2927 137.059 89.4859C137.316 89.6577 137.606 89.8187 137.927 89.9691C138.506 90.2269 139.181 90.2597 139.953 90.0674ZM149.947 92.2635C149.926 91.4487 149.906 90.3659 149.885 89.0151C149.865 87.6643 149.855 86.7745 149.856 86.3457C149.815 83.9014 149.71 81.8644 149.54 80.2347C149.518 79.9345 149.551 79.6558 149.637 79.3986C149.616 79.2914 149.605 79.1842 149.605 79.077C149.584 78.5195 149.767 78.048 150.153 77.6624C150.539 77.2553 151.011 77.0521 151.569 77.0526C151.633 77.0526 152.233 77.0318 153.37 76.9899C154.506 76.9481 155.492 76.9168 156.329 76.8961C157.572 76.8758 158.591 76.8767 159.384 76.8989C159.877 76.8993 160.285 76.9211 160.606 76.9643C161.121 77.0077 161.528 77.0831 161.828 77.1905C163.028 77.6848 163.939 78.7684 164.559 80.4413C164.687 80.7416 164.762 81.1705 164.783 81.728C164.804 82.0925 164.814 82.5642 164.814 83.1431C164.813 84.0436 164.79 85.2443 164.746 86.7451C164.724 87.4527 164.691 88.2031 164.648 88.9963C164.604 89.7896 164.56 90.4757 164.517 91.0546C164.495 91.6334 164.484 92.0301 164.484 92.2445C164.483 92.7805 164.279 93.252 163.871 93.659C163.485 94.0446 163.013 94.2264 162.456 94.2045C161.92 94.204 161.448 94.0106 161.041 93.6243C160.656 93.2166 160.474 92.734 160.496 92.1766C160.496 91.9836 160.507 91.5869 160.529 90.9866C160.551 90.3863 160.584 89.6788 160.627 88.864C160.671 88.0493 160.704 87.2882 160.726 86.5807C160.77 85.1227 160.793 83.9757 160.793 83.1395L160.795 81.9495C160.773 81.8637 160.763 81.7887 160.763 81.7243C160.613 81.3597 160.474 81.1023 160.345 80.9521L160.249 80.952C160.013 80.9303 159.691 80.9086 159.284 80.8868C158.555 80.8861 157.59 80.896 156.389 80.9163C155.617 80.9371 154.695 80.9577 153.623 80.9781C153.751 82.4791 153.835 84.2481 153.876 86.285C153.875 86.7353 153.875 87.6251 153.873 88.9544C153.894 90.2838 153.914 91.3451 153.935 92.1384C153.956 92.6959 153.773 93.1782 153.387 93.5852C153.022 93.9923 152.561 94.1955 152.003 94.195C151.446 94.216 150.964 94.044 150.557 93.6791C150.15 93.2928 149.946 92.8209 149.947 92.2635ZM169.33 98.2309C169.247 95.5507 169.112 91.1659 168.924 85.0765C168.56 84.7117 168.357 84.272 168.314 83.7574C168.293 83.2428 168.444 82.7819 168.766 82.3748L168.863 82.2463L168.801 79.2552C168.78 78.6977 168.952 78.2155 169.317 77.8084C169.703 77.4014 170.175 77.1981 170.732 77.1986C171.526 77.1779 172.126 77.5322 172.533 78.2616C174.828 76.6127 177.037 76.1537 179.159 76.8847C180.316 77.2716 181.291 77.9372 182.084 78.8813C182.876 79.8469 183.486 80.9302 183.914 82.1313C184.855 84.555 184.961 86.7956 184.23 88.8533C183.864 90.0965 183.22 91.1894 182.297 92.132C181.396 93.0532 180.259 93.6846 178.886 94.0264C177.235 94.4109 175.702 94.2916 174.287 93.6685C173.945 93.5181 173.569 93.3141 173.162 93.0564C173.225 94.8789 173.277 96.5621 173.319 98.1059C173.34 98.6634 173.157 99.1349 172.771 99.5205C172.406 99.9275 171.945 100.142 171.387 100.162C170.83 100.183 170.347 100.001 169.94 99.6144C169.555 99.2496 169.351 98.7884 169.33 98.2309ZM177.925 90.1019C179.104 89.8242 179.898 89.2031 180.307 88.2387C180.758 86.7168 180.695 85.1194 180.118 83.4465C179.583 81.9237 178.834 81.001 177.869 80.6785C176.797 80.3131 175.468 80.8693 173.88 82.3473C173.601 82.6043 173.279 82.99 172.914 83.5042L173.039 87.7497L174.035 88.6511C174.442 89.0374 174.774 89.3271 175.031 89.5203C175.288 89.6921 175.577 89.8532 175.899 90.0036C176.478 90.2614 177.153 90.2941 177.925 90.1019ZM188.528 93.8744C187.843 93.4021 187.554 92.7586 187.662 91.9439L187.662 91.7509C187.43 87.291 187.488 82.9814 187.834 78.8222C187.878 78.2648 188.103 77.8147 188.511 77.472C188.94 77.1079 189.433 76.9476 189.991 76.991C190.548 77.0344 190.998 77.2706 191.341 77.6997C191.705 78.1074 191.865 78.59 191.822 79.1474C191.627 81.6559 191.528 84.0572 191.526 86.3513L193.007 84.4551C195.025 81.8197 196.549 79.6449 197.58 77.9305C197.924 77.3734 198.406 77.0522 199.028 76.967C199.264 76.8815 199.5 76.8388 199.736 76.839C200.293 76.8181 200.776 77.0007 201.183 77.3871C201.59 77.7519 201.793 78.2131 201.792 78.7705C201.834 80.1428 201.843 82.362 201.819 85.428C201.795 88.2367 201.814 90.4666 201.877 92.1176C201.898 92.6751 201.715 93.1574 201.329 93.5644C200.964 93.9714 200.503 94.1854 199.945 94.2064C199.409 94.2273 198.938 94.0554 198.531 93.6905C198.124 93.3042 197.91 92.843 197.889 92.307C197.826 90.6988 197.807 88.1795 197.831 84.749L196.189 86.9023C193.162 90.8876 191.531 93.0409 191.295 93.3623C190.994 93.8337 190.565 94.1121 190.007 94.1973C189.471 94.3041 188.978 94.1964 188.528 93.8744ZM211.377 94.6027C209.983 94.6014 208.772 94.3537 207.743 93.8597C206.714 93.3441 205.932 92.7216 205.397 91.9922C204.862 91.2627 204.594 90.5763 204.595 89.9331C204.595 89.3756 204.757 88.9148 205.079 88.5506C205.401 88.165 205.819 87.9724 206.333 87.9728C206.869 87.9733 207.362 88.2525 207.812 88.8104C208.219 89.3253 208.562 89.7223 208.84 90.0013C209.119 90.2803 209.494 90.5272 209.965 90.742C210.437 90.9568 211.005 91.0646 211.669 91.0652C212.42 91.0659 213.042 90.8627 213.535 90.4558C214.05 90.0489 214.308 89.5881 214.308 89.0736C214.309 88.4947 214.041 88.0227 213.506 87.6577C212.991 87.2713 212.316 87.0777 211.48 87.077C210.815 87.0764 210.28 86.9151 209.872 86.5931C209.487 86.2497 209.294 85.8314 209.295 85.3383C209.295 84.8237 209.478 84.4165 209.843 84.1166C210.207 83.7954 210.658 83.635 211.194 83.6355C212.03 83.6362 212.695 83.4653 213.188 83.1227C213.682 82.7586 213.929 82.3086 213.929 81.7726C213.93 81.3223 213.726 80.9684 213.319 80.7107C212.912 80.4316 212.344 80.2917 211.615 80.291C210.736 80.2903 210.007 80.504 209.427 80.9323C208.848 81.3391 208.483 81.8856 208.332 82.5715C208.225 83.0646 208.031 83.4503 207.752 83.7288C207.473 84.0073 207.119 84.1463 206.691 84.146C206.198 84.1455 205.812 83.9843 205.533 83.6625C205.255 83.3192 205.116 82.9009 205.116 82.4078C205.117 81.443 205.397 80.5534 205.955 79.7392C206.513 78.9249 207.286 78.2824 208.272 77.8116C209.28 77.3194 210.417 77.0738 211.682 77.075C212.668 77.0759 213.622 77.2911 214.544 77.7208C215.487 78.129 216.248 78.6979 216.826 79.4274C217.425 80.157 217.725 80.972 217.724 81.8725C217.723 82.6444 217.498 83.3732 217.047 84.0589C216.617 84.7446 216.006 85.3015 215.212 85.7296L215.213 84.7969C217.163 85.6349 218.138 86.9651 218.136 88.7876C218.135 89.7953 217.855 90.7492 217.297 91.6492C216.739 92.5278 215.945 93.2453 214.915 93.8018C213.886 94.3369 212.706 94.6039 211.377 94.6027ZM224.329 90.2083C224.8 90.6804 225.036 91.2488 225.035 91.9135C225.035 92.5782 224.798 93.1461 224.326 93.6174C223.854 94.0887 223.286 94.324 222.621 94.3234C221.956 94.3228 221.388 94.0864 220.917 93.6143C220.446 93.1422 220.21 92.5738 220.211 91.9091C220.212 91.2444 220.448 90.6765 220.92 90.2052C221.392 89.7339 221.961 89.4986 222.625 89.4992C223.29 89.4998 223.858 89.7362 224.329 90.2083ZM231.396 90.2147C231.867 90.6868 232.103 91.2552 232.102 91.9199C232.101 92.5846 231.865 93.1525 231.393 93.6238C230.921 94.0951 230.352 94.3304 229.688 94.3298C229.023 94.3292 228.455 94.0929 227.984 93.6207C227.512 93.1486 227.277 92.5802 227.278 91.9155C227.278 91.2509 227.515 90.6829 227.987 90.2116C228.459 89.7403 229.027 89.505 229.692 89.5056C230.357 89.5062 230.925 89.7426 231.396 90.2147Z" fill="#434343"/>
</svg>
